v -1.036299706 -0.3545413017 -0.8721344471
vn 0 1 -6.123234263e-17
v -0.8193840981 -0.3545413017 -1.656119466
vn 0 1 -6.123234263e-17
v -0.3628298342 -0.3545413017 -1.587057352
vn 0 1 -6.123234263e-17
v -0.1653241813 -0.3545413017 -1.093286395
vn 0 1 -6.123234263e-17
v -0.425814569 -0.3545413017 -1.154440284
vn 0 1 -6.123234263e-17
v -0.5042651892 -0.3545413017 -0.9510785937
vn 0 1 -6.123234263e-17
v -0.5827157497 -0.3545413017 -0.7477169037
vn 0 1 -6.123234263e-17
v -1.146177649 -0.3545413017 -1.323155761
vn 0 1 -6.123234263e-17
v -0.9162413478 -0.3545413017 -1.269375086
vn 0 1 -6.123234263e-17
v -0.8678126931 -0.3545413017 -1.462747216
vn 0 1 -6.123234263e-17
v -0.5245673656 -0.3545413017 -1.401325822
vn 0 1 -6.123234263e-17
v -0.3943222165 -0.3545413017 -1.370748878
vn 0 1 -6.123234263e-17
v -0.8613023162 -0.3545413017 -1.043864369
vn 0 1 -6.123234263e-17
v -1.003739953 -0.3545413017 -1.183510065
vn 0 1 -6.123234263e-17
v -0.7528445125 -0.3545413017 -1.435856819
vn 0 1 -6.123234263e-17
v -0.6719757318 -0.3545413017 -1.528722763
vn 0 1 -6.123234263e-17
v -0.6345103979 -0.3545413017 -0.9816555381
vn 0 1 -6.123234263e-17
v -0.7220090628 -0.3545413017 -0.8957906365
vn 0 1 -6.123234263e-17
v -0.6863049269 -0.3545413017 -1.215594292
vn 0 1 -6.123234263e-17
# mm_gid 0
g mmGroup0
f 4//4 5//5 6//6 
f 8//8 9//9 10//10 
f 11//11 5//5 12//12 
f 1//1 13//13 14//14 
f 15//15 11//11 16//16 
f 17//17 13//13 18//18 
f 4//4 3//3 12//12 
f 5//5 19//19 17//17 
f 3//3 2//2 16//16 
f 5//5 11//11 19//19 
f 1//1 7//7 18//18 
f 13//13 19//19 9//9 
f 13//13 17//17 19//19 
f 17//17 7//7 6//6 
f 9//9 19//19 15//15 
f 9//9 8//8 14//14 
f 11//11 15//15 19//19 
f 15//15 2//2 10//10 
f 11//11 12//12 3//3 
f 4//4 12//12 5//5 
f 4//4 6//6 7//7 
f 17//17 6//6 5//5 
f 17//17 18//18 7//7 
f 1//1 18//18 13//13 
f 1//1 14//14 8//8 
f 9//9 14//14 13//13 
f 8//8 10//10 2//2 
f 15//15 10//10 9//9 
f 15//15 16//16 2//2 
f 3//3 16//16 11//11 
