solid STL generated by MeshLab
  facet normal  0.000000e+00  1.000000e+00  0.000000e+00
    outer loop
      vertex  -1.653242e-01 -3.545413e-01 -1.093286e+00
      vertex  -4.258146e-01 -3.545413e-01 -1.154440e+00
      vertex  -5.042652e-01 -3.545413e-01 -9.510786e-01
    endloop
  endfacet
  facet normal -0.000000e+00  1.000000e+00  0.000000e+00
    outer loop
      vertex  -1.146178e+00 -3.545413e-01 -1.323156e+00
      vertex  -9.162413e-01 -3.545413e-01 -1.269375e+00
      vertex  -8.678127e-01 -3.545413e-01 -1.462747e+00
    endloop
  endfacet
  facet normal  0.000000e+00  1.000000e+00  0.000000e+00
    outer loop
      vertex  -5.245674e-01 -3.545413e-01 -1.401326e+00
      vertex  -4.258146e-01 -3.545413e-01 -1.154440e+00
      vertex  -3.943222e-01 -3.545413e-01 -1.370749e+00
    endloop
  endfacet
  facet normal  0.000000e+00  1.000000e+00  0.000000e+00
    outer loop
      vertex  -1.036300e+00 -3.545413e-01 -8.721344e-01
      vertex  -8.613023e-01 -3.545413e-01 -1.043864e+00
      vertex  -1.003740e+00 -3.545413e-01 -1.183510e+00
    endloop
  endfacet
  facet normal -0.000000e+00  1.000000e+00  0.000000e+00
    outer loop
      vertex  -7.528445e-01 -3.545413e-01 -1.435857e+00
      vertex  -5.245674e-01 -3.545413e-01 -1.401326e+00
      vertex  -6.719757e-01 -3.545413e-01 -1.528723e+00
    endloop
  endfacet
  facet normal  0.000000e+00  1.000000e+00  0.000000e+00
    outer loop
      vertex  -6.345104e-01 -3.545413e-01 -9.816555e-01
      vertex  -8.613023e-01 -3.545413e-01 -1.043864e+00
      vertex  -7.220091e-01 -3.545413e-01 -8.957906e-01
    endloop
  endfacet
  facet normal  0.000000e+00  1.000000e+00  0.000000e+00
    outer loop
      vertex  -1.653242e-01 -3.545413e-01 -1.093286e+00
      vertex  -3.628298e-01 -3.545413e-01 -1.587057e+00
      vertex  -3.943222e-01 -3.545413e-01 -1.370749e+00
    endloop
  endfacet
  facet normal  0.000000e+00  1.000000e+00  0.000000e+00
    outer loop
      vertex  -4.258146e-01 -3.545413e-01 -1.154440e+00
      vertex  -6.863049e-01 -3.545413e-01 -1.215594e+00
      vertex  -6.345104e-01 -3.545413e-01 -9.816555e-01
    endloop
  endfacet
  facet normal  0.000000e+00  1.000000e+00  0.000000e+00
    outer loop
      vertex  -3.628298e-01 -3.545413e-01 -1.587057e+00
      vertex  -8.193841e-01 -3.545413e-01 -1.656119e+00
      vertex  -6.719757e-01 -3.545413e-01 -1.528723e+00
    endloop
  endfacet
  facet normal  0.000000e+00  1.000000e+00  0.000000e+00
    outer loop
      vertex  -4.258146e-01 -3.545413e-01 -1.154440e+00
      vertex  -5.245674e-01 -3.545413e-01 -1.401326e+00
      vertex  -6.863049e-01 -3.545413e-01 -1.215594e+00
    endloop
  endfacet
  facet normal -0.000000e+00  1.000000e+00  0.000000e+00
    outer loop
      vertex  -1.036300e+00 -3.545413e-01 -8.721344e-01
      vertex  -5.827157e-01 -3.545413e-01 -7.477169e-01
      vertex  -7.220091e-01 -3.545413e-01 -8.957906e-01
    endloop
  endfacet
  facet normal  0.000000e+00  1.000000e+00  0.000000e+00
    outer loop
      vertex  -8.613023e-01 -3.545413e-01 -1.043864e+00
      vertex  -6.863049e-01 -3.545413e-01 -1.215594e+00
      vertex  -9.162413e-01 -3.545413e-01 -1.269375e+00
    endloop
  endfacet
  facet normal -0.000000e+00  1.000000e+00  0.000000e+00
    outer loop
      vertex  -8.613023e-01 -3.545413e-01 -1.043864e+00
      vertex  -6.345104e-01 -3.545413e-01 -9.816555e-01
      vertex  -6.863049e-01 -3.545413e-01 -1.215594e+00
    endloop
  endfacet
  facet normal  0.000000e+00  1.000000e+00  0.000000e+00
    outer loop
      vertex  -6.345104e-01 -3.545413e-01 -9.816555e-01
      vertex  -5.827157e-01 -3.545413e-01 -7.477169e-01
      vertex  -5.042652e-01 -3.545413e-01 -9.510786e-01
    endloop
  endfacet
  facet normal -0.000000e+00  1.000000e+00  0.000000e+00
    outer loop
      vertex  -9.162413e-01 -3.545413e-01 -1.269375e+00
      vertex  -6.863049e-01 -3.545413e-01 -1.215594e+00
      vertex  -7.528445e-01 -3.545413e-01 -1.435857e+00
    endloop
  endfacet
  facet normal  0.000000e+00  1.000000e+00  0.000000e+00
    outer loop
      vertex  -9.162413e-01 -3.545413e-01 -1.269375e+00
      vertex  -1.146178e+00 -3.545413e-01 -1.323156e+00
      vertex  -1.003740e+00 -3.545413e-01 -1.183510e+00
    endloop
  endfacet
  facet normal  0.000000e+00  1.000000e+00  0.000000e+00
    outer loop
      vertex  -5.245674e-01 -3.545413e-01 -1.401326e+00
      vertex  -7.528445e-01 -3.545413e-01 -1.435857e+00
      vertex  -6.863049e-01 -3.545413e-01 -1.215594e+00
    endloop
  endfacet
  facet normal  0.000000e+00  1.000000e+00  0.000000e+00
    outer loop
      vertex  -7.528445e-01 -3.545413e-01 -1.435857e+00
      vertex  -8.193841e-01 -3.545413e-01 -1.656119e+00
      vertex  -8.678127e-01 -3.545413e-01 -1.462747e+00
    endloop
  endfacet
  facet normal -0.000000e+00  1.000000e+00  0.000000e+00
    outer loop
      vertex  -5.245674e-01 -3.545413e-01 -1.401326e+00
      vertex  -3.943222e-01 -3.545413e-01 -1.370749e+00
      vertex  -3.628298e-01 -3.545413e-01 -1.587057e+00
    endloop
  endfacet
  facet normal  0.000000e+00  1.000000e+00  0.000000e+00
    outer loop
      vertex  -1.653242e-01 -3.545413e-01 -1.093286e+00
      vertex  -3.943222e-01 -3.545413e-01 -1.370749e+00
      vertex  -4.258146e-01 -3.545413e-01 -1.154440e+00
    endloop
  endfacet
  facet normal  0.000000e+00  1.000000e+00  0.000000e+00
    outer loop
      vertex  -1.653242e-01 -3.545413e-01 -1.093286e+00
      vertex  -5.042652e-01 -3.545413e-01 -9.510786e-01
      vertex  -5.827157e-01 -3.545413e-01 -7.477169e-01
    endloop
  endfacet
  facet normal -0.000000e+00  1.000000e+00  0.000000e+00
    outer loop
      vertex  -6.345104e-01 -3.545413e-01 -9.816555e-01
      vertex  -5.042652e-01 -3.545413e-01 -9.510786e-01
      vertex  -4.258146e-01 -3.545413e-01 -1.154440e+00
    endloop
  endfacet
  facet normal  0.000000e+00  1.000000e+00 -0.000000e+00
    outer loop
      vertex  -6.345104e-01 -3.545413e-01 -9.816555e-01
      vertex  -7.220091e-01 -3.545413e-01 -8.957906e-01
      vertex  -5.827157e-01 -3.545413e-01 -7.477169e-01
    endloop
  endfacet
  facet normal  0.000000e+00  1.000000e+00  0.000000e+00
    outer loop
      vertex  -1.036300e+00 -3.545413e-01 -8.721344e-01
      vertex  -7.220091e-01 -3.545413e-01 -8.957906e-01
      vertex  -8.613023e-01 -3.545413e-01 -1.043864e+00
    endloop
  endfacet
  facet normal  0.000000e+00  1.000000e+00  0.000000e+00
    outer loop
      vertex  -1.036300e+00 -3.545413e-01 -8.721344e-01
      vertex  -1.003740e+00 -3.545413e-01 -1.183510e+00
      vertex  -1.146178e+00 -3.545413e-01 -1.323156e+00
    endloop
  endfacet
  facet normal  0.000000e+00  1.000000e+00 -0.000000e+00
    outer loop
      vertex  -9.162413e-01 -3.545413e-01 -1.269375e+00
      vertex  -1.003740e+00 -3.545413e-01 -1.183510e+00
      vertex  -8.613023e-01 -3.545413e-01 -1.043864e+00
    endloop
  endfacet
  facet normal  0.000000e+00  1.000000e+00  0.000000e+00
    outer loop
      vertex  -1.146178e+00 -3.545413e-01 -1.323156e+00
      vertex  -8.678127e-01 -3.545413e-01 -1.462747e+00
      vertex  -8.193841e-01 -3.545413e-01 -1.656119e+00
    endloop
  endfacet
  facet normal  0.000000e+00  1.000000e+00  0.000000e+00
    outer loop
      vertex  -7.528445e-01 -3.545413e-01 -1.435857e+00
      vertex  -8.678127e-01 -3.545413e-01 -1.462747e+00
      vertex  -9.162413e-01 -3.545413e-01 -1.269375e+00
    endloop
  endfacet
  facet normal  0.000000e+00  1.000000e+00  0.000000e+00
    outer loop
      vertex  -7.528445e-01 -3.545413e-01 -1.435857e+00
      vertex  -6.719757e-01 -3.545413e-01 -1.528723e+00
      vertex  -8.193841e-01 -3.545413e-01 -1.656119e+00
    endloop
  endfacet
  facet normal  0.000000e+00  1.000000e+00  0.000000e+00
    outer loop
      vertex  -3.628298e-01 -3.545413e-01 -1.587057e+00
      vertex  -6.719757e-01 -3.545413e-01 -1.528723e+00
      vertex  -5.245674e-01 -3.545413e-01 -1.401326e+00
    endloop
  endfacet
endsolid vcg
