solid STL generated by MeshLab
  facet normal  0.000000e+00  1.000000e+00  0.000000e+00
    outer loop
      vertex  -1.788597e+00 -3.545413e-01  5.775006e-01
      vertex  -1.777216e+00 -3.545413e-01  9.842971e-01
      vertex  -1.655128e+00 -3.545413e-01  7.753654e-01
    endloop
  endfacet
  facet normal  0.000000e+00  1.000000e+00 -0.000000e+00
    outer loop
      vertex  -1.255451e+00 -3.545413e-01  5.559205e-01
      vertex  -1.367463e+00 -3.545413e-01  8.184255e-01
      vertex  -1.172663e+00 -3.545413e-01  6.819164e-01
    endloop
  endfacet
  facet normal  0.000000e+00  1.000000e+00 -0.000000e+00
    outer loop
      vertex  -1.305658e+00 -3.545413e-01  1.951401e-02
      vertex  -1.419349e+00 -3.545413e-01  2.929738e-01
      vertex  -1.198606e+00 -3.545413e-01  4.191905e-01
    endloop
  endfacet
  facet normal  0.000000e+00  1.000000e+00  0.000000e+00
    outer loop
      vertex  -1.697466e+00 -3.545413e-01  3.660155e-01
      vertex  -1.419349e+00 -3.545413e-01  2.929738e-01
      vertex  -1.640620e+00 -3.545413e-01  2.292855e-01
    endloop
  endfacet
  facet normal  0.000000e+00  1.000000e+00  0.000000e+00
    outer loop
      vertex  -1.201885e+00 -3.545413e-01  1.070418e+00
      vertex  -1.367463e+00 -3.545413e-01  8.184255e-01
      vertex  -1.572340e+00 -3.545413e-01  9.013614e-01
    endloop
  endfacet
  facet normal  0.000000e+00  1.000000e+00  0.000000e+00
    outer loop
      vertex  -1.697466e+00 -3.545413e-01  3.660155e-01
      vertex  -2.044153e+00 -3.545413e-01  5.885673e-01
      vertex  -1.788597e+00 -3.545413e-01  5.775006e-01
    endloop
  endfacet
  facet normal  0.000000e+00  1.000000e+00  0.000000e+00
    outer loop
      vertex  -1.367463e+00 -3.545413e-01  8.184255e-01
      vertex  -1.533040e+00 -3.545413e-01  5.664337e-01
      vertex  -1.655128e+00 -3.545413e-01  7.753654e-01
    endloop
  endfacet
  facet normal  0.000000e+00  1.000000e+00  0.000000e+00
    outer loop
      vertex  -1.201885e+00 -3.545413e-01  1.070418e+00
      vertex  -9.778625e-01 -3.545413e-01  5.454073e-01
      vertex  -1.172663e+00 -3.545413e-01  6.819164e-01
    endloop
  endfacet
  facet normal  0.000000e+00  1.000000e+00  0.000000e+00
    outer loop
      vertex  -1.305658e+00 -3.545413e-01  1.951401e-02
      vertex  -1.861892e+00 -3.545413e-01  1.655973e-01
      vertex  -1.640620e+00 -3.545413e-01  2.292855e-01
    endloop
  endfacet
  facet normal  0.000000e+00  1.000000e+00 -0.000000e+00
    outer loop
      vertex  -1.419349e+00 -3.545413e-01  2.929738e-01
      vertex  -1.533040e+00 -3.545413e-01  5.664337e-01
      vertex  -1.255451e+00 -3.545413e-01  5.559205e-01
    endloop
  endfacet
  facet normal  0.000000e+00  1.000000e+00  0.000000e+00
    outer loop
      vertex  -1.367463e+00 -3.545413e-01  8.184255e-01
      vertex  -1.255451e+00 -3.545413e-01  5.559205e-01
      vertex  -1.533040e+00 -3.545413e-01  5.664337e-01
    endloop
  endfacet
  facet normal  0.000000e+00  1.000000e+00  0.000000e+00
    outer loop
      vertex  -1.255451e+00 -3.545413e-01  5.559205e-01
      vertex  -9.778625e-01 -3.545413e-01  5.454073e-01
      vertex  -1.198606e+00 -3.545413e-01  4.191905e-01
    endloop
  endfacet
  facet normal  0.000000e+00  1.000000e+00  0.000000e+00
    outer loop
      vertex  -2.044153e+00 -3.545413e-01  5.885673e-01
      vertex  -1.697466e+00 -3.545413e-01  3.660155e-01
      vertex  -1.861892e+00 -3.545413e-01  1.655973e-01
    endloop
  endfacet
  facet normal  0.000000e+00  1.000000e+00  0.000000e+00
    outer loop
      vertex  -1.419349e+00 -3.545413e-01  2.929738e-01
      vertex  -1.697466e+00 -3.545413e-01  3.660155e-01
      vertex  -1.533040e+00 -3.545413e-01  5.664337e-01
    endloop
  endfacet
  facet normal  0.000000e+00  1.000000e+00 -0.000000e+00
    outer loop
      vertex  -1.697466e+00 -3.545413e-01  3.660155e-01
      vertex  -1.788597e+00 -3.545413e-01  5.775006e-01
      vertex  -1.533040e+00 -3.545413e-01  5.664337e-01
    endloop
  endfacet
  facet normal  0.000000e+00  1.000000e+00  0.000000e+00
    outer loop
      vertex  -1.777216e+00 -3.545413e-01  9.842971e-01
      vertex  -1.788597e+00 -3.545413e-01  5.775006e-01
      vertex  -2.044153e+00 -3.545413e-01  5.885673e-01
    endloop
  endfacet
  facet normal -0.000000e+00  1.000000e+00  0.000000e+00
    outer loop
      vertex  -1.788597e+00 -3.545413e-01  5.775006e-01
      vertex  -1.655128e+00 -3.545413e-01  7.753654e-01
      vertex  -1.533040e+00 -3.545413e-01  5.664337e-01
    endloop
  endfacet
  facet normal  0.000000e+00  1.000000e+00 -0.000000e+00
    outer loop
      vertex  -1.655128e+00 -3.545413e-01  7.753654e-01
      vertex  -1.777216e+00 -3.545413e-01  9.842971e-01
      vertex  -1.572340e+00 -3.545413e-01  9.013614e-01
    endloop
  endfacet
  facet normal  0.000000e+00  1.000000e+00  0.000000e+00
    outer loop
      vertex  -1.305658e+00 -3.545413e-01  1.951401e-02
      vertex  -1.198606e+00 -3.545413e-01  4.191905e-01
      vertex  -9.778625e-01 -3.545413e-01  5.454073e-01
    endloop
  endfacet
  facet normal  0.000000e+00  1.000000e+00  0.000000e+00
    outer loop
      vertex  -1.255451e+00 -3.545413e-01  5.559205e-01
      vertex  -1.198606e+00 -3.545413e-01  4.191905e-01
      vertex  -1.419349e+00 -3.545413e-01  2.929738e-01
    endloop
  endfacet
  facet normal -0.000000e+00  1.000000e+00  0.000000e+00
    outer loop
      vertex  -1.255451e+00 -3.545413e-01  5.559205e-01
      vertex  -1.172663e+00 -3.545413e-01  6.819164e-01
      vertex  -9.778625e-01 -3.545413e-01  5.454073e-01
    endloop
  endfacet
  facet normal  0.000000e+00  1.000000e+00  0.000000e+00
    outer loop
      vertex  -1.201885e+00 -3.545413e-01  1.070418e+00
      vertex  -1.172663e+00 -3.545413e-01  6.819164e-01
      vertex  -1.367463e+00 -3.545413e-01  8.184255e-01
    endloop
  endfacet
  facet normal  0.000000e+00  1.000000e+00  0.000000e+00
    outer loop
      vertex  -1.697466e+00 -3.545413e-01  3.660155e-01
      vertex  -1.640620e+00 -3.545413e-01  2.292855e-01
      vertex  -1.861892e+00 -3.545413e-01  1.655973e-01
    endloop
  endfacet
  facet normal  0.000000e+00  1.000000e+00  0.000000e+00
    outer loop
      vertex  -1.305658e+00 -3.545413e-01  1.951401e-02
      vertex  -1.640620e+00 -3.545413e-01  2.292855e-01
      vertex  -1.419349e+00 -3.545413e-01  2.929738e-01
    endloop
  endfacet
  facet normal  0.000000e+00  1.000000e+00  0.000000e+00
    outer loop
      vertex  -1.201885e+00 -3.545413e-01  1.070418e+00
      vertex  -1.572340e+00 -3.545413e-01  9.013614e-01
      vertex  -1.777216e+00 -3.545413e-01  9.842971e-01
    endloop
  endfacet
  facet normal  0.000000e+00  1.000000e+00  0.000000e+00
    outer loop
      vertex  -1.655128e+00 -3.545413e-01  7.753654e-01
      vertex  -1.572340e+00 -3.545413e-01  9.013614e-01
      vertex  -1.367463e+00 -3.545413e-01  8.184255e-01
    endloop
  endfacet
endsolid vcg
