v -1.201884985 -0.3545413017 1.070417523
vn 0 1 -6.123234263e-17
v -2.044153452 -0.3545413017 0.5885673165
vn 0 1 -6.123234263e-17
v -1.777216434 -0.3545413017 0.9842970967
vn 0 1 -6.123234263e-17
v -1.305657864 -0.3545413017 0.01951400749
vn 0 1 -6.123234263e-17
v -1.861891866 -0.3545413017 0.1655972898
vn 0 1 -6.123234263e-17
v -0.9778625369 -0.3545413017 0.5454072952
vn 0 1 -6.123234263e-17
v -1.788596749 -0.3545413017 0.5775006413
vn 0 1 -6.123234263e-17
v -1.65512836 -0.3545413017 0.7753654122
vn 0 1 -6.123234263e-17
v -1.255451322 -0.3545413017 0.5559204817
vn 0 1 -6.123234263e-17
v -1.367462635 -0.3545413017 0.8184255362
vn 0 1 -6.123234263e-17
v -1.172662616 -0.3545413017 0.6819164157
vn 0 1 -6.123234263e-17
v -1.419349074 -0.3545413017 0.2929737866
vn 0 1 -6.123234263e-17
v -1.198605776 -0.3545413017 0.419190526
vn 0 1 -6.123234263e-17
v -1.697466016 -0.3545413017 0.3660154939
vn 0 1 -6.123234263e-17
v -1.64062047 -0.3545413017 0.2292855233
vn 0 1 -6.123234263e-17
v -1.572339535 -0.3545413017 0.9013614058
vn 0 1 -6.123234263e-17
v -1.533040166 -0.3545413017 0.5664337277
vn 0 1 -6.123234263e-17
# mm_gid 0
g mmGroup0
f 7//7 3//3 8//8 
f 9//9 10//10 11//11 
f 4//4 12//12 13//13 
f 14//14 12//12 15//15 
f 1//1 10//10 16//16 
f 14//14 2//2 7//7 
f 10//10 17//17 8//8 
f 1//1 6//6 11//11 
f 4//4 5//5 15//15 
f 12//12 17//17 9//9 
f 10//10 9//9 17//17 
f 9//9 6//6 13//13 
f 2//2 14//14 5//5 
f 12//12 14//14 17//17 
f 14//14 7//7 17//17 
f 3//3 7//7 2//2 
f 7//7 8//8 17//17 
f 8//8 3//3 16//16 
f 4//4 13//13 6//6 
f 9//9 13//13 12//12 
f 9//9 11//11 6//6 
f 1//1 11//11 10//10 
f 14//14 15//15 5//5 
f 4//4 15//15 12//12 
f 1//1 16//16 3//3 
f 8//8 16//16 10//10 
