solid WRAP
facet normal -0.5271740839683 -0.3550151330270 0.7720438721433
outer loop
vertex 39.0484258532524 154.0490090847015 -141.7215615510941
vertex 38.4094494145534 157.2796578327843 -140.6722981535792
vertex 36.1884134600971 154.9867715818627 -143.2432426086239
endloop
endfacet
facet normal -0.5271968954264 -0.3550066891142 0.7720321781746
outer loop
vertex 25.9594637900591 163.2304787635803 -146.4373469352722
vertex 26.3176113367081 160.2665185928345 -147.5557088851929
vertex 28.0946308106588 162.6936042652301 -145.2261805968966
endloop
endfacet
facet normal -0.5271908651588 -0.3549962382473 0.7720411015764
outer loop
vertex 26.9267521798611 166.0106927156448 -144.4984227418900
vertex 26.1761043220758 164.4444316625595 -145.7311958074570
vertex 28.0946308106588 162.6936042652301 -145.2261805968966
endloop
endfacet
facet normal -0.5272024945157 -0.3549983748672 0.7720321778385
outer loop
vertex 26.9267521798611 166.0106927156448 -144.4984227418900
vertex 28.0946308106588 162.6936042652301 -145.2261805968966
vertex 30.2992237418134 164.8305165630154 -142.7381142432094
endloop
endfacet
facet normal -0.5271917804153 -0.3550126881958 0.7720329124348
outer loop
vertex 26.3176113367081 160.2665185928345 -147.5557088851929
vertex 27.5037791579962 157.8163951635361 -147.8723883628845
vertex 29.9044682989120 158.4429387604594 -145.9449387877807
endloop
endfacet
facet normal -0.5271915772490 -0.3550118088782 0.7720334555152
outer loop
vertex 28.0946308106588 162.6936042652301 -145.2261805968966
vertex 26.3176113367081 160.2665185928345 -147.5557088851929
vertex 29.9044682989120 158.4429387604594 -145.9449387877807
endloop
endfacet
facet normal -0.5271761206435 -0.3549992994819 0.7720497621207
outer loop
vertex 37.8169715404511 162.3177826404572 -138.7602090835571
vertex 36.4165529608727 163.5335087776184 -139.1574442386627
vertex 37.2957161153555 160.6377066301022 -139.8886586503642
endloop
endfacet
facet normal -0.5271883975593 -0.3550152987922 0.7720340219850
outer loop
vertex 29.4938236474991 155.4429382085800 -147.6048827171326
vertex 30.9240818023682 154.2833447456360 -147.1614539623261
vertex 29.9044682989120 158.4429387604594 -145.9449387877807
endloop
endfacet
facet normal -0.5271865357585 -0.3550152242609 0.7720353275971
outer loop
vertex 29.9044682989120 158.4429387604594 -145.9449387877807
vertex 30.9240818023682 154.2833447456360 -147.1614539623261
vertex 33.1158992832984 155.9699803570679 -144.8891771351951
endloop
endfacet
facet normal -0.5271832223986 -0.3550175012701 0.7720365430556
outer loop
vertex 34.0777635574341 152.8506875038147 -145.6667631864548
vertex 36.1884134600971 154.9867715818627 -143.2432426086239
vertex 33.1158992832984 155.9699803570679 -144.8891771351951
endloop
endfacet
facet normal -0.5271826695151 -0.3550174327506 0.7720369520989
outer loop
vertex 32.6541699469090 153.2600969076157 -146.4505940675736
vertex 34.0777635574341 152.8506875038147 -145.6667631864548
vertex 33.1158992832984 155.9699803570679 -144.8891771351951
endloop
endfacet
facet normal -0.5271792160141 -0.3550221424104 0.7720371445734
outer loop
vertex 34.0777635574341 152.8506875038147 -145.6667631864548
vertex 35.8006134629250 152.9429703950882 -144.4478929042816
vertex 36.1884134600971 154.9867715818627 -143.2432426086239
endloop
endfacet
facet normal -0.5271771000637 -0.3550116817076 0.7720433996995
outer loop
vertex 36.1884134600971 154.9867715818627 -143.2432426086239
vertex 38.4094494145534 157.2796578327843 -140.6722981535792
vertex 35.2781048968062 158.4763375984728 -142.2602112509012
endloop
endfacet
facet normal -0.5271801111534 -0.3550150072332 0.7720398144160
outer loop
vertex 39.0484258532524 154.0490090847015 -141.7215615510941
vertex 40.2553007006645 155.8033674955368 -140.0907337665558
vertex 38.4094494145534 157.2796578327843 -140.6722981535792
endloop
endfacet
facet normal -0.5271802985202 -0.3550060287383 0.7720438150854
outer loop
vertex 40.5590347945690 157.7712446451187 -138.9784365892410
vertex 40.1731878519058 159.1832488775253 -138.5926306247711
vertex 38.4094494145534 157.2796578327843 -140.6722981535792
endloop
endfacet
facet normal -0.5271771793145 -0.3550095012438 0.7720443482318
outer loop
vertex 38.4094494145534 157.2796578327843 -140.6722981535792
vertex 40.1731878519058 159.1832488775253 -138.5926306247711
vertex 37.2957161153555 160.6377066301022 -139.8886586503642
endloop
endfacet
facet normal -0.5271762961250 -0.3550056306399 0.7720467311102
outer loop
vertex 40.1731878519058 159.1832488775253 -138.5926306247711
vertex 39.0457510948181 161.1439734697342 -138.4608894586563
vertex 37.2957161153555 160.6377066301022 -139.8886586503642
endloop
endfacet
facet normal -0.5272188793812 -0.3550408190986 0.7720014702045
outer loop
vertex 34.5475189387798 165.0838106870651 -139.7204548120499
vertex 33.1482551991940 166.1499589681625 -140.1857286691666
vertex 33.8498486467581 162.4753088654653 -141.3965521031022
endloop
endfacet
facet normal -0.5271888946278 -0.3550061490908 0.7720378899308
outer loop
vertex 33.8498486467581 162.4753088654653 -141.3965521031022
vertex 30.2992237418134 164.8305165630154 -142.7381142432094
vertex 30.9901685275525 161.5856280320883 -143.7583970221043
endloop
endfacet
facet normal -0.5271833266966 -0.3550187531211 0.7720358961767
outer loop
vertex 33.8498486467581 162.4753088654653 -141.3965521031022
vertex 30.9901685275525 161.5856280320883 -143.7583970221043
vertex 32.6598615718380 159.4091954582572 -143.6190771335244
endloop
endfacet
facet normal -0.5272025746713 -0.3550413018596 0.7720123828241
outer loop
vertex 33.1482551991940 166.1499589681625 -140.1857286691666
vertex 30.2992237418134 164.8305165630154 -142.7381142432094
vertex 33.8498486467581 162.4753088654653 -141.3965521031022
endloop
endfacet
facet normal -0.5271741695785 -0.3550165353451 0.7720431688453
outer loop
vertex 37.5129245221615 153.2840132713318 -143.1218236684799
vertex 39.0484258532524 154.0490090847015 -141.7215615510941
vertex 36.1884134600971 154.9867715818627 -143.2432426086239
endloop
endfacet
facet normal -0.5271673974095 -0.3550200259299 0.7720461879300
outer loop
vertex 35.2781048968062 158.4763375984728 -142.2602112509012
vertex 37.2957161153555 160.6377066301022 -139.8886586503642
vertex 33.8498486467581 162.4753088654653 -141.3965521031022
endloop
endfacet
facet normal -0.5272445978942 -0.3549638991147 0.7720192771665
outer loop
vertex 33.1482551991940 166.1499589681625 -140.1857286691666
vertex 30.4444935172796 167.5321459770203 -141.3967311382294
vertex 30.2992237418134 164.8305165630154 -142.7381142432094
endloop
endfacet
facet normal -0.5271871678639 -0.3550164749283 0.7720343208492
outer loop
vertex 29.9044682989120 158.4429387604594 -145.9449387877807
vertex 33.1158992832984 155.9699803570679 -144.8891771351951
vertex 32.6598615718380 159.4091954582572 -143.6190771335244
endloop
endfacet
facet normal -0.5271799602188 -0.3549970438882 0.7720481774957
outer loop
vertex 39.0457510948181 161.1439734697342 -138.4608894586563
vertex 37.8169715404511 162.3177826404572 -138.7602090835571
vertex 37.2957161153555 160.6377066301022 -139.8886586503642
endloop
endfacet
facet normal -0.5271860111048 -0.3550159432773 0.7720353552230
outer loop
vertex 30.9240818023682 154.2833447456360 -147.1614539623261
vertex 32.6541699469090 153.2600969076157 -146.4505940675736
vertex 33.1158992832984 155.9699803570679 -144.8891771351951
endloop
endfacet
facet normal -0.5271782728667 -0.3550221003349 0.7720378079415
outer loop
vertex 35.2781048968062 158.4763375984728 -142.2602112509012
vertex 33.8498486467581 162.4753088654653 -141.3965521031022
vertex 32.6598615718380 159.4091954582572 -143.6190771335244
endloop
endfacet
facet normal -0.5271801963233 -0.3550216856505 0.7720366852180
outer loop
vertex 35.8006134629250 152.9429703950882 -144.4478929042816
vertex 37.5129245221615 153.2840132713318 -143.1218236684799
vertex 36.1884134600971 154.9867715818627 -143.2432426086239
endloop
endfacet
facet normal -0.5271829275756 -0.3550120351437 0.7720392579240
outer loop
vertex 33.1158992832984 155.9699803570679 -144.8891771351951
vertex 36.1884134600971 154.9867715818627 -143.2432426086239
vertex 35.2781048968062 158.4763375984728 -142.2602112509012
endloop
endfacet
facet normal -0.5271616638799 -0.3549976002832 0.7720604146882
outer loop
vertex 37.2957161153555 160.6377066301022 -139.8886586503642
vertex 36.4165529608727 163.5335087776184 -139.1574442386627
vertex 33.8498486467581 162.4753088654653 -141.3965521031022
endloop
endfacet
facet normal -0.5271091309630 -0.3551006451448 0.7720488947425
outer loop
vertex 36.4165529608727 163.5335087776184 -139.1574442386627
vertex 34.5475189387798 165.0838106870651 -139.7204548120499
vertex 33.8498486467581 162.4753088654653 -141.3965521031022
endloop
endfacet
facet normal -0.5271914748631 -0.3549808890650 0.7720477428438
outer loop
vertex 30.4444935172796 167.5321459770203 -141.3967311382294
vertex 28.5477042198181 167.3195362091065 -142.7897065877914
vertex 30.2992237418134 164.8305165630154 -142.7381142432094
endloop
endfacet
facet normal -0.5272016765737 -0.3549882828601 0.7720373768477
outer loop
vertex 28.5477042198181 167.3195362091065 -142.7897065877914
vertex 26.9267521798611 166.0106927156448 -144.4984227418900
vertex 30.2992237418134 164.8305165630154 -142.7381142432094
endloop
endfacet
facet normal -0.5271959695126 -0.3550061381074 0.7720330638229
outer loop
vertex 30.2992237418134 164.8305165630154 -142.7381142432094
vertex 28.0946308106588 162.6936042652301 -145.2261805968966
vertex 30.9901685275525 161.5856280320883 -143.7583970221043
endloop
endfacet
facet normal -0.5271969052357 -0.3550052405608 0.7720328375686
outer loop
vertex 26.1761043220758 164.4444316625595 -145.7311958074570
vertex 25.9594637900591 163.2304787635803 -146.4373469352722
vertex 28.0946308106588 162.6936042652301 -145.2261805968966
endloop
endfacet
facet normal -0.5271782064138 -0.3550114731216 0.7720427401604
outer loop
vertex 40.2553007006645 155.8033674955368 -140.0907337665558
vertex 40.5590347945690 157.7712446451187 -138.9784365892410
vertex 38.4094494145534 157.2796578327843 -140.6722981535792
endloop
endfacet
facet normal -0.5271768531540 -0.3550094504882 0.7720445942837
outer loop
vertex 38.4094494145534 157.2796578327843 -140.6722981535792
vertex 37.2957161153555 160.6377066301022 -139.8886586503642
vertex 35.2781048968062 158.4763375984728 -142.2602112509012
endloop
endfacet
facet normal -0.5271967654642 -0.3550133026783 0.7720292257457
outer loop
vertex 28.0946308106588 162.6936042652301 -145.2261805968966
vertex 29.9044682989120 158.4429387604594 -145.9449387877807
vertex 30.9901685275525 161.5856280320883 -143.7583970221043
endloop
endfacet
facet normal -0.5271911830344 -0.3550141558647 0.7720326454668
outer loop
vertex 27.5037791579962 157.8163951635361 -147.8723883628845
vertex 29.4938236474991 155.4429382085800 -147.6048827171326
vertex 29.9044682989120 158.4429387604594 -145.9449387877807
endloop
endfacet
facet normal -0.5271853196923 -0.3550204182176 0.7720337695655
outer loop
vertex 30.9901685275525 161.5856280320883 -143.7583970221043
vertex 29.9044682989120 158.4429387604594 -145.9449387877807
vertex 32.6598615718380 159.4091954582572 -143.6190771335244
endloop
endfacet
facet normal -0.5271778668618 -0.3550174256465 0.7720402348183
outer loop
vertex 33.1158992832984 155.9699803570679 -144.8891771351951
vertex 35.2781048968062 158.4763375984728 -142.2602112509012
vertex 32.6598615718380 159.4091954582572 -143.6190771335244
endloop
endfacet
endsolid WRAP
