solid STL generated by MeshLab
  facet normal -4.933705e-01 -2.047619e-01  8.453745e-01
    outer loop
      vertex   3.201910e+01  1.526179e+02 -1.469768e+02
      vertex   3.374967e+01  1.518069e+02 -1.461632e+02
      vertex   3.265417e+01  1.532601e+02 -1.464506e+02
    endloop
  endfacet
  facet normal -5.073153e-01 -3.638694e-01  7.811723e-01
    outer loop
      vertex   2.617610e+01  1.644444e+02 -1.457312e+02
      vertex   2.519118e+01  1.648160e+02 -1.461978e+02
      vertex   2.595946e+01  1.632305e+02 -1.464373e+02
    endloop
  endfacet
  facet normal -5.744880e-01 -2.008715e-01  7.934823e-01
    outer loop
      vertex   3.580061e+01  1.529430e+02 -1.444479e+02
      vertex   3.671379e+01  1.519888e+02 -1.440283e+02
      vertex   3.751292e+01  1.532840e+02 -1.431218e+02
    endloop
  endfacet
  facet normal -5.191690e-01 -2.285246e-01  8.235533e-01
    outer loop
      vertex   3.265417e+01  1.532601e+02 -1.464506e+02
      vertex   3.374967e+01  1.518069e+02 -1.461632e+02
      vertex   3.407776e+01  1.528507e+02 -1.456668e+02
    endloop
  endfacet
  facet normal -4.742529e-01 -2.575360e-01  8.418785e-01
    outer loop
      vertex   2.865549e+01  1.550244e+02 -1.482052e+02
      vertex   3.029220e+01  1.536225e+02 -1.477120e+02
      vertex   2.949382e+01  1.554429e+02 -1.476049e+02
    endloop
  endfacet
  facet normal -4.933096e-01 -3.772784e-01  7.837771e-01
    outer loop
      vertex   2.564206e+01  1.655502e+02 -1.455287e+02
      vertex   2.692675e+01  1.660107e+02 -1.444984e+02
      vertex   2.669970e+01  1.668952e+02 -1.442155e+02
    endloop
  endfacet
  facet normal -5.119075e-01 -3.780827e-01  7.713652e-01
    outer loop
      vertex   2.669970e+01  1.668952e+02 -1.442155e+02
      vertex   2.692675e+01  1.660107e+02 -1.444984e+02
      vertex   2.733418e+01  1.672287e+02 -1.436310e+02
    endloop
  endfacet
  facet normal -4.557758e-01 -3.276202e-01  8.276070e-01
    outer loop
      vertex   2.631761e+01  1.602665e+02 -1.475557e+02
      vertex   2.613849e+01  1.584671e+02 -1.483667e+02
      vertex   2.750378e+01  1.578164e+02 -1.478724e+02
    endloop
  endfacet
  facet normal -4.502953e-01 -3.082331e-01  8.379894e-01
    outer loop
      vertex   2.750378e+01  1.578164e+02 -1.478724e+02
      vertex   2.613849e+01  1.584671e+02 -1.483667e+02
      vertex   2.726029e+01  1.566834e+02 -1.484200e+02
    endloop
  endfacet
  facet normal -5.597945e-01 -4.094486e-01  7.204040e-01
    outer loop
      vertex   3.641655e+01  1.635335e+02 -1.391574e+02
      vertex   3.781697e+01  1.623178e+02 -1.387602e+02
      vertex   3.616455e+01  1.649217e+02 -1.385643e+02
    endloop
  endfacet
  facet normal -5.384452e-01 -3.975979e-01  7.429621e-01
    outer loop
      vertex   3.781697e+01  1.623178e+02 -1.387602e+02
      vertex   3.907329e+01  1.624531e+02 -1.377773e+02
      vertex   3.616455e+01  1.649217e+02 -1.385643e+02
    endloop
  endfacet
  facet normal -5.579284e-01 -4.069790e-01  7.232455e-01
    outer loop
      vertex   3.616455e+01  1.649217e+02 -1.385643e+02
      vertex   3.424060e+01  1.664661e+02 -1.391794e+02
      vertex   3.454752e+01  1.650838e+02 -1.397205e+02
    endloop
  endfacet
  facet normal -5.099185e-01 -3.869776e-01  7.682653e-01
    outer loop
      vertex   2.519118e+01  1.648160e+02 -1.461978e+02
      vertex   2.617610e+01  1.644444e+02 -1.457312e+02
      vertex   2.564206e+01  1.655502e+02 -1.455287e+02
    endloop
  endfacet
  facet normal -5.048814e-01 -3.895577e-01  7.702854e-01
    outer loop
      vertex   2.796866e+01  1.675622e+02 -1.430465e+02
      vertex   2.733418e+01  1.672287e+02 -1.436310e+02
      vertex   2.854770e+01  1.673195e+02 -1.427897e+02
    endloop
  endfacet
  facet normal -5.214275e-01 -3.737851e-01  7.670711e-01
    outer loop
      vertex   2.854770e+01  1.673195e+02 -1.427897e+02
      vertex   3.044449e+01  1.675322e+02 -1.413967e+02
      vertex   2.923761e+01  1.682292e+02 -1.418775e+02
    endloop
  endfacet
  facet normal -5.048814e-01 -3.895577e-01  7.702854e-01
    outer loop
      vertex   2.796866e+01  1.675622e+02 -1.430465e+02
      vertex   2.854770e+01  1.673195e+02 -1.427897e+02
      vertex   2.923761e+01  1.682292e+02 -1.418775e+02
    endloop
  endfacet
  facet normal -5.277289e-01 -3.951749e-01  7.518904e-01
    outer loop
      vertex   3.044449e+01  1.675322e+02 -1.413967e+02
      vertex   3.224394e+01  1.678329e+02 -1.399757e+02
      vertex   3.074078e+01  1.680310e+02 -1.409266e+02
    endloop
  endfacet
  facet normal -6.203924e-01 -3.111624e-01  7.199245e-01
    outer loop
      vertex   4.055904e+01  1.577712e+02 -1.389784e+02
      vertex   4.025530e+01  1.558034e+02 -1.400907e+02
      vertex   4.109481e+01  1.567773e+02 -1.389463e+02
    endloop
  endfacet
  facet normal -6.476899e-01 -2.761061e-01  7.101149e-01
    outer loop
      vertex   4.109481e+01  1.567773e+02 -1.389463e+02
      vertex   4.025530e+01  1.558034e+02 -1.400907e+02
      vertex   4.073351e+01  1.549329e+02 -1.399930e+02
    endloop
  endfacet
  facet normal -6.406058e-01 -2.379687e-01  7.300652e-01
    outer loop
      vertex   4.025530e+01  1.558034e+02 -1.400907e+02
      vertex   3.904843e+01  1.540490e+02 -1.417216e+02
      vertex   3.978873e+01  1.536736e+02 -1.411943e+02
    endloop
  endfacet
  facet normal -5.465803e-01 -3.564084e-01  7.577751e-01
    outer loop
      vertex   4.017319e+01  1.591832e+02 -1.385926e+02
      vertex   4.055904e+01  1.577712e+02 -1.389784e+02
      vertex   4.117458e+01  1.588486e+02 -1.380277e+02
    endloop
  endfacet
  facet normal -4.947956e-01 -3.584839e-01  7.916228e-01
    outer loop
      vertex   2.631761e+01  1.602665e+02 -1.475557e+02
      vertex   2.595946e+01  1.632305e+02 -1.464373e+02
      vertex   2.492086e+01  1.631278e+02 -1.471330e+02
    endloop
  endfacet
  facet normal -4.740133e-01 -3.507082e-01  8.076603e-01
    outer loop
      vertex   2.531638e+01  1.603615e+02 -1.481021e+02
      vertex   2.631761e+01  1.602665e+02 -1.475557e+02
      vertex   2.492086e+01  1.631278e+02 -1.471330e+02
    endloop
  endfacet
  facet normal -4.769328e-01 -3.212434e-01  8.181307e-01
    outer loop
      vertex   2.613849e+01  1.584671e+02 -1.483667e+02
      vertex   2.631761e+01  1.602665e+02 -1.475557e+02
      vertex   2.531638e+01  1.603615e+02 -1.481021e+02
    endloop
  endfacet
  facet normal -6.284737e-01 -1.749538e-01  7.578998e-01
    outer loop
      vertex   3.904843e+01  1.540490e+02 -1.417216e+02
      vertex   3.865997e+01  1.527921e+02 -1.423338e+02
      vertex   3.978873e+01  1.536736e+02 -1.411943e+02
    endloop
  endfacet
  facet normal -5.804451e-01 -2.094689e-01  7.868966e-01
    outer loop
      vertex   3.671379e+01  1.519888e+02 -1.440283e+02
      vertex   3.580061e+01  1.529430e+02 -1.444479e+02
      vertex   3.531797e+01  1.516697e+02 -1.451428e+02
    endloop
  endfacet
  facet normal -4.797293e-01 -2.212699e-01  8.490580e-01
    outer loop
      vertex   3.201910e+01  1.526179e+02 -1.469768e+02
      vertex   3.265417e+01  1.532601e+02 -1.464506e+02
      vertex   3.092408e+01  1.542833e+02 -1.471615e+02
    endloop
  endfacet
  facet normal -5.277320e-01 -3.951722e-01  7.518895e-01
    outer loop
      vertex   2.923761e+01  1.682292e+02 -1.418775e+02
      vertex   3.044449e+01  1.675322e+02 -1.413967e+02
      vertex   3.074078e+01  1.680310e+02 -1.409266e+02
    endloop
  endfacet
  facet normal -5.543555e-01 -2.269193e-01  8.007482e-01
    outer loop
      vertex   3.580061e+01  1.529430e+02 -1.444479e+02
      vertex   3.407776e+01  1.528507e+02 -1.456668e+02
      vertex   3.531797e+01  1.516697e+02 -1.451428e+02
    endloop
  endfacet
  facet normal -6.094639e-01 -1.869461e-01  7.704576e-01
    outer loop
      vertex   3.904843e+01  1.540490e+02 -1.417216e+02
      vertex   3.751292e+01  1.532840e+02 -1.431218e+02
      vertex   3.865997e+01  1.527921e+02 -1.423338e+02
    endloop
  endfacet
  facet normal -5.594881e-01 -3.917957e-01  7.303898e-01
    outer loop
      vertex   3.424060e+01  1.664661e+02 -1.391794e+02
      vertex   3.224394e+01  1.678329e+02 -1.399757e+02
      vertex   3.314825e+01  1.661500e+02 -1.401857e+02
    endloop
  endfacet
  facet normal -6.136124e-01 -2.531398e-01  7.479305e-01
    outer loop
      vertex   4.073351e+01  1.549329e+02 -1.399930e+02
      vertex   4.025530e+01  1.558034e+02 -1.400907e+02
      vertex   3.978873e+01  1.536736e+02 -1.411943e+02
    endloop
  endfacet
  facet normal -5.074291e-01 -3.807518e-01  7.730096e-01
    outer loop
      vertex   2.733418e+01  1.672287e+02 -1.436310e+02
      vertex   2.692675e+01  1.660107e+02 -1.444984e+02
      vertex   2.854770e+01  1.673195e+02 -1.427897e+02
    endloop
  endfacet
  facet normal -5.573884e-01 -4.097379e-01  7.221032e-01
    outer loop
      vertex   3.641655e+01  1.635335e+02 -1.391574e+02
      vertex   3.616455e+01  1.649217e+02 -1.385643e+02
      vertex   3.454752e+01  1.650838e+02 -1.397205e+02
    endloop
  endfacet
  facet normal -5.547841e-01 -3.691075e-01  7.456368e-01
    outer loop
      vertex   3.904575e+01  1.611440e+02 -1.384609e+02
      vertex   4.017319e+01  1.591832e+02 -1.385926e+02
      vertex   3.999298e+01  1.613720e+02 -1.376432e+02
    endloop
  endfacet
  facet normal -4.697258e-01 -3.002802e-01  8.301743e-01
    outer loop
      vertex   2.949382e+01  1.554429e+02 -1.476049e+02
      vertex   2.750378e+01  1.578164e+02 -1.478724e+02
      vertex   2.726029e+01  1.566834e+02 -1.484200e+02
    endloop
  endfacet
  facet normal -5.515708e-01 -3.769430e-01  7.440993e-01
    outer loop
      vertex   3.907329e+01  1.624531e+02 -1.377773e+02
      vertex   3.904575e+01  1.611440e+02 -1.384609e+02
      vertex   3.999298e+01  1.613720e+02 -1.376432e+02
    endloop
  endfacet
  facet normal -4.945796e-01 -3.592454e-01  7.914125e-01
    outer loop
      vertex   2.595946e+01  1.632305e+02 -1.464373e+02
      vertex   2.519118e+01  1.648160e+02 -1.461978e+02
      vertex   2.492086e+01  1.631278e+02 -1.471330e+02
    endloop
  endfacet
  facet normal -5.330531e-01 -3.807340e-01  7.555767e-01
    outer loop
      vertex   3.224394e+01  1.678329e+02 -1.399757e+02
      vertex   3.044449e+01  1.675322e+02 -1.413967e+02
      vertex   3.314825e+01  1.661500e+02 -1.401857e+02
    endloop
  endfacet
  facet normal -6.059685e-01 -3.028820e-01  7.355710e-01
    outer loop
      vertex   4.055904e+01  1.577712e+02 -1.389784e+02
      vertex   4.109481e+01  1.567773e+02 -1.389463e+02
      vertex   4.117458e+01  1.588486e+02 -1.380277e+02
    endloop
  endfacet
  facet normal -4.914217e-01 -2.299606e-01  8.400136e-01
    outer loop
      vertex   3.029220e+01  1.536225e+02 -1.477120e+02
      vertex   3.201910e+01  1.526179e+02 -1.469768e+02
      vertex   3.092408e+01  1.542833e+02 -1.471615e+02
    endloop
  endfacet
  facet normal -4.692537e-01 -2.555438e-01  8.452801e-01
    outer loop
      vertex   2.949382e+01  1.554429e+02 -1.476049e+02
      vertex   3.029220e+01  1.536225e+02 -1.477120e+02
      vertex   3.092408e+01  1.542833e+02 -1.471615e+02
    endloop
  endfacet
  facet normal -5.458242e-01 -2.137804e-01  8.101690e-01
    outer loop
      vertex   3.407776e+01  1.528507e+02 -1.456668e+02
      vertex   3.374967e+01  1.518069e+02 -1.461632e+02
      vertex   3.531797e+01  1.516697e+02 -1.451428e+02
    endloop
  endfacet
  facet normal -4.915453e-01 -3.808337e-01  7.831660e-01
    outer loop
      vertex   2.617610e+01  1.644444e+02 -1.457312e+02
      vertex   2.692675e+01  1.660107e+02 -1.444984e+02
      vertex   2.564206e+01  1.655502e+02 -1.455287e+02
    endloop
  endfacet
  facet normal -6.064068e-01 -1.695497e-01  7.768678e-01
    outer loop
      vertex   3.751292e+01  1.532840e+02 -1.431218e+02
      vertex   3.671379e+01  1.519888e+02 -1.440283e+02
      vertex   3.865997e+01  1.527921e+02 -1.423338e+02
    endloop
  endfacet
  facet normal -5.472072e-01 -3.705872e-01  7.504862e-01
    outer loop
      vertex   4.017319e+01  1.591832e+02 -1.385926e+02
      vertex   4.117458e+01  1.588486e+02 -1.380277e+02
      vertex   3.999298e+01  1.613720e+02 -1.376432e+02
    endloop
  endfacet
  facet normal -5.444877e-01 -3.792090e-01  7.481535e-01
    outer loop
      vertex   3.907329e+01  1.624531e+02 -1.377773e+02
      vertex   3.781697e+01  1.623178e+02 -1.387602e+02
      vertex   3.904575e+01  1.611440e+02 -1.384609e+02
    endloop
  endfacet
  facet normal -5.522349e-01 -4.073409e-01  7.273996e-01
    outer loop
      vertex   3.454752e+01  1.650838e+02 -1.397205e+02
      vertex   3.424060e+01  1.664661e+02 -1.391794e+02
      vertex   3.314825e+01  1.661500e+02 -1.401857e+02
    endloop
  endfacet
  facet normal -4.625257e-01 -2.800650e-01  8.412097e-01
    outer loop
      vertex   2.865549e+01  1.550244e+02 -1.482052e+02
      vertex   2.949382e+01  1.554429e+02 -1.476049e+02
      vertex   2.726029e+01  1.566834e+02 -1.484200e+02
    endloop
  endfacet
endsolid vcg
