solid STL generated by MeshLab
  facet normal  3.455144e-02 -5.330035e-02  9.979806e-01
    outer loop
      vertex   7.515984e+01  1.301686e+02 -1.410101e+02
      vertex   7.691981e+01  1.313095e+02 -1.410101e+02
      vertex   7.699509e+01  1.334596e+02 -1.408979e+02
    endloop
  endfacet
  facet normal -6.238571e-03  6.489200e-03  9.999594e-01
    outer loop
      vertex   7.129176e+01  1.265804e+02 -1.410101e+02
      vertex   7.397710e+01  1.291620e+02 -1.410101e+02
      vertex   7.019251e+01  1.287614e+02 -1.410312e+02
    endloop
  endfacet
  facet normal -1.390122e-02 -4.689476e-02  9.988031e-01
    outer loop
      vertex   8.176589e+01  1.348757e+02 -1.408825e+02
      vertex   7.955762e+01  1.342020e+02 -1.409449e+02
      vertex   8.019118e+01  1.326245e+02 -1.410101e+02
    endloop
  endfacet
  facet normal  1.324325e-02 -3.601187e-02  9.992636e-01
    outer loop
      vertex   8.019118e+01  1.326245e+02 -1.410101e+02
      vertex   7.955762e+01  1.342020e+02 -1.409449e+02
      vertex   7.843393e+01  1.319783e+02 -1.410101e+02
    endloop
  endfacet
  facet normal -1.285546e-01 -2.274119e-01  9.652759e-01
    outer loop
      vertex   7.934758e+01  9.877288e+01 -1.413401e+02
      vertex   7.838181e+01  1.007192e+02 -1.410101e+02
      vertex   7.755949e+01  9.999094e+01 -1.412912e+02
    endloop
  endfacet
  facet normal  8.134429e-02 -9.558195e-02  9.920923e-01
    outer loop
      vertex   7.397710e+01  1.291620e+02 -1.410101e+02
      vertex   7.515984e+01  1.301686e+02 -1.410101e+02
      vertex   7.306651e+01  1.305868e+02 -1.407982e+02
    endloop
  endfacet
  facet normal  9.452791e-03 -1.412074e-01  9.899349e-01
    outer loop
      vertex   7.019251e+01  1.287614e+02 -1.410312e+02
      vertex   7.397710e+01  1.291620e+02 -1.410101e+02
      vertex   7.306651e+01  1.305868e+02 -1.407982e+02
    endloop
  endfacet
  facet normal  8.437938e-02 -8.092216e-02  9.931424e-01
    outer loop
      vertex   7.515984e+01  1.301686e+02 -1.410101e+02
      vertex   7.699509e+01  1.334596e+02 -1.408979e+02
      vertex   7.306651e+01  1.305868e+02 -1.407982e+02
    endloop
  endfacet
  facet normal -1.670210e-01 -6.145799e-02  9.840360e-01
    outer loop
      vertex   6.525852e+01  1.172300e+02 -1.411890e+02
      vertex   6.571407e+01  1.121531e+02 -1.414287e+02
      vertex   6.688727e+01  1.156668e+02 -1.410101e+02
    endloop
  endfacet
  facet normal -4.531208e-02  3.997737e-02  9.981726e-01
    outer loop
      vertex   6.873872e+01  1.262086e+02 -1.411263e+02
      vertex   6.703848e+01  1.231857e+02 -1.410825e+02
      vertex   6.897344e+01  1.235734e+02 -1.410101e+02
    endloop
  endfacet
  facet normal -4.010322e-02  1.380567e-02  9.991001e-01
    outer loop
      vertex   6.897344e+01  1.235734e+02 -1.410101e+02
      vertex   6.703848e+01  1.231857e+02 -1.410825e+02
      vertex   6.835268e+01  1.217702e+02 -1.410101e+02
    endloop
  endfacet
  facet normal -9.064773e-02 -3.331282e-02  9.953257e-01
    outer loop
      vertex   6.835268e+01  1.217702e+02 -1.410101e+02
      vertex   6.703848e+01  1.231857e+02 -1.410825e+02
      vertex   6.632327e+01  1.205158e+02 -1.412370e+02
    endloop
  endfacet
  facet normal  3.232960e-02 -1.136269e-01  9.929973e-01
    outer loop
      vertex   8.421873e+01  1.352374e+02 -1.408210e+02
      vertex   8.299919e+01  1.332373e+02 -1.410101e+02
      vertex   8.515503e+01  1.338507e+02 -1.410101e+02
    endloop
  endfacet
  facet normal -4.366240e-02 -1.238267e-02  9.989696e-01
    outer loop
      vertex   7.129176e+01  1.265804e+02 -1.410101e+02
      vertex   7.019251e+01  1.287614e+02 -1.410312e+02
      vertex   6.873872e+01  1.262086e+02 -1.411263e+02
    endloop
  endfacet
  facet normal  3.139007e-02 -4.515911e-02  9.984865e-01
    outer loop
      vertex   7.955762e+01  1.342020e+02 -1.409449e+02
      vertex   7.699509e+01  1.334596e+02 -1.408979e+02
      vertex   7.843393e+01  1.319783e+02 -1.410101e+02
    endloop
  endfacet
  facet normal -1.700591e-01 -2.461297e-01  9.542012e-01
    outer loop
      vertex   7.838181e+01  1.007192e+02 -1.410101e+02
      vertex   7.934758e+01  9.877288e+01 -1.413401e+02
      vertex   7.975941e+01  9.976733e+01 -1.410101e+02
    endloop
  endfacet
  facet normal -2.938746e-01 -1.588421e-01  9.425534e-01
    outer loop
      vertex   6.646445e+01  1.101654e+02 -1.414570e+02
      vertex   6.903465e+01  1.080616e+02 -1.410101e+02
      vertex   6.759882e+01  1.107180e+02 -1.410101e+02
    endloop
  endfacet
  facet normal  1.419307e-02 -4.401336e-02  9.989301e-01
    outer loop
      vertex   8.782001e+01  1.001387e+02 -1.410101e+02
      vertex   8.627420e+01  9.964020e+01 -1.410101e+02
      vertex   8.940726e+01  9.813143e+01 -1.411211e+02
    endloop
  endfacet
  facet normal  1.703369e-02 -5.287181e-02  9.984559e-01
    outer loop
      vertex   8.627420e+01  9.964020e+01 -1.410101e+02
      vertex   8.395426e+01  9.889278e+01 -1.410101e+02
      vertex   8.620796e+01  9.674423e+01 -1.411624e+02
    endloop
  endfacet
  facet normal -2.877643e-01 -1.506939e-01  9.457711e-01
    outer loop
      vertex   6.903465e+01  1.080616e+02 -1.410101e+02
      vertex   6.646445e+01  1.101654e+02 -1.414570e+02
      vertex   6.804322e+01  1.073076e+02 -1.414319e+02
    endloop
  endfacet
  facet normal -2.333112e-01 -2.227280e-01  9.465506e-01
    outer loop
      vertex   6.903465e+01  1.080616e+02 -1.410101e+02
      vertex   6.804322e+01  1.073076e+02 -1.414319e+02
      vertex   7.025687e+01  1.067813e+02 -1.410101e+02
    endloop
  endfacet
  facet normal -1.431386e-01 -2.115436e-01  9.668302e-01
    outer loop
      vertex   7.755949e+01  9.999094e+01 -1.412912e+02
      vertex   7.838181e+01  1.007192e+02 -1.410101e+02
      vertex   7.676755e+01  1.018114e+02 -1.410101e+02
    endloop
  endfacet
  facet normal -1.002194e-01  9.389346e-03  9.949211e-01
    outer loop
      vertex   6.525852e+01  1.172300e+02 -1.411890e+02
      vertex   6.688727e+01  1.156668e+02 -1.410101e+02
      vertex   6.709943e+01  1.179314e+02 -1.410101e+02
    endloop
  endfacet
  facet normal -2.794090e-01 -2.106245e-02  9.599411e-01
    outer loop
      vertex   6.688727e+01  1.156668e+02 -1.410101e+02
      vertex   6.571407e+01  1.121531e+02 -1.414287e+02
      vertex   6.708250e+01  1.130769e+02 -1.410101e+02
    endloop
  endfacet
  facet normal -1.662387e-01  3.655306e-02  9.854078e-01
    outer loop
      vertex   6.632327e+01  1.205158e+02 -1.412370e+02
      vertex   6.709943e+01  1.179314e+02 -1.410101e+02
      vertex   6.744541e+01  1.195049e+02 -1.410101e+02
    endloop
  endfacet
  facet normal -2.571043e-01 -5.627513e-02  9.647437e-01
    outer loop
      vertex   6.571407e+01  1.121531e+02 -1.414287e+02
      vertex   6.759882e+01  1.107180e+02 -1.410101e+02
      vertex   6.708250e+01  1.130769e+02 -1.410101e+02
    endloop
  endfacet
  facet normal -2.249875e-01 -1.786668e-01  9.578407e-01
    outer loop
      vertex   7.025687e+01  1.067813e+02 -1.410101e+02
      vertex   6.804322e+01  1.073076e+02 -1.414319e+02
      vertex   7.181811e+01  1.031468e+02 -1.413214e+02
    endloop
  endfacet
  facet normal -1.602768e-01 -2.341603e-01  9.588953e-01
    outer loop
      vertex   7.413587e+01  1.018944e+02 -1.414298e+02
      vertex   7.676755e+01  1.018114e+02 -1.410101e+02
      vertex   7.400411e+01  1.037029e+02 -1.410101e+02
    endloop
  endfacet
  facet normal -1.021722e-01 -1.488148e-01  9.835725e-01
    outer loop
      vertex   7.181811e+01  1.031468e+02 -1.413214e+02
      vertex   7.400411e+01  1.037029e+02 -1.410101e+02
      vertex   7.216850e+01  1.049632e+02 -1.410101e+02
    endloop
  endfacet
  facet normal  5.075346e-02  4.826950e-03  9.986995e-01
    outer loop
      vertex   8.745686e+01  1.365299e+02 -1.409918e+02
      vertex   8.421873e+01  1.352374e+02 -1.408210e+02
      vertex   8.796612e+01  1.349732e+02 -1.410101e+02
    endloop
  endfacet
  facet normal  4.261841e-02 -1.067314e-01  9.933741e-01
    outer loop
      vertex   8.421873e+01  1.352374e+02 -1.408210e+02
      vertex   8.515503e+01  1.338507e+02 -1.410101e+02
      vertex   8.796612e+01  1.349732e+02 -1.410101e+02
    endloop
  endfacet
  facet normal -6.887952e-04 -2.097442e-01  9.777561e-01
    outer loop
      vertex   8.261277e+01  9.672939e+01 -1.414752e+02
      vertex   8.395426e+01  9.889278e+01 -1.410101e+02
      vertex   8.138248e+01  9.890123e+01 -1.410101e+02
    endloop
  endfacet
  facet normal -1.220070e-02 -8.677349e-02  9.961533e-01
    outer loop
      vertex   8.176589e+01  1.348757e+02 -1.408825e+02
      vertex   8.299919e+01  1.332373e+02 -1.410101e+02
      vertex   8.421873e+01  1.352374e+02 -1.408210e+02
    endloop
  endfacet
  facet normal -2.848632e-02 -6.963643e-02  9.971656e-01
    outer loop
      vertex   1.051504e+02  1.290874e+02 -1.409377e+02
      vertex   1.033242e+02  1.308898e+02 -1.408640e+02
      vertex   1.036688e+02  1.286567e+02 -1.410101e+02
    endloop
  endfacet
  facet normal -1.466620e-01  5.873861e-02  9.874411e-01
    outer loop
      vertex   6.835268e+01  1.217702e+02 -1.410101e+02
      vertex   6.632327e+01  1.205158e+02 -1.412370e+02
      vertex   6.744541e+01  1.195049e+02 -1.410101e+02
    endloop
  endfacet
  facet normal -1.385663e-01 -2.596705e-01  9.557042e-01
    outer loop
      vertex   7.975941e+01  9.976733e+01 -1.410101e+02
      vertex   7.934758e+01  9.877288e+01 -1.413401e+02
      vertex   8.138248e+01  9.890123e+01 -1.410101e+02
    endloop
  endfacet
  facet normal -1.603694e-01 -2.183853e-01  9.625952e-01
    outer loop
      vertex   7.413587e+01  1.018944e+02 -1.414298e+02
      vertex   7.755949e+01  9.999094e+01 -1.412912e+02
      vertex   7.676755e+01  1.018114e+02 -1.410101e+02
    endloop
  endfacet
  facet normal -7.935312e-02 -2.307862e-01  9.697632e-01
    outer loop
      vertex   7.181811e+01  1.031468e+02 -1.413214e+02
      vertex   7.413587e+01  1.018944e+02 -1.414298e+02
      vertex   7.400411e+01  1.037029e+02 -1.410101e+02
    endloop
  endfacet
  facet normal  4.952409e-02 -2.186104e-03  9.987705e-01
    outer loop
      vertex   1.062059e+02  1.225112e+02 -1.410101e+02
      vertex   1.060916e+02  1.199228e+02 -1.410101e+02
      vertex   1.074978e+02  1.206857e+02 -1.410782e+02
    endloop
  endfacet
  facet normal -1.162110e-01  5.214325e-02  9.918549e-01
    outer loop
      vertex   6.632327e+01  1.205158e+02 -1.412370e+02
      vertex   6.525852e+01  1.172300e+02 -1.411890e+02
      vertex   6.709943e+01  1.179314e+02 -1.410101e+02
    endloop
  endfacet
  facet normal -6.671729e-02 -5.225711e-02  9.964025e-01
    outer loop
      vertex   1.033242e+02  1.308898e+02 -1.408640e+02
      vertex   1.016792e+02  1.324200e+02 -1.408939e+02
      vertex   1.010096e+02  1.310592e+02 -1.410101e+02
    endloop
  endfacet
  facet normal -3.317095e-04 -4.052842e-02  9.991784e-01
    outer loop
      vertex   1.068504e+02  1.263894e+02 -1.410466e+02
      vertex   1.051504e+02  1.290874e+02 -1.409377e+02
      vertex   1.050290e+02  1.273034e+02 -1.410101e+02
    endloop
  endfacet
  facet normal  2.086657e-02 -6.470797e-02  9.976861e-01
    outer loop
      vertex   9.091165e+01  1.011356e+02 -1.410101e+02
      vertex   9.245467e+01  9.973182e+01 -1.411335e+02
      vertex   9.323038e+01  1.018834e+02 -1.410101e+02
    endloop
  endfacet
  facet normal  4.672927e-02 -7.394523e-02  9.961669e-01
    outer loop
      vertex   9.323038e+01  1.018834e+02 -1.410101e+02
      vertex   9.245467e+01  9.973182e+01 -1.411335e+02
      vertex   9.563838e+01  1.010911e+02 -1.411819e+02
    endloop
  endfacet
  facet normal -4.860268e-02 -3.721923e-02  9.981245e-01
    outer loop
      vertex   9.462633e+01  1.359324e+02 -1.409725e+02
      vertex   9.507786e+01  1.343341e+02 -1.410101e+02
      vertex   9.845225e+01  1.342770e+02 -1.408480e+02
    endloop
  endfacet
  facet normal -7.905018e-03 -2.575755e-02  9.996369e-01
    outer loop
      vertex   9.507786e+01  1.343341e+02 -1.410101e+02
      vertex   9.462633e+01  1.359324e+02 -1.409725e+02
      vertex   9.322682e+01  1.349021e+02 -1.410101e+02
    endloop
  endfacet
  facet normal -3.080539e-01 -1.296835e-01  9.424888e-01
    outer loop
      vertex   6.571407e+01  1.121531e+02 -1.414287e+02
      vertex   6.646445e+01  1.101654e+02 -1.414570e+02
      vertex   6.759882e+01  1.107180e+02 -1.410101e+02
    endloop
  endfacet
  facet normal -6.060732e-02 -1.564202e-02  9.980392e-01
    outer loop
      vertex   1.062059e+02  1.225112e+02 -1.410101e+02
      vertex   1.075609e+02  1.234909e+02 -1.409125e+02
      vertex   1.055280e+02  1.251378e+02 -1.410101e+02
    endloop
  endfacet
  facet normal -5.532785e-02  4.411913e-02  9.974930e-01
    outer loop
      vertex   1.029033e+02  1.148153e+02 -1.410101e+02
      vertex   1.056161e+02  1.158997e+02 -1.409076e+02
      vertex   1.049570e+02  1.173908e+02 -1.410101e+02
    endloop
  endfacet
  facet normal -1.314654e-02  4.299897e-02  9.989886e-01
    outer loop
      vertex   1.075609e+02  1.234909e+02 -1.409125e+02
      vertex   1.068504e+02  1.263894e+02 -1.410466e+02
      vertex   1.055280e+02  1.251378e+02 -1.410101e+02
    endloop
  endfacet
  facet normal -4.962158e-02 -1.143406e-01  9.922015e-01
    outer loop
      vertex   9.845225e+01  1.342770e+02 -1.408480e+02
      vertex   9.507786e+01  1.343341e+02 -1.410101e+02
      vertex   9.699510e+01  1.335020e+02 -1.410101e+02
    endloop
  endfacet
  facet normal  9.486463e-02 -1.408499e-02  9.953905e-01
    outer loop
      vertex   9.938446e+01  1.071353e+02 -1.410101e+02
      vertex   1.005028e+02  1.061273e+02 -1.411310e+02
      vertex   9.969034e+01  1.091955e+02 -1.410101e+02
    endloop
  endfacet
  facet normal  7.404081e-02 -2.782121e-02  9.968671e-01
    outer loop
      vertex   9.969034e+01  1.091955e+02 -1.410101e+02
      vertex   1.022706e+02  1.098174e+02 -1.411844e+02
      vertex   1.004739e+02  1.112807e+02 -1.410101e+02
    endloop
  endfacet
  facet normal -5.116233e-02  3.944474e-02  9.979110e-01
    outer loop
      vertex   6.873872e+01  1.262086e+02 -1.411263e+02
      vertex   6.897344e+01  1.235734e+02 -1.410101e+02
      vertex   7.013261e+01  1.250769e+02 -1.410101e+02
    endloop
  endfacet
  facet normal -6.136348e-02 -7.458861e-02  9.953246e-01
    outer loop
      vertex   1.036688e+02  1.286567e+02 -1.410101e+02
      vertex   1.033242e+02  1.308898e+02 -1.408640e+02
      vertex   1.026567e+02  1.294894e+02 -1.410101e+02
    endloop
  endfacet
  facet normal -2.328736e-02 -1.940492e-02  9.995404e-01
    outer loop
      vertex   8.745686e+01  1.365299e+02 -1.409918e+02
      vertex   8.796612e+01  1.349732e+02 -1.410101e+02
      vertex   9.038446e+01  1.366438e+02 -1.409214e+02
    endloop
  endfacet
  facet normal -3.639712e-02 -3.414470e-03  9.993315e-01
    outer loop
      vertex   1.029033e+02  1.148153e+02 -1.410101e+02
      vertex   1.039558e+02  1.127283e+02 -1.409789e+02
      vertex   1.056161e+02  1.158997e+02 -1.409076e+02
    endloop
  endfacet
  facet normal  9.989023e-03 -5.271612e-02  9.985596e-01
    outer loop
      vertex   8.940726e+01  9.813143e+01 -1.411211e+02
      vertex   8.627420e+01  9.964020e+01 -1.410101e+02
      vertex   8.620796e+01  9.674423e+01 -1.411624e+02
    endloop
  endfacet
  facet normal  8.509478e-03 -6.534237e-02  9.978266e-01
    outer loop
      vertex   9.038446e+01  1.366438e+02 -1.409214e+02
      vertex   8.796612e+01  1.349732e+02 -1.410101e+02
      vertex   9.082035e+01  1.353449e+02 -1.410101e+02
    endloop
  endfacet
  facet normal -2.977395e-02 -5.827113e-02  9.978567e-01
    outer loop
      vertex   1.075609e+02  1.234909e+02 -1.409125e+02
      vertex   1.062059e+02  1.225112e+02 -1.410101e+02
      vertex   1.074978e+02  1.206857e+02 -1.410782e+02
    endloop
  endfacet
  facet normal -5.270099e-02 -1.086514e-01  9.926820e-01
    outer loop
      vertex   9.845225e+01  1.342770e+02 -1.408480e+02
      vertex   9.699510e+01  1.335020e+02 -1.410101e+02
      vertex   9.924337e+01  1.324115e+02 -1.410101e+02
    endloop
  endfacet
  facet normal  7.443672e-02 -3.688604e-02  9.965433e-01
    outer loop
      vertex   1.005028e+02  1.061273e+02 -1.411310e+02
      vertex   9.938446e+01  1.071353e+02 -1.410101e+02
      vertex   9.848895e+01  1.053282e+02 -1.410101e+02
    endloop
  endfacet
  facet normal -1.350232e-01 -1.419716e-01  9.806185e-01
    outer loop
      vertex   7.025687e+01  1.067813e+02 -1.410101e+02
      vertex   7.181811e+01  1.031468e+02 -1.413214e+02
      vertex   7.216850e+01  1.049632e+02 -1.410101e+02
    endloop
  endfacet
  facet normal  3.510128e-02 -1.086985e-01  9.934548e-01
    outer loop
      vertex   9.323038e+01  1.018834e+02 -1.410101e+02
      vertex   9.563838e+01  1.010911e+02 -1.411819e+02
      vertex   9.478117e+01  1.023842e+02 -1.410101e+02
    endloop
  endfacet
  facet normal  6.046755e-02 -4.452327e-02  9.971766e-01
    outer loop
      vertex   1.022706e+02  1.098174e+02 -1.411844e+02
      vertex   1.018359e+02  1.131305e+02 -1.410101e+02
      vertex   1.004739e+02  1.112807e+02 -1.410101e+02
    endloop
  endfacet
  facet normal -3.351580e-02  5.379405e-02  9.979894e-01
    outer loop
      vertex   1.049570e+02  1.173908e+02 -1.410101e+02
      vertex   1.056161e+02  1.158997e+02 -1.409076e+02
      vertex   1.068227e+02  1.183924e+02 -1.410015e+02
    endloop
  endfacet
  facet normal -8.492906e-02 -1.587759e-01  9.836550e-01
    outer loop
      vertex   8.620796e+01  9.674423e+01 -1.411624e+02
      vertex   8.395426e+01  9.889278e+01 -1.410101e+02
      vertex   8.261277e+01  9.672939e+01 -1.414752e+02
    endloop
  endfacet
  facet normal  1.124556e-01 -1.345224e-01  9.845088e-01
    outer loop
      vertex   1.005028e+02  1.061273e+02 -1.411310e+02
      vertex   9.848895e+01  1.053282e+02 -1.410101e+02
      vertex   9.844434e+01  1.034344e+02 -1.412638e+02
    endloop
  endfacet
  facet normal  1.606538e-01 -1.347549e-01  9.777686e-01
    outer loop
      vertex   9.844434e+01  1.034344e+02 -1.412638e+02
      vertex   9.848895e+01  1.053282e+02 -1.410101e+02
      vertex   9.665556e+01  1.031424e+02 -1.410101e+02
    endloop
  endfacet
  facet normal -3.776410e-02 -3.795571e-02  9.985656e-01
    outer loop
      vertex   1.051504e+02  1.290874e+02 -1.409377e+02
      vertex   1.036688e+02  1.286567e+02 -1.410101e+02
      vertex   1.050290e+02  1.273034e+02 -1.410101e+02
    endloop
  endfacet
  facet normal  2.263347e-02  5.215442e-03  9.997302e-01
    outer loop
      vertex   1.068504e+02  1.263894e+02 -1.410466e+02
      vertex   1.050290e+02  1.273034e+02 -1.410101e+02
      vertex   1.055280e+02  1.251378e+02 -1.410101e+02
    endloop
  endfacet
  facet normal -4.701394e-02 -1.062867e-01  9.932235e-01
    outer loop
      vertex   1.016792e+02  1.324200e+02 -1.408939e+02
      vertex   9.845225e+01  1.342770e+02 -1.408480e+02
      vertex   9.924337e+01  1.324115e+02 -1.410101e+02
    endloop
  endfacet
  facet normal -6.116937e-03  2.741012e-03  9.999775e-01
    outer loop
      vertex   1.060916e+02  1.199228e+02 -1.410101e+02
      vertex   1.049570e+02  1.173908e+02 -1.410101e+02
      vertex   1.068227e+02  1.183924e+02 -1.410015e+02
    endloop
  endfacet
  facet normal  2.086644e-02 -6.470811e-02  9.976860e-01
    outer loop
      vertex   9.245467e+01  9.973182e+01 -1.411335e+02
      vertex   9.091165e+01  1.011356e+02 -1.410101e+02
      vertex   8.936583e+01  1.006372e+02 -1.410101e+02
    endloop
  endfacet
  facet normal -4.734742e-02 -6.183730e-02  9.969626e-01
    outer loop
      vertex   1.010096e+02  1.310592e+02 -1.410101e+02
      vertex   1.016792e+02  1.324200e+02 -1.408939e+02
      vertex   9.924337e+01  1.324115e+02 -1.410101e+02
    endloop
  endfacet
  facet normal  3.596281e-02  2.283775e-02  9.990922e-01
    outer loop
      vertex   1.074978e+02  1.206857e+02 -1.410782e+02
      vertex   1.060916e+02  1.199228e+02 -1.410101e+02
      vertex   1.068227e+02  1.183924e+02 -1.410015e+02
    endloop
  endfacet
  facet normal -1.363304e-01 -2.806554e-01  9.500771e-01
    outer loop
      vertex   7.934758e+01  9.877288e+01 -1.413401e+02
      vertex   8.261277e+01  9.672939e+01 -1.414752e+02
      vertex   8.138248e+01  9.890123e+01 -1.410101e+02
    endloop
  endfacet
  facet normal  2.338025e-02 -5.292720e-02  9.983246e-01
    outer loop
      vertex   7.699509e+01  1.334596e+02 -1.408979e+02
      vertex   7.691981e+01  1.313095e+02 -1.410101e+02
      vertex   7.843393e+01  1.319783e+02 -1.410101e+02
    endloop
  endfacet
  facet normal  4.210576e-02 -1.040845e-01  9.936768e-01
    outer loop
      vertex   9.478117e+01  1.023842e+02 -1.410101e+02
      vertex   9.563838e+01  1.010911e+02 -1.411819e+02
      vertex   9.665556e+01  1.031424e+02 -1.410101e+02
    endloop
  endfacet
  facet normal -1.336543e-02 -7.264507e-02  9.972684e-01
    outer loop
      vertex   9.322682e+01  1.349021e+02 -1.410101e+02
      vertex   9.038446e+01  1.366438e+02 -1.409214e+02
      vertex   9.082035e+01  1.353449e+02 -1.410101e+02
    endloop
  endfacet
  facet normal -1.313854e-02  8.323846e-03  9.998791e-01
    outer loop
      vertex   1.018359e+02  1.131305e+02 -1.410101e+02
      vertex   1.039558e+02  1.127283e+02 -1.409789e+02
      vertex   1.029033e+02  1.148153e+02 -1.410101e+02
    endloop
  endfacet
  facet normal -6.803671e-02 -7.138666e-02  9.951256e-01
    outer loop
      vertex   1.033242e+02  1.308898e+02 -1.408640e+02
      vertex   1.010096e+02  1.310592e+02 -1.410101e+02
      vertex   1.026567e+02  1.294894e+02 -1.410101e+02
    endloop
  endfacet
  facet normal  1.645694e-01 -1.630610e-01  9.727939e-01
    outer loop
      vertex   9.563838e+01  1.010911e+02 -1.411819e+02
      vertex   9.844434e+01  1.034344e+02 -1.412638e+02
      vertex   9.665556e+01  1.031424e+02 -1.410101e+02
    endloop
  endfacet
  facet normal  1.456496e-02 -6.674282e-02  9.976639e-01
    outer loop
      vertex   8.176589e+01  1.348757e+02 -1.408825e+02
      vertex   8.019118e+01  1.326245e+02 -1.410101e+02
      vertex   8.299919e+01  1.332373e+02 -1.410101e+02
    endloop
  endfacet
  facet normal  7.221422e-02 -2.015373e-02  9.971855e-01
    outer loop
      vertex   1.005028e+02  1.061273e+02 -1.411310e+02
      vertex   1.022706e+02  1.098174e+02 -1.411844e+02
      vertex   9.969034e+01  1.091955e+02 -1.410101e+02
    endloop
  endfacet
  facet normal -2.528031e-02 -5.582325e-02  9.981206e-01
    outer loop
      vertex   1.039558e+02  1.127283e+02 -1.409789e+02
      vertex   1.018359e+02  1.131305e+02 -1.410101e+02
      vertex   1.022706e+02  1.098174e+02 -1.411844e+02
    endloop
  endfacet
  facet normal -5.116226e-02  3.944483e-02  9.979110e-01
    outer loop
      vertex   7.129176e+01  1.265804e+02 -1.410101e+02
      vertex   6.873872e+01  1.262086e+02 -1.411263e+02
      vertex   7.013261e+01  1.250769e+02 -1.410101e+02
    endloop
  endfacet
  facet normal  2.703713e-02 -4.378966e-02  9.986749e-01
    outer loop
      vertex   8.940726e+01  9.813143e+01 -1.411211e+02
      vertex   9.245467e+01  9.973182e+01 -1.411335e+02
      vertex   8.936583e+01  1.006372e+02 -1.410101e+02
    endloop
  endfacet
  facet normal  1.419307e-02 -4.401336e-02  9.989301e-01
    outer loop
      vertex   8.782001e+01  1.001387e+02 -1.410101e+02
      vertex   8.940726e+01  9.813143e+01 -1.411211e+02
      vertex   8.936583e+01  1.006372e+02 -1.410101e+02
    endloop
  endfacet
  facet normal  4.831791e-03 -4.303878e-02  9.990618e-01
    outer loop
      vertex   9.462633e+01  1.359324e+02 -1.409725e+02
      vertex   9.038446e+01  1.366438e+02 -1.409214e+02
      vertex   9.322682e+01  1.349021e+02 -1.410101e+02
    endloop
  endfacet
endsolid vcg
