solid WRAP
facet normal 0.0000012081253 0.0000012702964 0.9999999999985
outer loop
vertex 70.2568664550781 106.7812957763672 -141.0101470947266
vertex 72.1684951782227 104.9632263183594 -141.0101470947266
vertex 73.7529974990849 106.5451280507074 -141.0101510184881
endloop
endfacet
facet normal -0.0000000868130 -0.0000002020357 1.0000000000000
outer loop
vertex 76.1914557565158 104.4615763489896 -141.0101509714807
vertex 78.8206027637098 103.0991863397860 -141.0101510184881
vertex 77.5306886679190 107.1434806948347 -141.0101503133774
endloop
endfacet
facet normal 0.0000018422899 -0.0000014203599 0.9999999999973
outer loop
vertex 71.2917633056641 126.5803985595703 -141.0101470947266
vertex 70.1326065063477 125.0769042968750 -141.0101470947266
vertex 72.9526969697648 125.8067375329543 -141.0101512535250
endloop
endfacet
facet normal 0.0000000000000 0.0000000000000 1.0000000000000
outer loop
vertex 82.8979523236007 123.4232025240064 -141.0101503133774
vertex 80.9099763378501 123.4559328590035 -141.0101503133774
vertex 82.5332788074464 121.4406209628880 -141.0101503133774
endloop
endfacet
facet normal -0.0000009041687 0.0000012620954 0.9999999999988
outer loop
vertex 100.1648614070425 115.7761872951345 -141.0101507834512
vertex 102.9033126831055 114.8153228759765 -141.0101470947267
vertex 102.9238825461730 118.0320990382723 -141.0101511360066
endloop
endfacet
facet normal 0.0000000000000 -0.0000000000000 1.0000000000000
outer loop
vertex 81.6784494243741 115.2184848309279 -141.0101503133774
vertex 84.3252840343416 116.3891355085224 -141.0101503133774
vertex 81.5485112936795 118.2630110117069 -141.0101503133774
endloop
endfacet
facet normal 0.0000006313299 0.0000011830998 0.9999999999991
outer loop
vertex 79.7594146728516 99.7673339843750 -141.0101470947266
vertex 81.3824768066406 98.9012298583984 -141.0101470947266
vertex 82.0005828523333 101.8879033464380 -141.0101510184881
endloop
endfacet
facet normal -0.0000004322420 0.0000016395895 0.9999999999986
outer loop
vertex 87.8200149536133 100.1386795043945 -141.0101470947266
vertex 88.5265437333081 102.7180768572231 -141.0101510184881
vertex 85.4497656543761 101.9069515385580 -141.0101510184881
endloop
endfacet
facet normal -0.0000005380668 0.0000016685779 0.9999999999985
outer loop
vertex 89.3658294677734 100.6371612548828 -141.0101470947266
vertex 90.9116516113281 101.1356430053711 -141.0101470947266
vertex 88.5265437333081 102.7180768572231 -141.0101510184881
endloop
endfacet
facet normal -0.0000000000000 0.0000000000000 1.0000000000000
outer loop
vertex 89.1625290477276 109.0994263938964 -141.0101503133774
vertex 92.1952088622153 107.3203083043141 -141.0101503133774
vertex 91.4474630522668 110.2154119396806 -141.0101503133774
endloop
endfacet
facet normal -0.0000006193968 0.0000019180927 0.9999999999980
outer loop
vertex 93.2303771972656 101.8833694458008 -141.0101470947266
vertex 94.7811660766602 102.3841552734375 -141.0101470947266
vertex 94.7063098297224 104.5281771802116 -141.0101512535250
endloop
endfacet
facet normal -0.0000013365404 0.0000011210778 0.9999999999985
outer loop
vertex 96.6555557250977 103.1424102783203 -141.0101470947266
vertex 98.4889450073242 105.3281631469727 -141.0101470947266
vertex 94.7063098297224 104.5281771802116 -141.0101512535250
endloop
endfacet
facet normal 0.0000002112677 -0.0000001838817 1.0000000000000
outer loop
vertex 97.4799907908082 114.8258256438732 -141.0101503133774
vertex 96.7660494157367 111.7687115370336 -141.0101507246920
vertex 99.3042289987167 113.3428037197791 -141.0101509714807
endloop
endfacet
facet normal 0.0000012022611 0.0000011834843 0.9999999999986
outer loop
vertex 70.2568664550781 106.7812957763672 -141.0101470947266
vertex 73.7529974990849 106.5451280507074 -141.0101510184881
vertex 71.3074190589213 109.1288060099518 -141.0101511360066
endloop
endfacet
facet normal -0.0000012094430 0.0000000362208 0.9999999999993
outer loop
vertex 99.6903381347656 109.1954650878906 -141.0101470947266
vertex 96.7660494157367 111.7687115370336 -141.0101507246920
vertex 96.4059297251207 107.8552628668620 -141.0101510184881
endloop
endfacet
facet normal 0.0000001886762 -0.0000001670275 1.0000000000000
outer loop
vertex 92.1952088622153 107.3203083043141 -141.0101503133774
vertex 94.7063098297224 104.5281771802116 -141.0101512535250
vertex 96.4059297251207 107.8552628668620 -141.0101510184881
endloop
endfacet
facet normal 0.0000001129918 0.0000000441654 1.0000000000000
outer loop
vertex 93.8635032901049 109.8814746364892 -141.0101503133774
vertex 96.7660494157367 111.7687115370336 -141.0101507246920
vertex 92.8645784808695 112.4371017674953 -141.0101503133774
endloop
endfacet
facet normal -0.0000000000000 0.0000000000000 1.0000000000000
outer loop
vertex 91.5045746725440 114.8575894895673 -141.0101503133774
vertex 92.8645784808695 112.4371017674953 -141.0101503133774
vertex 94.4414620836462 115.4461445502085 -141.0101503133774
endloop
endfacet
facet normal -0.0000009328655 0.0000003505289 0.9999999999995
outer loop
vertex 99.6903381347656 109.1954650878906 -141.0101470947266
vertex 100.4738845825195 111.2807235717773 -141.0101470947266
vertex 96.7660494157367 111.7687115370336 -141.0101507246920
endloop
endfacet
facet normal 0.0000009917989 0.0000014657724 0.9999999999984
outer loop
vertex 76.7675476074219 101.8114395141602 -141.0101470947266
vertex 78.3818054199219 100.7191696166992 -141.0101470947266
vertex 78.8206027637098 103.0991863397860 -141.0101510184881
endloop
endfacet
facet normal 0.0000010090530 0.0000014696960 0.9999999999984
outer loop
vertex 72.1684951782227 104.9632263183594 -141.0101470947266
vertex 74.0041122436523 103.7029418945313 -141.0101470947266
vertex 73.7529974990849 106.5451280507074 -141.0101510184881
endloop
endfacet
facet normal 0.0000000000000 0.0000000000000 1.0000000000000
outer loop
vertex 82.5332788074464 121.4406209628880 -141.0101503133774
vertex 80.9099763378501 123.4559328590035 -141.0101503133774
vertex 79.7122444643676 120.8629740381986 -141.0101503133774
endloop
endfacet
facet normal -0.0000005102670 -0.0000016626438 0.9999999999985
outer loop
vertex 95.0778579711914 134.3340606689453 -141.0101470947266
vertex 93.2268218994141 134.9021453857422 -141.0101470947266
vertex 93.7530824321773 132.3100006884414 -141.0101511360066
endloop
endfacet
facet normal 0.0000015460091 -0.0000010397426 0.9999999999983
outer loop
vertex 69.6364487618381 116.1315050143843 -141.0101508617969
vertex 66.8872680664063 115.6667861938477 -141.0101470947266
vertex 68.4437866953236 113.8306608026379 -141.0101514102163
endloop
endfacet
facet normal -0.0000011178620 -0.0000011473534 0.9999999999987
outer loop
vertex 102.5721750176655 126.2028528307534 -141.0101511360066
vertex 103.6687850952148 128.6566925048828 -141.0101470947266
vertex 100.5404551060080 128.2847754811199 -141.0101510184881
endloop
endfacet
facet normal -0.0000011944680 0.0000004794669 0.9999999999992
outer loop
vertex 105.5279846191406 125.1377944946289 -141.0101470947266
vertex 102.5721750176655 126.2028528307534 -141.0101511360066
vertex 101.8130763499500 123.1679432555138 -141.0101505875871
endloop
endfacet
facet normal 0.0000008744067 0.0000016529308 0.9999999999983
outer loop
vertex 76.1914557565158 104.4615763489896 -141.0101509714807
vertex 76.7675476074219 101.8114395141602 -141.0101470947266
vertex 78.8206027637098 103.0991863397860 -141.0101510184881
endloop
endfacet
facet normal 0.0000000000000 0.0000000000000 1.0000000000000
outer loop
vertex 95.2964780445312 125.0980838932991 -141.0101503133774
vertex 94.7267452530563 128.5288396258950 -141.0101503133774
vertex 92.7479014292002 126.7208118605614 -141.0101503133774
endloop
endfacet
facet normal 0.0000005025118 0.0000013192438 0.9999999999990
outer loop
vertex 78.8206027637098 103.0991863397860 -141.0101510184881
vertex 79.7594146728516 99.7673339843750 -141.0101470947266
vertex 82.0005828523333 101.8879033464380 -141.0101510184881
endloop
endfacet
facet normal -0.0000017415437 0.0000007803895 0.9999999999982
outer loop
vertex 104.9570312500000 117.3908004760742 -141.0101470947266
vertex 106.0916213989258 119.9227905273438 -141.0101470947266
vertex 102.9238825461730 118.0320990382723 -141.0101511360066
endloop
endfacet
facet normal 0.0000028274852 0.0000006188813 0.9999999999958
outer loop
vertex 67.5988159179688 110.7180328369141 -141.0101470947266
vertex 68.4437866953236 113.8306608026379 -141.0101514102163
vertex 67.0824966430664 113.0769424438477 -141.0101470947266
endloop
endfacet
facet normal 0.0000012761063 -0.0000014994626 0.9999999999981
outer loop
vertex 75.1598358154297 130.1685791015625 -141.0101470947266
vertex 73.9770965576172 129.1620178222656 -141.0101470947266
vertex 77.2445101697199 129.1691994183241 -141.0101512535250
endloop
endfacet
facet normal 0.0000013923017 -0.0000001304414 0.9999999999990
outer loop
vertex 67.0994338989258 117.9313964843750 -141.0101470947266
vertex 66.8872680664063 115.6667861938477 -141.0101470947266
vertex 69.6364487618381 116.1315050143843 -141.0101508617969
endloop
endfacet
facet normal -0.0000010958994 -0.0000013320891 0.9999999999985
outer loop
vertex 103.6687850952148 128.6566925048828 -141.0101470947266
vertex 102.6566543579102 129.4893646240234 -141.0101470947266
vertex 100.5404551060080 128.2847754811199 -141.0101510184881
endloop
endfacet
facet normal -0.0000009551248 -0.0000012474247 0.9999999999988
outer loop
vertex 101.0095520019531 131.0591735839844 -141.0101470947266
vertex 99.2433700561523 132.4114990234375 -141.0101470947266
vertex 97.6504781119069 130.4856505630870 -141.0101510184881
endloop
endfacet
facet normal -0.0000009541829 -0.0000012529410 0.9999999999988
outer loop
vertex 100.5404551060080 128.2847754811199 -141.0101510184881
vertex 101.0095520019531 131.0591735839844 -141.0101470947266
vertex 97.6504781119069 130.4856505630870 -141.0101510184881
endloop
endfacet
facet normal -0.0000007052900 -0.0000014540660 0.9999999999987
outer loop
vertex 99.2433700561523 132.4114990234375 -141.0101470947266
vertex 96.9951019287109 133.5020141601563 -141.0101470947266
vertex 97.6504781119069 130.4856505630870 -141.0101510184881
endloop
endfacet
facet normal -0.0000000000000 0.0000000000000 1.0000000000000
outer loop
vertex 85.2251502839157 123.0997758672919 -141.0101503133774
vertex 87.8156010626555 121.0002518039793 -141.0101503133774
vertex 88.7804544940293 123.8029502494186 -141.0101503133774
endloop
endfacet
facet normal 0.0000012931234 -0.0000009969625 0.9999999999987
outer loop
vertex 70.1326065063477 125.0769042968750 -141.0101470947266
vertex 68.9734420776367 123.5733947753906 -141.0101470947266
vertex 71.3098477764363 122.6681445600988 -141.0101510184881
endloop
endfacet
facet normal 0.0000000000000 -0.0000000000000 1.0000000000000
outer loop
vertex 75.6471538830996 117.9885813818872 -141.0101503133774
vertex 76.7542162938714 120.5900370278061 -141.0101503133774
vertex 73.6246243671477 120.1057702569366 -141.0101503133774
endloop
endfacet
facet normal 0.0000016833576 -0.0000008062421 0.9999999999983
outer loop
vertex 72.9526969697648 125.8067375329543 -141.0101512535250
vertex 70.1326065063477 125.0769042968750 -141.0101470947266
vertex 71.3098477764363 122.6681445600988 -141.0101510184881
endloop
endfacet
facet normal 0.0000000000000 -0.0000000000000 1.0000000000000
outer loop
vertex 76.6661342972262 113.7409373081795 -141.0101503133774
vertex 77.0297080680370 116.2876092698932 -141.0101503133774
vertex 74.9614251167655 115.6118886464715 -141.0101503133774
endloop
endfacet
facet normal 0.0000000411536 -0.0000001631409 1.0000000000000
outer loop
vertex 100.1648614070425 115.7761872951345 -141.0101507834512
vertex 99.9771410037756 118.6102310461760 -141.0101503133774
vertex 97.0229371735624 117.8650099407307 -141.0101503133774
endloop
endfacet
facet normal 0.0000004200649 -0.0000011422669 0.9999999999993
outer loop
vertex 80.1911849975586 132.6245422363281 -141.0101470947266
vertex 78.4339294433594 131.9783172607422 -141.0101470947266
vertex 80.6947730654009 129.5804333322747 -141.0101507834512
endloop
endfacet
facet normal -0.0000007905881 0.0000014315827 0.9999999999987
outer loop
vertex 96.7660494157367 111.7687115370336 -141.0101507246920
vertex 100.4738845825195 111.2807235717773 -141.0101470947266
vertex 99.3042289987167 113.3428037197791 -141.0101509714807
endloop
endfacet
facet normal 0.0000011468259 -0.0000017691372 0.9999999999978
outer loop
vertex 76.9198074340820 131.3094635009766 -141.0101470947266
vertex 75.1598358154297 130.1685791015625 -141.0101470947266
vertex 77.2445101697199 129.1691994183241 -141.0101512535250
endloop
endfacet
facet normal 0.0000014668087 -0.0000009691037 0.9999999999985
outer loop
vertex 80.1911849975586 132.6245422363281 -141.0101470947266
vertex 80.6947730654009 129.5804333322747 -141.0101507834512
vertex 82.1151840294154 131.3665329274888 -141.0101511360066
endloop
endfacet
facet normal -0.0000016224742 -0.0000004187412 0.9999999999986
outer loop
vertex 106.2058792114258 122.5111923217773 -141.0101470947266
vertex 105.5279846191406 125.1377944946289 -141.0101470947266
vertex 103.9775381714074 121.4942058898106 -141.0101511360066
endloop
endfacet
facet normal -0.0000002979678 -0.0000016195426 0.9999999999986
outer loop
vertex 93.2268218994141 134.9021453857422 -141.0101470947266
vertex 90.8203506469727 135.3448944091797 -141.0101470947266
vertex 93.7530824321773 132.3100006884414 -141.0101511360066
endloop
endfacet
facet normal 0.0000001042103 -0.0000012309028 0.9999999999992
outer loop
vertex 93.7530824321773 132.3100006884414 -141.0101511360066
vertex 90.8203506469727 135.3448944091797 -141.0101470947266
vertex 89.9601848677218 132.2116589195237 -141.0101508617969
endloop
endfacet
facet normal 0.0000012733797 -0.0000002589380 0.9999999999992
outer loop
vertex 77.2445101697199 129.1691994183241 -141.0101512535250
vertex 73.9770965576172 129.1620178222656 -141.0101470947266
vertex 76.0913047559719 126.0698849099894 -141.0101505875871
endloop
endfacet
facet normal 0.0000000540679 -0.0000002229536 1.0000000000000
outer loop
vertex 85.4497656543761 101.9069515385580 -141.0101510184881
vertex 86.1537154528350 105.2402534900755 -141.0101503133774
vertex 83.6770513270557 104.6396442567706 -141.0101503133774
endloop
endfacet
facet normal 0.0000014951804 -0.0000005542967 0.9999999999987
outer loop
vertex 71.3098477764363 122.6681445600988 -141.0101510184881
vertex 68.3526763916016 121.7701721191406 -141.0101470947266
vertex 70.0636005952994 119.3064715202088 -141.0101510184881
endloop
endfacet
facet normal -0.0000007114167 -0.0000014553972 0.9999999999987
outer loop
vertex 96.9951019287109 133.5020141601563 -141.0101470947266
vertex 93.7530824321773 132.3100006884414 -141.0101511360066
vertex 97.6504781119069 130.4856505630870 -141.0101510184881
endloop
endfacet
facet normal -0.0000014910339 -0.0000003435797 0.9999999999988
outer loop
vertex 105.5279846191406 125.1377944946289 -141.0101470947266
vertex 105.0289688110352 127.3033752441406 -141.0101470947266
vertex 102.5721750176655 126.2028528307534 -141.0101511360066
endloop
endfacet
facet normal 0.0000001830606 0.0000001221992 1.0000000000000
outer loop
vertex 102.5721750176655 126.2028528307534 -141.0101511360066
vertex 100.5404551060080 128.2847754811199 -141.0101510184881
vertex 98.9701449715282 124.8670069214063 -141.0101503133774
endloop
endfacet
facet normal -0.0000014934909 0.0000004509429 0.9999999999988
outer loop
vertex 101.8358840942383 113.1304702758789 -141.0101470947267
vertex 100.1648614070425 115.7761872951345 -141.0101507834512
vertex 99.3042289987167 113.3428037197791 -141.0101509714807
endloop
endfacet
facet normal 0.0000006012915 -0.0000015058444 0.9999999999987
outer loop
vertex 87.9661178588867 134.9731903076172 -141.0101470947266
vertex 85.1550292968750 133.8507080078125 -141.0101470947266
vertex 87.2073314249477 132.0957309839879 -141.0101509714807
endloop
endfacet
facet normal 0.0000016866769 -0.0000017544375 0.9999999999970
outer loop
vertex 73.9770965576172 129.1620178222656 -141.0101470947266
vertex 71.2917633056641 126.5803985595703 -141.0101470947266
vertex 72.9526969697648 125.8067375329543 -141.0101512535250
endloop
endfacet
facet normal 0.0000000381767 0.0000013760821 0.9999999999991
outer loop
vertex 68.4437866953236 113.8306608026379 -141.0101514102163
vertex 67.5988159179688 110.7180328369141 -141.0101470947266
vertex 72.4151487752464 113.0562550516014 -141.0101504961839
endloop
endfacet
facet normal 0.0000000716866 -0.0000001784181 1.0000000000000
outer loop
vertex 91.3707767746986 103.9152708552714 -141.0101508617969
vertex 92.1952088622153 107.3203083043141 -141.0101503133774
vertex 88.9489111539423 106.0159775600433 -141.0101503133774
endloop
endfacet
facet normal 0.0000012277638 0.0000011720714 0.9999999999986
outer loop
vertex 69.0346527099609 108.0615844726563 -141.0101470947266
vertex 70.2568664550781 106.7812957763672 -141.0101470947266
vertex 71.3074190589213 109.1288060099518 -141.0101511360066
endloop
endfacet
facet normal 0.0000001623790 -0.0000012468718 0.9999999999992
outer loop
vertex 90.8203506469727 135.3448944091797 -141.0101470947266
vertex 87.9661178588867 134.9731903076172 -141.0101470947266
vertex 89.9601848677218 132.2116589195237 -141.0101508617969
endloop
endfacet
facet normal 0.0000000000000 0.0000000000000 1.0000000000000
outer loop
vertex 81.5485112936795 118.2630110117069 -141.0101503133774
vertex 79.7122444643676 120.8629740381986 -141.0101503133774
vertex 78.3673969083577 118.2999741694927 -141.0101503133774
endloop
endfacet
facet normal 0.0000002977464 0.0000000573813 1.0000000000000
outer loop
vertex 103.9775381714074 121.4942058898106 -141.0101511360066
vertex 101.8130763499500 123.1679432555138 -141.0101505875871
vertex 101.4186038041413 120.4360943088233 -141.0101503133774
endloop
endfacet
facet normal 0.0000000000000 0.0000000000000 1.0000000000000
outer loop
vertex 98.9701449715282 124.8670069214063 -141.0101503133774
vertex 96.8141571008339 123.0418279018402 -141.0101503133774
vertex 98.6041828047420 121.2423329448998 -141.0101503133774
endloop
endfacet
facet normal -0.0000002093788 0.0000000860318 1.0000000000000
outer loop
vertex 71.3098477764363 122.6681445600988 -141.0101510184881
vertex 73.6246243671477 120.1057702569366 -141.0101503133774
vertex 74.8414454477727 123.0671946302802 -141.0101503133774
endloop
endfacet
facet normal -0.0000015589392 0.0000004744467 0.9999999999987
outer loop
vertex 102.9238825461730 118.0320990382723 -141.0101511360066
vertex 106.0916213989258 119.9227905273438 -141.0101470947266
vertex 103.9775381714074 121.4942058898106 -141.0101511360066
endloop
endfacet
facet normal 0.0000000170827 -0.0000013517884 0.9999999999991
outer loop
vertex 89.9601848677218 132.2116589195237 -141.0101508617969
vertex 87.9661178588867 134.9731903076172 -141.0101470947266
vertex 87.2073314249477 132.0957309839879 -141.0101509714807
endloop
endfacet
facet normal -0.0000011342670 -0.0000011400221 0.9999999999987
outer loop
vertex 105.0289688110352 127.3033752441406 -141.0101470947266
vertex 103.6687850952148 128.6566925048828 -141.0101470947266
vertex 102.5721750176655 126.2028528307534 -141.0101511360066
endloop
endfacet
facet normal 0.0000000909643 -0.0000000091841 1.0000000000000
outer loop
vertex 101.8130763499500 123.1679432555138 -141.0101505875871
vertex 98.9701449715282 124.8670069214063 -141.0101503133774
vertex 98.6041828047420 121.2423329448998 -141.0101503133774
endloop
endfacet
facet normal -0.0000006748156 -0.0000015549445 0.9999999999986
outer loop
vertex 96.9951019287109 133.5020141601563 -141.0101470947266
vertex 95.0778579711914 134.3340606689453 -141.0101470947266
vertex 93.7530824321773 132.3100006884414 -141.0101511360066
endloop
endfacet
facet normal 0.0000000000000 0.0000000000000 1.0000000000000
outer loop
vertex 94.7267452530563 128.5288396258950 -141.0101503133774
vertex 95.2964780445312 125.0980838932991 -141.0101503133774
vertex 97.4048543471098 127.4175399352372 -141.0101503133774
endloop
endfacet
facet normal -0.0000006722799 0.0000014662865 0.9999999999987
outer loop
vertex 88.5265437333081 102.7180768572231 -141.0101510184881
vertex 90.9116516113281 101.1356430053711 -141.0101470947266
vertex 91.3707767746986 103.9152708552714 -141.0101508617969
endloop
endfacet
facet normal 0.0000000000000 -0.0000000000000 1.0000000000000
outer loop
vertex 89.1625290477276 109.0994263938964 -141.0101503133774
vertex 89.5965819386031 112.4955915084439 -141.0101503133774
vertex 86.5435601372421 110.7691187480837 -141.0101503133774
endloop
endfacet
facet normal -0.0000001910905 0.0000016790767 0.9999999999986
outer loop
vertex 93.2303771972656 101.8833694458008 -141.0101470947266
vertex 94.7063098297224 104.5281771802116 -141.0101512535250
vertex 91.3707767746986 103.9152708552714 -141.0101508617969
endloop
endfacet
facet normal -0.0000007737543 0.0000019127034 0.9999999999979
outer loop
vertex 94.7811660766602 102.3841552734375 -141.0101470947266
vertex 96.6555557250977 103.1424102783203 -141.0101470947266
vertex 94.7063098297224 104.5281771802116 -141.0101512535250
endloop
endfacet
facet normal 0.0000000000000 -0.0000000000000 1.0000000000000
outer loop
vertex 91.4942175114565 118.0940262771249 -141.0101503133774
vertex 94.5192126400135 121.1347517525703 -141.0101503133774
vertex 90.7025965278298 121.3755065027327 -141.0101503133774
endloop
endfacet
facet normal 0.0000001825642 -0.0000001189188 1.0000000000000
outer loop
vertex 92.1952088622153 107.3203083043141 -141.0101503133774
vertex 96.4059297251207 107.8552628668620 -141.0101510184881
vertex 93.8635032901049 109.8814746364892 -141.0101503133774
endloop
endfacet
facet normal 0.0000000043114 0.0000013128642 0.9999999999991
outer loop
vertex 81.3824768066406 98.9012298583984 -141.0101470947266
vertex 83.9542617797852 98.8927841186523 -141.0101470947266
vertex 82.0005828523333 101.8879033464380 -141.0101510184881
endloop
endfacet
facet normal -0.0000004991849 0.0000015494476 0.9999999999987
outer loop
vertex 83.9542617797852 98.8927841186523 -141.0101470947266
vertex 86.2742004394531 99.6401977539063 -141.0101470947266
vertex 85.4497656543761 101.9069515385580 -141.0101510184881
endloop
endfacet
facet normal 0.0000000000000 0.0000000000000 1.0000000000000
outer loop
vertex 81.5485112936795 118.2630110117069 -141.0101503133774
vertex 78.3673969083577 118.2999741694927 -141.0101503133774
vertex 79.2296930525452 115.8021750846207 -141.0101503133774
endloop
endfacet
facet normal 0.0000000664811 0.0000002242551 1.0000000000000
outer loop
vertex 93.7530824321773 132.3100006884414 -141.0101511360066
vertex 89.9601848677218 132.2116589195237 -141.0101508617969
vertex 91.6080998406559 129.2776135794223 -141.0101503133774
endloop
endfacet
facet normal 0.0000000000000 0.0000000000000 1.0000000000000
outer loop
vertex 97.0229371735624 117.8650099407307 -141.0101503133774
vertex 99.9771410037756 118.6102310461760 -141.0101503133774
vertex 98.6041828047420 121.2423329448998 -141.0101503133774
endloop
endfacet
facet normal 0.0000000000000 -0.0000000000000 1.0000000000000
outer loop
vertex 97.0229371735624 117.8650099407307 -141.0101503133774
vertex 98.6041828047420 121.2423329448998 -141.0101503133774
vertex 94.5192126400135 121.1347517525703 -141.0101503133774
endloop
endfacet
facet normal 0.0000014545141 -0.0000005825375 0.9999999999988
outer loop
vertex 68.3526763916016 121.7701721191406 -141.0101470947266
vertex 67.4454116821289 119.5048599243164 -141.0101470947266
vertex 70.0636005952994 119.3064715202088 -141.0101510184881
endloop
endfacet
facet normal 0.0000013874293 -0.0000001373091 0.9999999999990
outer loop
vertex 67.0994338989258 117.9313964843750 -141.0101470947266
vertex 69.6364487618381 116.1315050143843 -141.0101508617969
vertex 70.0636005952994 119.3064715202088 -141.0101510184881
endloop
endfacet
facet normal 0.0000014181870 0.0000007665442 0.9999999999987
outer loop
vertex 67.5988159179688 110.7180328369141 -141.0101470947266
vertex 69.0346527099609 108.0615844726563 -141.0101470947266
vertex 71.3074190589213 109.1288060099518 -141.0101511360066
endloop
endfacet
facet normal -0.0000000375001 -0.0000000341680 1.0000000000000
outer loop
vertex 76.6661342972262 113.7409373081795 -141.0101503133774
vertex 74.9614251167655 115.6118886464715 -141.0101503133774
vertex 72.4151487752464 113.0562550516014 -141.0101504961839
endloop
endfacet
facet normal 0.0000000091675 0.0000001920648 1.0000000000000
outer loop
vertex 91.6080998406559 129.2776135794223 -141.0101503133774
vertex 89.9601848677218 132.2116589195237 -141.0101508617969
vertex 88.3607516009957 129.4326136347652 -141.0101503133774
endloop
endfacet
facet normal 0.0000000000000 0.0000000000000 1.0000000000000
outer loop
vertex 89.1625290477276 109.0994263938964 -141.0101503133774
vertex 91.4474630522668 110.2154119396806 -141.0101503133774
vertex 89.5965819386031 112.4955915084439 -141.0101503133774
endloop
endfacet
facet normal 0.0000002969992 -0.0000010438453 0.9999999999994
outer loop
vertex 85.1550292968750 133.8507080078125 -141.0101470947266
vertex 82.9991912841797 133.2373199462891 -141.0101470947266
vertex 84.5308376136011 130.1956168079607 -141.0101507246920
endloop
endfacet
facet normal -0.0000000136207 0.0000001027356 1.0000000000000
outer loop
vertex 86.6702554157078 126.4756369175017 -141.0101503133774
vertex 84.5308376136011 130.1956168079607 -141.0101507246920
vertex 82.9098597498962 125.9770820308370 -141.0101503133774
endloop
endfacet
facet normal -0.0000000329865 0.0000001101769 1.0000000000000
outer loop
vertex 84.5308376136011 130.1956168079607 -141.0101507246920
vertex 80.6947730654009 129.5804333322747 -141.0101507834512
vertex 82.9098597498962 125.9770820308370 -141.0101503133774
endloop
endfacet
facet normal 0.0000008044503 -0.0000018210796 0.9999999999980
outer loop
vertex 78.4339294433594 131.9783172607422 -141.0101470947266
vertex 76.9198074340820 131.3094635009766 -141.0101470947266
vertex 77.2445101697199 129.1691994183241 -141.0101512535250
endloop
endfacet
facet normal 0.0000000000000 0.0000000000000 1.0000000000000
outer loop
vertex 88.3607516009957 129.4326136347652 -141.0101503133774
vertex 86.6702554157078 126.4756369175017 -141.0101503133774
vertex 90.0580803847015 126.6238078421503 -141.0101503133774
endloop
endfacet
facet normal 0.0000000000000 0.0000000000000 1.0000000000000
outer loop
vertex 95.2964780445312 125.0980838932991 -141.0101503133774
vertex 92.7479014292002 126.7208118605614 -141.0101503133774
vertex 92.0320797159970 124.1404290188849 -141.0101503133774
endloop
endfacet
facet normal 0.0000000014199 -0.0000002571067 1.0000000000000
outer loop
vertex 82.0005828523333 101.8879033464380 -141.0101510184881
vertex 85.4497656543761 101.9069515385580 -141.0101510184881
vertex 83.6770513270557 104.6396442567706 -141.0101503133774
endloop
endfacet
facet normal -0.0000011020324 0.0000006981863 0.9999999999991
outer loop
vertex 101.8358840942383 113.1304702758789 -141.0101470947267
vertex 102.9033126831055 114.8153228759765 -141.0101470947267
vertex 100.1648614070425 115.7761872951345 -141.0101507834512
endloop
endfacet
facet normal -0.0000015882236 0.0000012664697 0.9999999999979
outer loop
vertex 102.9033126831055 114.8153228759765 -141.0101470947267
vertex 104.9570312500000 117.3908004760742 -141.0101470947266
vertex 102.9238825461730 118.0320990382723 -141.0101511360066
endloop
endfacet
facet normal 0.0000002417252 -0.0000001908346 1.0000000000000
outer loop
vertex 99.9771410037756 118.6102310461760 -141.0101503133774
vertex 102.9238825461730 118.0320990382723 -141.0101511360066
vertex 101.4186038041413 120.4360943088233 -141.0101503133774
endloop
endfacet
facet normal -0.0000011608421 -0.0000012179990 0.9999999999986
outer loop
vertex 102.6566543579102 129.4893646240234 -141.0101470947266
vertex 101.0095520019531 131.0591735839844 -141.0101470947266
vertex 100.5404551060080 128.2847754811199 -141.0101510184881
endloop
endfacet
facet normal 0.0000001922418 0.0000001179809 1.0000000000000
outer loop
vertex 98.9701449715282 124.8670069214063 -141.0101503133774
vertex 100.5404551060080 128.2847754811199 -141.0101510184881
vertex 97.4048543471098 127.4175399352372 -141.0101503133774
endloop
endfacet
facet normal 0.0000000815105 0.0000002385492 1.0000000000000
outer loop
vertex 93.7530824321773 132.3100006884414 -141.0101511360066
vertex 94.7267452530563 128.5288396258950 -141.0101503133774
vertex 97.6504781119069 130.4856505630870 -141.0101510184881
endloop
endfacet
facet normal 0.0000001649625 0.0000002166128 1.0000000000000
outer loop
vertex 100.5404551060080 128.2847754811199 -141.0101510184881
vertex 97.6504781119069 130.4856505630870 -141.0101510184881
vertex 97.4048543471098 127.4175399352372 -141.0101503133774
endloop
endfacet
facet normal -0.0000005380692 0.0000016685769 0.9999999999985
outer loop
vertex 87.8200149536133 100.1386795043945 -141.0101470947266
vertex 89.3658294677734 100.6371612548828 -141.0101470947266
vertex 88.5265437333081 102.7180768572231 -141.0101510184881
endloop
endfacet
facet normal 0.0000000000000 0.0000000000000 1.0000000000000
outer loop
vertex 86.5435601372421 110.7691187480837 -141.0101503133774
vertex 83.3655227092079 112.5241901615475 -141.0101503133774
vertex 83.9703042093941 108.1040069620950 -141.0101503133774
endloop
endfacet
facet normal 0.0000000000000 0.0000000000000 1.0000000000000
outer loop
vertex 83.9703042093941 108.1040069620950 -141.0101503133774
vertex 86.1537154528350 105.2402534900755 -141.0101503133774
vertex 86.8523367234469 107.8628201662421 -141.0101503133774
endloop
endfacet
facet normal 0.0000000000000 0.0000000000000 1.0000000000000
outer loop
vertex 76.6661342972262 113.7409373081795 -141.0101503133774
vertex 75.3560099079311 111.7914416695759 -141.0101503133774
vertex 77.4789928235859 110.8028327717930 -141.0101503133774
endloop
endfacet
facet normal 0.0000000368931 -0.0000002185309 1.0000000000000
outer loop
vertex 88.5265437333081 102.7180768572231 -141.0101510184881
vertex 91.3707767746986 103.9152708552714 -141.0101508617969
vertex 88.9489111539423 106.0159775600433 -141.0101503133774
endloop
endfacet
facet normal -0.0000004616170 0.0000014314903 0.9999999999989
outer loop
vertex 90.9116516113281 101.1356430053711 -141.0101470947266
vertex 93.2303771972656 101.8833694458008 -141.0101470947266
vertex 91.3707767746986 103.9152708552714 -141.0101508617969
endloop
endfacet
facet normal -0.0000011764404 0.0000005829680 0.9999999999991
outer loop
vertex 98.4889450073242 105.3281631469727 -141.0101470947266
vertex 99.3844604492188 107.1353302001953 -141.0101470947266
vertex 96.4059297251207 107.8552628668620 -141.0101510184881
endloop
endfacet
facet normal 0.0000001538822 -0.0000001983194 1.0000000000000
outer loop
vertex 94.7063098297224 104.5281771802116 -141.0101512535250
vertex 92.1952088622153 107.3203083043141 -141.0101503133774
vertex 91.3707767746986 103.9152708552714 -141.0101508617969
endloop
endfacet
facet normal -0.0000012158637 0.0000005504725 0.9999999999991
outer loop
vertex 94.7063098297224 104.5281771802116 -141.0101512535250
vertex 98.4889450073242 105.3281631469727 -141.0101470947266
vertex 96.4059297251207 107.8552628668620 -141.0101510184881
endloop
endfacet
facet normal -0.0000012717097 0.0000001888166 0.9999999999992
outer loop
vertex 99.3844604492188 107.1353302001953 -141.0101470947266
vertex 99.6903381347656 109.1954650878906 -141.0101470947266
vertex 96.4059297251207 107.8552628668620 -141.0101510184881
endloop
endfacet
facet normal 0.0000000000000 0.0000000000000 1.0000000000000
outer loop
vertex 77.5306886679190 107.1434806948347 -141.0101503133774
vertex 77.4789928235859 110.8028327717930 -141.0101503133774
vertex 74.6777955752760 109.7146765233278 -141.0101503133774
endloop
endfacet
facet normal -0.0000002163802 -0.0000001593295 1.0000000000000
outer loop
vertex 71.3074190589213 109.1288060099518 -141.0101511360066
vertex 73.7529974990849 106.5451280507074 -141.0101510184881
vertex 74.6777955752760 109.7146765233278 -141.0101503133774
endloop
endfacet
facet normal 0.0000010103831 0.0000014623461 0.9999999999984
outer loop
vertex 78.3818054199219 100.7191696166992 -141.0101470947266
vertex 79.7594146728516 99.7673339843750 -141.0101470947266
vertex 78.8206027637098 103.0991863397860 -141.0101510184881
endloop
endfacet
facet normal -0.0000000889834 -0.0000002020295 1.0000000000000
outer loop
vertex 82.0005828523333 101.8879033464380 -141.0101510184881
vertex 83.6770513270557 104.6396442567706 -141.0101503133774
vertex 81.0756032873243 105.7854465312362 -141.0101503133774
endloop
endfacet
facet normal -0.0000000000000 0.0000000000000 1.0000000000000
outer loop
vertex 80.9099763378501 123.4559328590035 -141.0101503133774
vertex 82.8979523236007 123.4232025240064 -141.0101503133774
vertex 82.9098597498962 125.9770820308370 -141.0101503133774
endloop
endfacet
facet normal 0.0000000967403 -0.0000000506966 1.0000000000000
outer loop
vertex 92.8645784808695 112.4371017674953 -141.0101503133774
vertex 96.7660494157367 111.7687115370336 -141.0101507246920
vertex 94.4414620836462 115.4461445502085 -141.0101503133774
endloop
endfacet
facet normal 0.0000000000000 0.0000000000000 1.0000000000000
outer loop
vertex 98.9701449715282 124.8670069214063 -141.0101503133774
vertex 95.2964780445312 125.0980838932991 -141.0101503133774
vertex 96.8141571008339 123.0418279018402 -141.0101503133774
endloop
endfacet
facet normal 0.0000014817600 -0.0000005101010 0.9999999999988
outer loop
vertex 68.9734420776367 123.5733947753906 -141.0101470947266
vertex 68.3526763916016 121.7701721191406 -141.0101470947266
vertex 71.3098477764363 122.6681445600988 -141.0101510184881
endloop
endfacet
facet normal 0.0000014740946 -0.0000003241283 0.9999999999989
outer loop
vertex 67.4454116821289 119.5048599243164 -141.0101470947266
vertex 67.0994338989258 117.9313964843750 -141.0101470947266
vertex 70.0636005952994 119.3064715202088 -141.0101510184881
endloop
endfacet
facet normal -0.0000002111036 0.0000000583439 1.0000000000000
outer loop
vertex 73.6246243671477 120.1057702569366 -141.0101503133774
vertex 70.0636005952994 119.3064715202088 -141.0101510184881
vertex 72.7745780175924 117.0300786583126 -141.0101503133774
endloop
endfacet
facet normal -0.0000001658838 -0.0000000309986 1.0000000000000
outer loop
vertex 69.6364487618381 116.1315050143843 -141.0101508617969
vertex 72.4151487752464 113.0562550516014 -141.0101504961839
vertex 72.7745780175924 117.0300786583126 -141.0101503133774
endloop
endfacet
facet normal -0.0000001964598 0.0000000757833 1.0000000000000
outer loop
vertex 70.0636005952994 119.3064715202088 -141.0101510184881
vertex 69.6364487618381 116.1315050143843 -141.0101508617969
vertex 72.7745780175924 117.0300786583126 -141.0101503133774
endloop
endfacet
facet normal 0.0000030431338 0.0000002293987 0.9999999999953
outer loop
vertex 68.4437866953236 113.8306608026379 -141.0101514102163
vertex 66.8872680664063 115.6667861938477 -141.0101470947266
vertex 67.0824966430664 113.0769424438477 -141.0101470947266
endloop
endfacet
facet normal -0.0000002512397 -0.0000001081235 1.0000000000000
outer loop
vertex 69.6364487618381 116.1315050143843 -141.0101508617969
vertex 68.4437866953236 113.8306608026379 -141.0101514102163
vertex 72.4151487752464 113.0562550516014 -141.0101504961839
endloop
endfacet
facet normal -0.0000000930450 0.0000002494867 1.0000000000000
outer loop
vertex 77.2445101697199 129.1691994183241 -141.0101512535250
vertex 76.0913047559719 126.0698849099894 -141.0101505875871
vertex 79.3320433381498 126.1794089959711 -141.0101503133774
endloop
endfacet
facet normal 0.0000000423496 -0.0000014983956 0.9999999999989
outer loop
vertex 78.4339294433594 131.9783172607422 -141.0101470947266
vertex 77.2445101697199 129.1691994183241 -141.0101512535250
vertex 80.6947730654009 129.5804333322747 -141.0101507834512
endloop
endfacet
facet normal 0.0000000000000 -0.0000000000000 1.0000000000000
outer loop
vertex 89.5965819386031 112.4955915084439 -141.0101503133774
vertex 91.5045746725440 114.8575894895673 -141.0101503133774
vertex 89.3865846183896 115.6109503578067 -141.0101503133774
endloop
endfacet
facet normal -0.0000000000000 0.0000000000000 1.0000000000000
outer loop
vertex 83.3655227092079 112.5241901615475 -141.0101503133774
vertex 86.5435601372421 110.7691187480837 -141.0101503133774
vertex 86.7857889764756 114.3452687564194 -141.0101503133774
endloop
endfacet
facet normal 0.0000002498709 -0.0000001493159 1.0000000000000
outer loop
vertex 100.1648614070425 115.7761872951345 -141.0101507834512
vertex 102.9238825461730 118.0320990382723 -141.0101511360066
vertex 99.9771410037756 118.6102310461760 -141.0101503133774
endloop
endfacet
facet normal 0.0000000276120 0.0000000963880 1.0000000000000
outer loop
vertex 101.4186038041413 120.4360943088233 -141.0101503133774
vertex 101.8130763499500 123.1679432555138 -141.0101505875871
vertex 98.6041828047420 121.2423329448998 -141.0101503133774
endloop
endfacet
facet normal 0.0000000000000 -0.0000000000000 1.0000000000000
outer loop
vertex 92.7479014292002 126.7208118605614 -141.0101503133774
vertex 94.7267452530563 128.5288396258950 -141.0101503133774
vertex 91.6080998406559 129.2776135794223 -141.0101503133774
endloop
endfacet
facet normal 0.0000000922989 0.0000002224300 1.0000000000000
outer loop
vertex 97.6504781119069 130.4856505630870 -141.0101510184881
vertex 94.7267452530563 128.5288396258950 -141.0101503133774
vertex 97.4048543471098 127.4175399352372 -141.0101503133774
endloop
endfacet
facet normal -0.0000002268813 -0.0000000989191 1.0000000000000
outer loop
vertex 72.4151487752464 113.0562550516014 -141.0101504961839
vertex 71.3074190589213 109.1288060099518 -141.0101511360066
vertex 74.6777955752760 109.7146765233278 -141.0101503133774
endloop
endfacet
facet normal 0.0000009099164 -0.0000004195507 0.9999999999995
outer loop
vertex 67.5988159179688 110.7180328369141 -141.0101470947266
vertex 71.3074190589213 109.1288060099518 -141.0101511360066
vertex 72.4151487752464 113.0562550516014 -141.0101504961839
endloop
endfacet
facet normal 0.0000012550846 0.0000014914335 0.9999999999981
outer loop
vertex 73.7529974990849 106.5451280507074 -141.0101510184881
vertex 74.0041122436523 103.7029418945313 -141.0101470947266
vertex 76.1914557565158 104.4615763489896 -141.0101509714807
endloop
endfacet
facet normal -0.0000001587516 -0.0000001761442 1.0000000000000
outer loop
vertex 73.7529974990849 106.5451280507074 -141.0101510184881
vertex 77.5306886679190 107.1434806948347 -141.0101503133774
vertex 74.6777955752760 109.7146765233278 -141.0101503133774
endloop
endfacet
facet normal -0.0000002212024 0.0000001906712 1.0000000000000
outer loop
vertex 72.9526969697648 125.8067375329543 -141.0101512535250
vertex 71.3098477764363 122.6681445600988 -141.0101510184881
vertex 74.8414454477727 123.0671946302802 -141.0101503133774
endloop
endfacet
facet normal -0.0000001110997 -0.0000012055589 0.9999999999993
outer loop
vertex 73.9770965576172 129.1620178222656 -141.0101470947266
vertex 72.9526969697648 125.8067375329543 -141.0101512535250
vertex 76.0913047559719 126.0698849099894 -141.0101505875871
endloop
endfacet
facet normal 0.0000000076430 0.0000001351530 1.0000000000000
outer loop
vertex 82.9098597498962 125.9770820308370 -141.0101503133774
vertex 80.6947730654009 129.5804333322747 -141.0101507834512
vertex 79.3320433381498 126.1794089959711 -141.0101503133774
endloop
endfacet
facet normal -0.0000001603757 0.0000002024750 1.0000000000000
outer loop
vertex 80.6947730654009 129.5804333322747 -141.0101507834512
vertex 77.2445101697199 129.1691994183241 -141.0101512535250
vertex 79.3320433381498 126.1794089959711 -141.0101503133774
endloop
endfacet
facet normal 0.0000000000000 -0.0000000000000 1.0000000000000
outer loop
vertex 99.9771410037756 118.6102310461760 -141.0101503133774
vertex 101.4186038041413 120.4360943088233 -141.0101503133774
vertex 98.6041828047420 121.2423329448998 -141.0101503133774
endloop
endfacet
facet normal 0.0000005256109 -0.0000024085713 0.9999999999970
outer loop
vertex 82.9991912841797 133.2373199462891 -141.0101470947266
vertex 80.1911849975586 132.6245422363281 -141.0101470947266
vertex 82.1151840294154 131.3665329274888 -141.0101511360066
endloop
endfacet
facet normal 0.0000000000000 0.0000000000000 1.0000000000000
outer loop
vertex 88.7804544940293 123.8029502494186 -141.0101503133774
vertex 87.8156010626555 121.0002518039793 -141.0101503133774
vertex 90.7025965278298 121.3755065027327 -141.0101503133774
endloop
endfacet
facet normal -0.0000000000000 0.0000000000000 1.0000000000000
outer loop
vertex 95.2964780445312 125.0980838932991 -141.0101503133774
vertex 98.9701449715282 124.8670069214063 -141.0101503133774
vertex 97.4048543471098 127.4175399352372 -141.0101503133774
endloop
endfacet
facet normal 0.0000000000000 -0.0000000000000 1.0000000000000
outer loop
vertex 80.9099763378501 123.4559328590035 -141.0101503133774
vertex 82.9098597498962 125.9770820308370 -141.0101503133774
vertex 79.3320433381498 126.1794089959711 -141.0101503133774
endloop
endfacet
facet normal 0.0000000000000 0.0000000000000 1.0000000000000
outer loop
vertex 84.8699690677226 119.7229417525381 -141.0101503133774
vertex 84.3252840343416 116.3891355085224 -141.0101503133774
vertex 87.7304389188460 117.9209974175394 -141.0101503133774
endloop
endfacet
facet normal 0.0000000000000 -0.0000000000000 1.0000000000000
outer loop
vertex 85.2251502839157 123.0997758672919 -141.0101503133774
vertex 86.6702554157078 126.4756369175017 -141.0101503133774
vertex 82.9098597498962 125.9770820308370 -141.0101503133774
endloop
endfacet
facet normal 0.0000000000000 -0.0000000000000 1.0000000000000
outer loop
vertex 89.3865846183896 115.6109503578067 -141.0101503133774
vertex 91.4942175114565 118.0940262771249 -141.0101503133774
vertex 87.7304389188460 117.9209974175394 -141.0101503133774
endloop
endfacet
facet normal 0.0000009072434 -0.0000011480587 0.9999999999989
outer loop
vertex 87.2073314249477 132.0957309839879 -141.0101509714807
vertex 85.1550292968750 133.8507080078125 -141.0101470947266
vertex 84.5308376136011 130.1956168079607 -141.0101507246920
endloop
endfacet
facet normal -0.0000000636566 0.0000002195474 1.0000000000000
outer loop
vertex 88.3607516009957 129.4326136347652 -141.0101503133774
vertex 87.2073314249477 132.0957309839879 -141.0101509714807
vertex 84.5308376136011 130.1956168079607 -141.0101507246920
endloop
endfacet
facet normal 0.0000003677526 -0.0000001119216 0.9999999999999
outer loop
vertex 102.9238825461730 118.0320990382723 -141.0101511360066
vertex 103.9775381714074 121.4942058898106 -141.0101511360066
vertex 101.4186038041413 120.4360943088233 -141.0101503133774
endloop
endfacet
facet normal -0.0000018508699 0.0000000817015 0.9999999999983
outer loop
vertex 106.0916213989258 119.9227905273438 -141.0101470947266
vertex 106.2058792114258 122.5111923217773 -141.0101470947266
vertex 103.9775381714074 121.4942058898106 -141.0101511360066
endloop
endfacet
facet normal -0.0000001604769 -0.0000001652510 1.0000000000000
outer loop
vertex 73.7529974990849 106.5451280507074 -141.0101510184881
vertex 76.1914557565158 104.4615763489896 -141.0101509714807
vertex 77.5306886679190 107.1434806948347 -141.0101503133774
endloop
endfacet
facet normal 0.0000011763108 0.0000017185593 0.9999999999978
outer loop
vertex 74.0041122436523 103.7029418945313 -141.0101470947266
vertex 76.7675476074219 101.8114395141602 -141.0101470947266
vertex 76.1914557565158 104.4615763489896 -141.0101509714807
endloop
endfacet
facet normal -0.0000000000000 0.0000000000000 1.0000000000000
outer loop
vertex 90.7025965278298 121.3755065027327 -141.0101503133774
vertex 94.5192126400135 121.1347517525703 -141.0101503133774
vertex 92.0320797159970 124.1404290188849 -141.0101503133774
endloop
endfacet
facet normal 0.0000000556775 0.0000002318971 1.0000000000000
outer loop
vertex 94.7267452530563 128.5288396258950 -141.0101503133774
vertex 93.7530824321773 132.3100006884414 -141.0101511360066
vertex 91.6080998406559 129.2776135794223 -141.0101503133774
endloop
endfacet
facet normal 0.0000000000000 0.0000000000000 1.0000000000000
outer loop
vertex 87.8156010626555 121.0002518039793 -141.0101503133774
vertex 84.8699690677226 119.7229417525381 -141.0101503133774
vertex 87.7304389188460 117.9209974175394 -141.0101503133774
endloop
endfacet
facet normal 0.0000000000000 0.0000000000000 1.0000000000000
outer loop
vertex 91.6080998406559 129.2776135794223 -141.0101503133774
vertex 88.3607516009957 129.4326136347652 -141.0101503133774
vertex 90.0580803847015 126.6238078421503 -141.0101503133774
endloop
endfacet
facet normal 0.0000000000000 0.0000000000000 1.0000000000000
outer loop
vertex 85.2251502839157 123.0997758672919 -141.0101503133774
vertex 82.5332788074464 121.4406209628880 -141.0101503133774
vertex 84.8699690677226 119.7229417525381 -141.0101503133774
endloop
endfacet
facet normal -0.0000000000000 0.0000000000000 1.0000000000000
outer loop
vertex 91.4942175114565 118.0940262771249 -141.0101503133774
vertex 94.4414620836462 115.4461445502085 -141.0101503133774
vertex 94.3339061566070 118.1616894199178 -141.0101503133774
endloop
endfacet
facet normal -0.0000000538387 0.0000002402041 1.0000000000000
outer loop
vertex 82.1151840294154 131.3665329274888 -141.0101511360066
vertex 80.6947730654009 129.5804333322747 -141.0101507834512
vertex 84.5308376136011 130.1956168079607 -141.0101507246920
endloop
endfacet
facet normal -0.0000009904956 -0.0000016921620 0.9999999999981
outer loop
vertex 82.9991912841797 133.2373199462891 -141.0101470947266
vertex 82.1151840294154 131.3665329274888 -141.0101511360066
vertex 84.5308376136011 130.1956168079607 -141.0101507246920
endloop
endfacet
facet normal 0.0000001662335 0.0000000249993 1.0000000000000
outer loop
vertex 97.4799907908082 114.8258256438732 -141.0101503133774
vertex 100.1648614070425 115.7761872951345 -141.0101507834512
vertex 97.0229371735624 117.8650099407307 -141.0101503133774
endloop
endfacet
facet normal 0.0000000000000 -0.0000000000000 1.0000000000000
outer loop
vertex 94.4414620836462 115.4461445502085 -141.0101503133774
vertex 97.0229371735624 117.8650099407307 -141.0101503133774
vertex 94.3339061566070 118.1616894199178 -141.0101503133774
endloop
endfacet
facet normal 0.0000000615222 -0.0000002216852 1.0000000000000
outer loop
vertex 86.1537154528350 105.2402534900755 -141.0101503133774
vertex 88.5265437333081 102.7180768572231 -141.0101510184881
vertex 88.9489111539423 106.0159775600433 -141.0101503133774
endloop
endfacet
facet normal 0.0000002026457 -0.0000000937211 1.0000000000000
outer loop
vertex 96.4059297251207 107.8552628668620 -141.0101510184881
vertex 96.7660494157367 111.7687115370336 -141.0101507246920
vertex 93.8635032901049 109.8814746364892 -141.0101503133774
endloop
endfacet
facet normal 0.0000000000000 0.0000000000000 1.0000000000000
outer loop
vertex 86.1537154528350 105.2402534900755 -141.0101503133774
vertex 88.9489111539423 106.0159775600433 -141.0101503133774
vertex 86.8523367234469 107.8628201662421 -141.0101503133774
endloop
endfacet
facet normal 0.0000000000000 0.0000000000000 1.0000000000000
outer loop
vertex 83.6770513270557 104.6396442567706 -141.0101503133774
vertex 86.1537154528350 105.2402534900755 -141.0101503133774
vertex 83.9703042093941 108.1040069620950 -141.0101503133774
endloop
endfacet
facet normal -0.0000000760882 -0.0000001986151 1.0000000000000
outer loop
vertex 77.5306886679190 107.1434806948347 -141.0101503133774
vertex 78.8206027637098 103.0991863397860 -141.0101510184881
vertex 81.0756032873243 105.7854465312362 -141.0101503133774
endloop
endfacet
facet normal -0.0000000000000 0.0000000000000 1.0000000000000
outer loop
vertex 77.5306886679190 107.1434806948347 -141.0101503133774
vertex 81.0756032873243 105.7854465312362 -141.0101503133774
vertex 80.5492837092728 109.5781893825382 -141.0101503133774
endloop
endfacet
facet normal 0.0000000000000 0.0000000000000 1.0000000000000
outer loop
vertex 87.7304389188460 117.9209974175394 -141.0101503133774
vertex 91.4942175114565 118.0940262771249 -141.0101503133774
vertex 89.4531298043728 119.6941467351690 -141.0101503133774
endloop
endfacet
facet normal 0.0000000000000 0.0000000000000 1.0000000000000
outer loop
vertex 76.6661342972262 113.7409373081795 -141.0101503133774
vertex 77.4789928235859 110.8028327717930 -141.0101503133774
vertex 79.8546800988615 112.9551587436050 -141.0101503133774
endloop
endfacet
facet normal -0.0000000262172 -0.0000001284208 1.0000000000000
outer loop
vertex 96.7660494157367 111.7687115370336 -141.0101507246920
vertex 97.4799907908082 114.8258256438732 -141.0101503133774
vertex 94.4414620836462 115.4461445502085 -141.0101503133774
endloop
endfacet
facet normal 0.0000000000000 0.0000000000000 1.0000000000000
outer loop
vertex 91.4474630522668 110.2154119396806 -141.0101503133774
vertex 92.1952088622153 107.3203083043141 -141.0101503133774
vertex 93.8635032901049 109.8814746364892 -141.0101503133774
endloop
endfacet
facet normal 0.0000000000000 0.0000000000000 1.0000000000000
outer loop
vertex 92.8645784808695 112.4371017674953 -141.0101503133774
vertex 91.5045746725440 114.8575894895673 -141.0101503133774
vertex 89.5965819386031 112.4955915084439 -141.0101503133774
endloop
endfacet
facet normal -0.0000000000000 0.0000000000000 1.0000000000000
outer loop
vertex 91.4474630522668 110.2154119396806 -141.0101503133774
vertex 93.8635032901049 109.8814746364892 -141.0101503133774
vertex 92.8645784808695 112.4371017674953 -141.0101503133774
endloop
endfacet
facet normal 0.0000000000000 0.0000000000000 1.0000000000000
outer loop
vertex 89.1625290477276 109.0994263938964 -141.0101503133774
vertex 86.5435601372421 110.7691187480837 -141.0101503133774
vertex 86.8523367234469 107.8628201662421 -141.0101503133774
endloop
endfacet
facet normal 0.0000000000000 -0.0000000000000 1.0000000000000
outer loop
vertex 91.4474630522668 110.2154119396806 -141.0101503133774
vertex 92.8645784808695 112.4371017674953 -141.0101503133774
vertex 89.5965819386031 112.4955915084439 -141.0101503133774
endloop
endfacet
facet normal 0.0000000000000 0.0000000000000 1.0000000000000
outer loop
vertex 77.4789928235859 110.8028327717930 -141.0101503133774
vertex 77.5306886679190 107.1434806948347 -141.0101503133774
vertex 80.5492837092728 109.5781893825382 -141.0101503133774
endloop
endfacet
facet normal 0.0000000000000 0.0000000000000 1.0000000000000
outer loop
vertex 83.9703042093941 108.1040069620950 -141.0101503133774
vertex 83.3655227092079 112.5241901615475 -141.0101503133774
vertex 80.5492837092728 109.5781893825382 -141.0101503133774
endloop
endfacet
facet normal -0.0000000757594 -0.0000001988911 1.0000000000000
outer loop
vertex 78.8206027637098 103.0991863397860 -141.0101510184881
vertex 82.0005828523333 101.8879033464380 -141.0101510184881
vertex 81.0756032873243 105.7854465312362 -141.0101503133774
endloop
endfacet
facet normal 0.0000000000000 -0.0000000000000 1.0000000000000
outer loop
vertex 83.6770513270557 104.6396442567706 -141.0101503133774
vertex 83.9703042093941 108.1040069620950 -141.0101503133774
vertex 81.0756032873243 105.7854465312362 -141.0101503133774
endloop
endfacet
facet normal -0.0000000000000 0.0000000000000 1.0000000000000
outer loop
vertex 74.8414454477727 123.0671946302802 -141.0101503133774
vertex 76.7542162938714 120.5900370278061 -141.0101503133774
vertex 77.9829709831774 123.3137840263695 -141.0101503133774
endloop
endfacet
facet normal -0.0000002277821 0.0000001861349 1.0000000000000
outer loop
vertex 76.0913047559719 126.0698849099894 -141.0101505875871
vertex 72.9526969697648 125.8067375329543 -141.0101512535250
vertex 74.8414454477727 123.0671946302802 -141.0101503133774
endloop
endfacet
facet normal -0.0000000859813 0.0000000404781 1.0000000000000
outer loop
vertex 79.3320433381498 126.1794089959711 -141.0101503133774
vertex 76.0913047559719 126.0698849099894 -141.0101505875871
vertex 77.9829709831774 123.3137840263695 -141.0101503133774
endloop
endfacet
facet normal -0.0000000074102 0.0000000944058 1.0000000000000
outer loop
vertex 76.0913047559719 126.0698849099894 -141.0101505875871
vertex 74.8414454477727 123.0671946302802 -141.0101503133774
vertex 77.9829709831774 123.3137840263695 -141.0101503133774
endloop
endfacet
facet normal 0.0000000000000 -0.0000000000000 1.0000000000000
outer loop
vertex 94.5192126400135 121.1347517525703 -141.0101503133774
vertex 95.2964780445312 125.0980838932991 -141.0101503133774
vertex 92.0320797159970 124.1404290188849 -141.0101503133774
endloop
endfacet
facet normal -0.0000004996041 0.0000015492951 0.9999999999987
outer loop
vertex 86.2742004394531 99.6401977539063 -141.0101470947266
vertex 87.8200149536133 100.1386795043945 -141.0101470947266
vertex 85.4497656543761 101.9069515385580 -141.0101510184881
endloop
endfacet
facet normal -0.0000000493502 0.0000002257436 1.0000000000000
outer loop
vertex 89.9601848677218 132.2116589195237 -141.0101508617969
vertex 87.2073314249477 132.0957309839879 -141.0101509714807
vertex 88.3607516009957 129.4326136347652 -141.0101503133774
endloop
endfacet
facet normal -0.0000000964142 0.0000000551198 1.0000000000000
outer loop
vertex 88.3607516009957 129.4326136347652 -141.0101503133774
vertex 84.5308376136011 130.1956168079607 -141.0101507246920
vertex 86.6702554157078 126.4756369175017 -141.0101503133774
endloop
endfacet
facet normal -0.0000004546916 -0.0000009156646 0.9999999999995
outer loop
vertex 105.5279846191406 125.1377944946289 -141.0101470947266
vertex 101.8130763499500 123.1679432555138 -141.0101505875871
vertex 103.9775381714074 121.4942058898106 -141.0101511360066
endloop
endfacet
facet normal 0.0000001778622 0.0000001362164 1.0000000000000
outer loop
vertex 101.8130763499500 123.1679432555138 -141.0101505875871
vertex 102.5721750176655 126.2028528307534 -141.0101511360066
vertex 98.9701449715282 124.8670069214063 -141.0101503133774
endloop
endfacet
facet normal 0.0000000000000 0.0000000000000 1.0000000000000
outer loop
vertex 92.7479014292002 126.7208118605614 -141.0101503133774
vertex 91.6080998406559 129.2776135794223 -141.0101503133774
vertex 90.0580803847015 126.6238078421503 -141.0101503133774
endloop
endfacet
facet normal 0.0000000000000 0.0000000000000 1.0000000000000
outer loop
vertex 90.0580803847015 126.6238078421503 -141.0101503133774
vertex 88.7804544940293 123.8029502494186 -141.0101503133774
vertex 92.0320797159970 124.1404290188849 -141.0101503133774
endloop
endfacet
facet normal 0.0000000000000 0.0000000000000 1.0000000000000
outer loop
vertex 92.7479014292002 126.7208118605614 -141.0101503133774
vertex 90.0580803847015 126.6238078421503 -141.0101503133774
vertex 92.0320797159970 124.1404290188849 -141.0101503133774
endloop
endfacet
facet normal -0.0000000000000 0.0000000000000 1.0000000000000
outer loop
vertex 86.6702554157078 126.4756369175017 -141.0101503133774
vertex 88.7804544940293 123.8029502494186 -141.0101503133774
vertex 90.0580803847015 126.6238078421503 -141.0101503133774
endloop
endfacet
facet normal 0.0000000000000 0.0000000000000 1.0000000000000
outer loop
vertex 85.2251502839157 123.0997758672919 -141.0101503133774
vertex 88.7804544940293 123.8029502494186 -141.0101503133774
vertex 86.6702554157078 126.4756369175017 -141.0101503133774
endloop
endfacet
facet normal -0.0000000000000 0.0000000000000 1.0000000000000
outer loop
vertex 88.7804544940293 123.8029502494186 -141.0101503133774
vertex 90.7025965278298 121.3755065027327 -141.0101503133774
vertex 92.0320797159970 124.1404290188849 -141.0101503133774
endloop
endfacet
facet normal -0.0000000000000 0.0000000000000 1.0000000000000
outer loop
vertex 84.3252840343416 116.3891355085224 -141.0101503133774
vertex 86.7857889764756 114.3452687564194 -141.0101503133774
vertex 87.7304389188460 117.9209974175394 -141.0101503133774
endloop
endfacet
facet normal -0.0000014422449 0.0000010619492 0.9999999999984
outer loop
vertex 100.4738845825195 111.2807235717773 -141.0101470947266
vertex 101.8358840942383 113.1304702758789 -141.0101470947267
vertex 99.3042289987167 113.3428037197791 -141.0101509714807
endloop
endfacet
facet normal 0.0000002314036 -0.0000001591130 1.0000000000000
outer loop
vertex 100.1648614070425 115.7761872951345 -141.0101507834512
vertex 97.4799907908082 114.8258256438732 -141.0101503133774
vertex 99.3042289987167 113.3428037197791 -141.0101509714807
endloop
endfacet
facet normal -0.0000000000000 0.0000000000000 1.0000000000000
outer loop
vertex 94.4414620836462 115.4461445502085 -141.0101503133774
vertex 97.4799907908082 114.8258256438732 -141.0101503133774
vertex 97.0229371735624 117.8650099407307 -141.0101503133774
endloop
endfacet
facet normal 0.0000000000000 0.0000000000000 1.0000000000000
outer loop
vertex 77.0297080680370 116.2876092698932 -141.0101503133774
vertex 76.6661342972262 113.7409373081795 -141.0101503133774
vertex 79.2296930525452 115.8021750846207 -141.0101503133774
endloop
endfacet
facet normal 0.0000000000000 0.0000000000000 1.0000000000000
outer loop
vertex 77.0297080680370 116.2876092698932 -141.0101503133774
vertex 75.6471538830996 117.9885813818872 -141.0101503133774
vertex 74.9614251167655 115.6118886464715 -141.0101503133774
endloop
endfacet
facet normal 0.0000000000000 -0.0000000000000 1.0000000000000
outer loop
vertex 91.5045746725440 114.8575894895673 -141.0101503133774
vertex 94.4414620836462 115.4461445502085 -141.0101503133774
vertex 91.4942175114565 118.0940262771249 -141.0101503133774
endloop
endfacet
facet normal 0.0000000590545 -0.0000002240067 1.0000000000000
outer loop
vertex 85.4497656543761 101.9069515385580 -141.0101510184881
vertex 88.5265437333081 102.7180768572231 -141.0101510184881
vertex 86.1537154528350 105.2402534900755 -141.0101503133774
endloop
endfacet
facet normal -0.0000000072088 0.0000013053496 0.9999999999991
outer loop
vertex 82.0005828523333 101.8879033464380 -141.0101510184881
vertex 83.9542617797852 98.8927841186523 -141.0101470947266
vertex 85.4497656543761 101.9069515385580 -141.0101510184881
endloop
endfacet
facet normal 0.0000000000000 -0.0000000000000 1.0000000000000
outer loop
vertex 88.9489111539423 106.0159775600433 -141.0101503133774
vertex 89.1625290477276 109.0994263938964 -141.0101503133774
vertex 86.8523367234469 107.8628201662421 -141.0101503133774
endloop
endfacet
facet normal 0.0000000000000 0.0000000000000 1.0000000000000
outer loop
vertex 92.1952088622153 107.3203083043141 -141.0101503133774
vertex 89.1625290477276 109.0994263938964 -141.0101503133774
vertex 88.9489111539423 106.0159775600433 -141.0101503133774
endloop
endfacet
facet normal 0.0000000000000 0.0000000000000 1.0000000000000
outer loop
vertex 86.5435601372421 110.7691187480837 -141.0101503133774
vertex 83.9703042093941 108.1040069620950 -141.0101503133774
vertex 86.8523367234469 107.8628201662421 -141.0101503133774
endloop
endfacet
facet normal 0.0000000000000 -0.0000000000000 1.0000000000000
outer loop
vertex 81.0756032873243 105.7854465312362 -141.0101503133774
vertex 83.9703042093941 108.1040069620950 -141.0101503133774
vertex 80.5492837092728 109.5781893825382 -141.0101503133774
endloop
endfacet
facet normal 0.0000000000000 0.0000000000000 1.0000000000000
outer loop
vertex 89.5965819386031 112.4955915084439 -141.0101503133774
vertex 89.3865846183896 115.6109503578067 -141.0101503133774
vertex 86.7857889764756 114.3452687564194 -141.0101503133774
endloop
endfacet
facet normal -0.0000000545054 0.0000000178000 1.0000000000000
outer loop
vertex 75.3560099079311 111.7914416695759 -141.0101503133774
vertex 72.4151487752464 113.0562550516014 -141.0101504961839
vertex 74.6777955752760 109.7146765233278 -141.0101503133774
endloop
endfacet
facet normal 0.0000000000000 0.0000000000000 1.0000000000000
outer loop
vertex 84.3252840343416 116.3891355085224 -141.0101503133774
vertex 83.3655227092079 112.5241901615475 -141.0101503133774
vertex 86.7857889764756 114.3452687564194 -141.0101503133774
endloop
endfacet
facet normal 0.0000000000000 0.0000000000000 1.0000000000000
outer loop
vertex 86.5435601372421 110.7691187480837 -141.0101503133774
vertex 89.5965819386031 112.4955915084439 -141.0101503133774
vertex 86.7857889764756 114.3452687564194 -141.0101503133774
endloop
endfacet
facet normal -0.0000000000000 0.0000000000000 1.0000000000000
outer loop
vertex 77.4789928235859 110.8028327717930 -141.0101503133774
vertex 80.5492837092728 109.5781893825382 -141.0101503133774
vertex 79.8546800988615 112.9551587436050 -141.0101503133774
endloop
endfacet
facet normal 0.0000000000000 0.0000000000000 1.0000000000000
outer loop
vertex 78.3673969083577 118.2999741694927 -141.0101503133774
vertex 77.0297080680370 116.2876092698932 -141.0101503133774
vertex 79.2296930525452 115.8021750846207 -141.0101503133774
endloop
endfacet
facet normal 0.0000000000000 0.0000000000000 1.0000000000000
outer loop
vertex 80.9099763378501 123.4559328590035 -141.0101503133774
vertex 79.3320433381498 126.1794089959711 -141.0101503133774
vertex 77.9829709831774 123.3137840263695 -141.0101503133774
endloop
endfacet
facet normal 0.0000000000000 -0.0000000000000 1.0000000000000
outer loop
vertex 79.7122444643676 120.8629740381986 -141.0101503133774
vertex 80.9099763378501 123.4559328590035 -141.0101503133774
vertex 77.9829709831774 123.3137840263695 -141.0101503133774
endloop
endfacet
facet normal 0.0000000000000 0.0000000000000 1.0000000000000
outer loop
vertex 82.8979523236007 123.4232025240064 -141.0101503133774
vertex 82.5332788074464 121.4406209628880 -141.0101503133774
vertex 85.2251502839157 123.0997758672919 -141.0101503133774
endloop
endfacet
facet normal -0.0000000000000 0.0000000000000 1.0000000000000
outer loop
vertex 82.8979523236007 123.4232025240064 -141.0101503133774
vertex 85.2251502839157 123.0997758672919 -141.0101503133774
vertex 82.9098597498962 125.9770820308370 -141.0101503133774
endloop
endfacet
facet normal 0.0000000000000 0.0000000000000 1.0000000000000
outer loop
vertex 76.7542162938714 120.5900370278061 -141.0101503133774
vertex 79.7122444643676 120.8629740381986 -141.0101503133774
vertex 77.9829709831774 123.3137840263695 -141.0101503133774
endloop
endfacet
facet normal 0.0000000000000 0.0000000000000 1.0000000000000
outer loop
vertex 79.7122444643676 120.8629740381986 -141.0101503133774
vertex 76.7542162938714 120.5900370278061 -141.0101503133774
vertex 78.3673969083577 118.2999741694927 -141.0101503133774
endloop
endfacet
facet normal 0.0000000000000 0.0000000000000 1.0000000000000
outer loop
vertex 96.8141571008339 123.0418279018402 -141.0101503133774
vertex 95.2964780445312 125.0980838932991 -141.0101503133774
vertex 94.5192126400135 121.1347517525703 -141.0101503133774
endloop
endfacet
facet normal 0.0000000000000 0.0000000000000 1.0000000000000
outer loop
vertex 98.6041828047420 121.2423329448998 -141.0101503133774
vertex 96.8141571008339 123.0418279018402 -141.0101503133774
vertex 94.5192126400135 121.1347517525703 -141.0101503133774
endloop
endfacet
facet normal 0.0000000000000 0.0000000000000 1.0000000000000
outer loop
vertex 87.8156010626555 121.0002518039793 -141.0101503133774
vertex 85.2251502839157 123.0997758672919 -141.0101503133774
vertex 84.8699690677226 119.7229417525381 -141.0101503133774
endloop
endfacet
facet normal 0.0000000000000 0.0000000000000 1.0000000000000
outer loop
vertex 87.8156010626555 121.0002518039793 -141.0101503133774
vertex 87.7304389188460 117.9209974175394 -141.0101503133774
vertex 89.4531298043728 119.6941467351690 -141.0101503133774
endloop
endfacet
facet normal 0.0000000000000 0.0000000000000 1.0000000000000
outer loop
vertex 97.0229371735624 117.8650099407307 -141.0101503133774
vertex 94.5192126400135 121.1347517525703 -141.0101503133774
vertex 94.3339061566070 118.1616894199178 -141.0101503133774
endloop
endfacet
facet normal 0.0000000000000 0.0000000000000 1.0000000000000
outer loop
vertex 94.5192126400135 121.1347517525703 -141.0101503133774
vertex 91.4942175114565 118.0940262771249 -141.0101503133774
vertex 94.3339061566070 118.1616894199178 -141.0101503133774
endloop
endfacet
facet normal 0.0000000000000 0.0000000000000 1.0000000000000
outer loop
vertex 76.7542162938714 120.5900370278061 -141.0101503133774
vertex 75.6471538830996 117.9885813818872 -141.0101503133774
vertex 78.3673969083577 118.2999741694927 -141.0101503133774
endloop
endfacet
facet normal 0.0000000000000 0.0000000000000 1.0000000000000
outer loop
vertex 73.6246243671477 120.1057702569366 -141.0101503133774
vertex 76.7542162938714 120.5900370278061 -141.0101503133774
vertex 74.8414454477727 123.0671946302802 -141.0101503133774
endloop
endfacet
facet normal 0.0000000000000 0.0000000000000 1.0000000000000
outer loop
vertex 91.5045746725440 114.8575894895673 -141.0101503133774
vertex 91.4942175114565 118.0940262771249 -141.0101503133774
vertex 89.3865846183896 115.6109503578067 -141.0101503133774
endloop
endfacet
facet normal 0.0000000000000 0.0000000000000 1.0000000000000
outer loop
vertex 86.7857889764756 114.3452687564194 -141.0101503133774
vertex 89.3865846183896 115.6109503578067 -141.0101503133774
vertex 87.7304389188460 117.9209974175394 -141.0101503133774
endloop
endfacet
facet normal 0.0000000000000 0.0000000000000 1.0000000000000
outer loop
vertex 83.3655227092079 112.5241901615475 -141.0101503133774
vertex 81.6784494243741 115.2184848309279 -141.0101503133774
vertex 79.8546800988615 112.9551587436050 -141.0101503133774
endloop
endfacet
facet normal 0.0000000000000 -0.0000000000000 1.0000000000000
outer loop
vertex 80.5492837092728 109.5781893825382 -141.0101503133774
vertex 83.3655227092079 112.5241901615475 -141.0101503133774
vertex 79.8546800988615 112.9551587436050 -141.0101503133774
endloop
endfacet
facet normal 0.0000000000000 0.0000000000000 1.0000000000000
outer loop
vertex 91.4942175114565 118.0940262771249 -141.0101503133774
vertex 90.7025965278298 121.3755065027327 -141.0101503133774
vertex 89.4531298043728 119.6941467351690 -141.0101503133774
endloop
endfacet
facet normal 0.0000000000000 0.0000000000000 1.0000000000000
outer loop
vertex 90.7025965278298 121.3755065027327 -141.0101503133774
vertex 87.8156010626555 121.0002518039793 -141.0101503133774
vertex 89.4531298043728 119.6941467351690 -141.0101503133774
endloop
endfacet
facet normal 0.0000000000000 0.0000000000000 1.0000000000000
outer loop
vertex 79.2296930525452 115.8021750846207 -141.0101503133774
vertex 76.6661342972262 113.7409373081795 -141.0101503133774
vertex 79.8546800988615 112.9551587436050 -141.0101503133774
endloop
endfacet
facet normal -0.0000000000000 0.0000000000000 1.0000000000000
outer loop
vertex 75.6471538830996 117.9885813818872 -141.0101503133774
vertex 77.0297080680370 116.2876092698932 -141.0101503133774
vertex 78.3673969083577 118.2999741694927 -141.0101503133774
endloop
endfacet
facet normal -0.0000002159799 0.0000000800685 1.0000000000000
outer loop
vertex 73.6246243671477 120.1057702569366 -141.0101503133774
vertex 71.3098477764363 122.6681445600988 -141.0101510184881
vertex 70.0636005952994 119.3064715202088 -141.0101510184881
endloop
endfacet
facet normal 0.0000000000000 0.0000000000000 1.0000000000000
outer loop
vertex 75.6471538830996 117.9885813818872 -141.0101503133774
vertex 73.6246243671477 120.1057702569366 -141.0101503133774
vertex 72.7745780175924 117.0300786583126 -141.0101503133774
endloop
endfacet
facet normal 0.0000000000000 -0.0000000000000 1.0000000000000
outer loop
vertex 74.9614251167655 115.6118886464715 -141.0101503133774
vertex 75.6471538830996 117.9885813818872 -141.0101503133774
vertex 72.7745780175924 117.0300786583126 -141.0101503133774
endloop
endfacet
facet normal -0.0000000281802 -0.0000000434538 1.0000000000000
outer loop
vertex 72.4151487752464 113.0562550516014 -141.0101504961839
vertex 74.9614251167655 115.6118886464715 -141.0101503133774
vertex 72.7745780175924 117.0300786583126 -141.0101503133774
endloop
endfacet
facet normal 0.0000000000000 0.0000000000000 1.0000000000000
outer loop
vertex 81.6784494243741 115.2184848309279 -141.0101503133774
vertex 79.2296930525452 115.8021750846207 -141.0101503133774
vertex 79.8546800988615 112.9551587436050 -141.0101503133774
endloop
endfacet
facet normal 0.0000000000000 0.0000000000000 1.0000000000000
outer loop
vertex 81.6784494243741 115.2184848309279 -141.0101503133774
vertex 81.5485112936795 118.2630110117069 -141.0101503133774
vertex 79.2296930525452 115.8021750846207 -141.0101503133774
endloop
endfacet
facet normal 0.0000000000000 0.0000000000000 1.0000000000000
outer loop
vertex 77.4789928235859 110.8028327717930 -141.0101503133774
vertex 75.3560099079311 111.7914416695759 -141.0101503133774
vertex 74.6777955752760 109.7146765233278 -141.0101503133774
endloop
endfacet
facet normal -0.0000000482230 0.0000000324074 1.0000000000000
outer loop
vertex 76.6661342972262 113.7409373081795 -141.0101503133774
vertex 72.4151487752464 113.0562550516014 -141.0101504961839
vertex 75.3560099079311 111.7914416695759 -141.0101503133774
endloop
endfacet
facet normal 0.0000000000000 0.0000000000000 1.0000000000000
outer loop
vertex 82.5332788074464 121.4406209628880 -141.0101503133774
vertex 81.5485112936795 118.2630110117069 -141.0101503133774
vertex 84.8699690677226 119.7229417525381 -141.0101503133774
endloop
endfacet
facet normal 0.0000000000000 -0.0000000000000 1.0000000000000
outer loop
vertex 81.5485112936795 118.2630110117069 -141.0101503133774
vertex 82.5332788074464 121.4406209628880 -141.0101503133774
vertex 79.7122444643676 120.8629740381986 -141.0101503133774
endloop
endfacet
facet normal -0.0000000000000 0.0000000000000 1.0000000000000
outer loop
vertex 81.5485112936795 118.2630110117069 -141.0101503133774
vertex 84.3252840343416 116.3891355085224 -141.0101503133774
vertex 84.8699690677226 119.7229417525381 -141.0101503133774
endloop
endfacet
facet normal 0.0000000000000 0.0000000000000 1.0000000000000
outer loop
vertex 84.3252840343416 116.3891355085224 -141.0101503133774
vertex 81.6784494243741 115.2184848309279 -141.0101503133774
vertex 83.3655227092079 112.5241901615475 -141.0101503133774
endloop
endfacet
endsolid WRAP
