v -1.383391857 -0.3545413017 -0.5405600667
vn 0 1 -6.123234263e-17
v -0.9161200523 -0.3545413017 -0.4004690051
vn -2.647530906e-08 1 7.947081713e-07
v -0.8678126931 -0.3545413017 -1.462747216
vn 0 1 -6.123234263e-17
v -0.8193840981 -0.3545413017 -1.656119466
vn 0 1 -6.123234263e-17
v -0.3628298342 -0.3545413017 -1.587057352
vn 0 1 -6.123234263e-17
v -1.214846611 -0.3545413017 -1.702059031
vn 0 1 -6.123234263e-17
v -0.1653241813 -0.3545413017 -1.093286395
vn 0 1 -6.123234263e-17
v -1.484726429 -0.3545413017 -0.9944784641
vn 0 1 -6.123234263e-17
v -1.179800868 -0.3545413017 -0.5884309411
vn -8.513455896e-07 1 8.175217658e-07
v -0.7794628143 -0.3545413017 -0.6920093298
vn 8.485953913e-07 1 -8.168211139e-07
v -0.1618591398 -0.3545413017 -0.5486779809
vn 0 1 -6.123234263e-17
v -1.003739953 -0.3545413017 -1.183510065
vn 0 1 -6.123234263e-17
v -1.036299706 -0.3545413017 -0.8721344471
vn 1.306181385e-08 1 -3.920776805e-07
v -1.209845781 -0.3545413017 -0.7063472271
vn -5.448701472e-07 1 -2.756029005e-07
v -1.31545198 -0.3545413017 -1.158817172
vn 0 1 -6.123234263e-17
v -0.5126608014 -0.3545413017 -0.3492099047
vn 0 1 -6.123234263e-17
v -0.6863049269 -0.3545413017 -1.215594292
vn 0 1 -6.123234263e-17
v -1.175875902 -0.3545413017 -1.01547575
vn 0 1 -6.123234263e-17
v -0.3722873032 -0.3545413017 -0.6481974721
vn 0 1 -6.123234263e-17
v -1.260513067 -0.3545413017 -0.9333064556
vn 0 1 -6.123234263e-17
v -0.749417901 -0.3545413017 -0.5740929246
vn 4.826256941e-07 1 2.262269732e-07
v -0.9762098789 -0.3545408845 -0.6363017559
vn -8.35477536e-23 1 -6.123209117e-17
v -0.2688058019 -0.3545413017 -0.8707419038
vn 0 1 -6.123234263e-17
v -0.5476883054 -0.3545413017 -0.548463285
vn 0 1 -6.123234263e-17
v -1.347286105 -0.3545413017 -0.8504129052
vn 0 1 -6.123234263e-17
v -1.387601495 -0.3545413017 -1.402269244
vn 0 1 -6.123234263e-17
v -0.5245673656 -0.3545413017 -1.401325822
vn 0 1 -6.123234263e-17
v -0.8613023162 -0.3545413017 -1.043864369
vn 0 1 -6.123234263e-17
v -0.425814569 -0.3545413017 -1.154440284
vn 0 1 -6.123234263e-17
v -1.146177649 -0.3545413017 -1.323155761
vn 0 1 -6.123234263e-17
v -0.6719757318 -0.3545413017 -1.528722763
vn 0 1 -6.123234263e-17
v -0.5827157497 -0.3545413017 -0.7477169037
vn 0 1 -6.123234263e-17
v -0.7220090628 -0.3545413017 -0.8957906365
vn 0 1 -6.123234263e-17
v -1.18051219 -0.3545413017 -1.512607455
vn 0 1 -6.123234263e-17
v -0.6345103979 -0.3545413017 -0.9816555381
vn 0 1 -6.123234263e-17
v -1.436163902 -0.3545413017 -1.198373795
vn 0 1 -6.123234263e-17
v -0.7528445125 -0.3545413017 -1.435856819
vn 0 1 -6.123234263e-17
v -0.3943222165 -0.3545413017 -1.370748878
vn 0 1 -6.123234263e-17
v -0.9162413478 -0.3545413017 -1.269375086
vn 0 1 -6.123234263e-17
v -0.5042651892 -0.3545413017 -0.9510785937
vn 0 1 -6.123234263e-17
v -0.999948144 -0.3545413017 -1.584363461
vn 0 1 -6.123234263e-17
# mm_gid 0
g mmGroup0
f 6//6 34//34 41//41 
f 30//30 41//41 34//34 
f 20//20 25//25 14//14 
f 1//1 25//25 8//8 
f 20//20 18//18 15//15 
f 30//30 18//18 13//13 
f 21//21 10//10 22//22 
f 13//13 10//10 32//32 
f 14//14 9//9 22//22 
f 2//2 9//9 1//1 
f 15//15 36//36 8//8 
f 11//11 23//23 19//19 
f 32//32 23//23 7//7 
f 30//30 4//4 41//41 
f 19//19 24//24 16//16 
f 21//21 24//24 32//32 
f 20//20 13//13 18//18 
f 20//20 8//8 25//25 
f 19//19 32//32 24//24 
f 11//11 7//7 23//23 
f 26//26 15//15 30//30 
f 15//15 8//8 20//20 
f 14//14 1//1 9//9 
f 14//14 13//13 20//20 
f 21//21 32//32 10//10 
f 16//16 21//21 2//2 
f 22//22 2//2 21//21 
f 22//22 13//13 14//14 
f 26//26 30//30 34//34 
f 5//5 31//31 27//27 
f 37//37 31//31 4//4 
f 37//37 3//3 39//39 
f 30//30 3//3 4//4 
f 39//39 12//12 28//28 
f 13//13 12//12 30//30 
f 13//13 33//33 28//28 
f 35//35 33//33 32//32 
f 35//35 40//40 29//29 
f 7//7 40//40 32//32 
f 7//7 38//38 29//29 
f 27//27 38//38 5//5 
f 37//37 4//4 3//3 
f 27//27 37//37 17//17 
f 39//39 30//30 12//12 
f 39//39 17//17 37//37 
f 35//35 32//32 40//40 
f 28//28 35//35 17//17 
f 28//28 17//17 39//39 
f 13//13 32//32 33//33 
f 29//29 27//27 17//17 
f 5//5 4//4 31//31 
f 29//29 17//17 35//35 
f 7//7 5//5 38//38 
f 35//35 28//28 33//33 
f 2//2 22//22 9//9 
f 26//26 34//34 6//6 
f 32//32 19//19 23//23 
f 37//37 27//27 31//31 
f 30//30 15//15 18//18 
f 21//21 16//16 24//24 
f 13//13 28//28 12//12 
f 27//27 29//29 38//38 
f 16//16 11//11 19//19 
f 15//15 26//26 36//36 
f 30//30 39//39 3//3 
f 13//13 22//22 10//10 
f 1//1 14//14 25//25 
f 6//6 41//41 4//4 
f 7//7 29//29 40//40 
