solid STL generated by MeshLab
  facet normal  0.000000e+00  1.000000e+00  0.000000e+00
    outer loop
      vertex  -1.214847e+00 -3.545413e-01 -1.702059e+00
      vertex  -1.180512e+00 -3.545413e-01 -1.512607e+00
      vertex  -9.999481e-01 -3.545413e-01 -1.584363e+00
    endloop
  endfacet
  facet normal  0.000000e+00  1.000000e+00  0.000000e+00
    outer loop
      vertex  -1.146178e+00 -3.545413e-01 -1.323156e+00
      vertex  -9.999481e-01 -3.545413e-01 -1.584363e+00
      vertex  -1.180512e+00 -3.545413e-01 -1.512607e+00
    endloop
  endfacet
  facet normal  0.000000e+00  1.000000e+00 -0.000000e+00
    outer loop
      vertex  -1.260513e+00 -3.545413e-01 -9.333065e-01
      vertex  -1.347286e+00 -3.545413e-01 -8.504129e-01
      vertex  -1.209846e+00 -3.545413e-01 -7.063472e-01
    endloop
  endfacet
  facet normal  0.000000e+00  1.000000e+00  0.000000e+00
    outer loop
      vertex  -1.383392e+00 -3.545413e-01 -5.405601e-01
      vertex  -1.347286e+00 -3.545413e-01 -8.504129e-01
      vertex  -1.484726e+00 -3.545413e-01 -9.944785e-01
    endloop
  endfacet
  facet normal  0.000000e+00  1.000000e+00  0.000000e+00
    outer loop
      vertex  -1.260513e+00 -3.545413e-01 -9.333065e-01
      vertex  -1.175876e+00 -3.545413e-01 -1.015476e+00
      vertex  -1.315452e+00 -3.545413e-01 -1.158817e+00
    endloop
  endfacet
  facet normal  0.000000e+00  1.000000e+00 -0.000000e+00
    outer loop
      vertex  -1.146178e+00 -3.545413e-01 -1.323156e+00
      vertex  -1.175876e+00 -3.545413e-01 -1.015476e+00
      vertex  -1.036300e+00 -3.545413e-01 -8.721344e-01
    endloop
  endfacet
  facet normal  1.977956e-06  1.000000e+00 -5.039800e-07
    outer loop
      vertex  -7.494179e-01 -3.545413e-01 -5.740929e-01
      vertex  -7.794628e-01 -3.545413e-01 -6.920093e-01
      vertex  -9.762099e-01 -3.545409e-01 -6.363018e-01
    endloop
  endfacet
  facet normal  0.000000e+00  1.000000e+00  0.000000e+00
    outer loop
      vertex  -1.036300e+00 -3.545413e-01 -8.721344e-01
      vertex  -7.794628e-01 -3.545413e-01 -6.920093e-01
      vertex  -5.827157e-01 -3.545413e-01 -7.477169e-01
    endloop
  endfacet
  facet normal -1.933526e-06  1.000000e+00  4.926599e-07
    outer loop
      vertex  -1.209846e+00 -3.545413e-01 -7.063472e-01
      vertex  -1.179801e+00 -3.545413e-01 -5.884309e-01
      vertex  -9.762099e-01 -3.545409e-01 -6.363018e-01
    endloop
  endfacet
  facet normal  0.000000e+00  1.000000e+00  0.000000e+00
    outer loop
      vertex  -9.161201e-01 -3.545413e-01 -4.004690e-01
      vertex  -1.179801e+00 -3.545413e-01 -5.884309e-01
      vertex  -1.383392e+00 -3.545413e-01 -5.405601e-01
    endloop
  endfacet
  facet normal  0.000000e+00  1.000000e+00  0.000000e+00
    outer loop
      vertex  -1.315452e+00 -3.545413e-01 -1.158817e+00
      vertex  -1.436164e+00 -3.545413e-01 -1.198374e+00
      vertex  -1.484726e+00 -3.545413e-01 -9.944785e-01
    endloop
  endfacet
  facet normal  0.000000e+00  1.000000e+00  0.000000e+00
    outer loop
      vertex  -1.618591e-01 -3.545413e-01 -5.486780e-01
      vertex  -2.688058e-01 -3.545413e-01 -8.707419e-01
      vertex  -3.722873e-01 -3.545413e-01 -6.481975e-01
    endloop
  endfacet
  facet normal  0.000000e+00  1.000000e+00  0.000000e+00
    outer loop
      vertex  -5.827157e-01 -3.545413e-01 -7.477169e-01
      vertex  -2.688058e-01 -3.545413e-01 -8.707419e-01
      vertex  -1.653242e-01 -3.545413e-01 -1.093286e+00
    endloop
  endfacet
  facet normal  0.000000e+00  1.000000e+00  0.000000e+00
    outer loop
      vertex  -1.146178e+00 -3.545413e-01 -1.323156e+00
      vertex  -8.193841e-01 -3.545413e-01 -1.656119e+00
      vertex  -9.999481e-01 -3.545413e-01 -1.584363e+00
    endloop
  endfacet
  facet normal  0.000000e+00  1.000000e+00  0.000000e+00
    outer loop
      vertex  -3.722873e-01 -3.545413e-01 -6.481975e-01
      vertex  -5.476883e-01 -3.545413e-01 -5.484633e-01
      vertex  -5.126608e-01 -3.545413e-01 -3.492099e-01
    endloop
  endfacet
  facet normal -0.000000e+00  1.000000e+00  0.000000e+00
    outer loop
      vertex  -7.494179e-01 -3.545413e-01 -5.740929e-01
      vertex  -5.476883e-01 -3.545413e-01 -5.484633e-01
      vertex  -5.827157e-01 -3.545413e-01 -7.477169e-01
    endloop
  endfacet
  facet normal -0.000000e+00  1.000000e+00  0.000000e+00
    outer loop
      vertex  -1.260513e+00 -3.545413e-01 -9.333065e-01
      vertex  -1.036300e+00 -3.545413e-01 -8.721344e-01
      vertex  -1.175876e+00 -3.545413e-01 -1.015476e+00
    endloop
  endfacet
  facet normal  0.000000e+00  1.000000e+00  0.000000e+00
    outer loop
      vertex  -1.260513e+00 -3.545413e-01 -9.333065e-01
      vertex  -1.484726e+00 -3.545413e-01 -9.944785e-01
      vertex  -1.347286e+00 -3.545413e-01 -8.504129e-01
    endloop
  endfacet
  facet normal  0.000000e+00  1.000000e+00  0.000000e+00
    outer loop
      vertex  -3.722873e-01 -3.545413e-01 -6.481975e-01
      vertex  -5.827157e-01 -3.545413e-01 -7.477169e-01
      vertex  -5.476883e-01 -3.545413e-01 -5.484633e-01
    endloop
  endfacet
  facet normal  0.000000e+00  1.000000e+00  0.000000e+00
    outer loop
      vertex  -1.618591e-01 -3.545413e-01 -5.486780e-01
      vertex  -1.653242e-01 -3.545413e-01 -1.093286e+00
      vertex  -2.688058e-01 -3.545413e-01 -8.707419e-01
    endloop
  endfacet
  facet normal  0.000000e+00  1.000000e+00  0.000000e+00
    outer loop
      vertex  -1.387601e+00 -3.545413e-01 -1.402269e+00
      vertex  -1.315452e+00 -3.545413e-01 -1.158817e+00
      vertex  -1.146178e+00 -3.545413e-01 -1.323156e+00
    endloop
  endfacet
  facet normal  0.000000e+00  1.000000e+00 -0.000000e+00
    outer loop
      vertex  -1.315452e+00 -3.545413e-01 -1.158817e+00
      vertex  -1.484726e+00 -3.545413e-01 -9.944785e-01
      vertex  -1.260513e+00 -3.545413e-01 -9.333065e-01
    endloop
  endfacet
  facet normal  0.000000e+00  1.000000e+00 -0.000000e+00
    outer loop
      vertex  -1.209846e+00 -3.545413e-01 -7.063472e-01
      vertex  -1.383392e+00 -3.545413e-01 -5.405601e-01
      vertex  -1.179801e+00 -3.545413e-01 -5.884309e-01
    endloop
  endfacet
  facet normal  0.000000e+00  1.000000e+00  0.000000e+00
    outer loop
      vertex  -1.209846e+00 -3.545413e-01 -7.063472e-01
      vertex  -1.036300e+00 -3.545413e-01 -8.721344e-01
      vertex  -1.260513e+00 -3.545413e-01 -9.333065e-01
    endloop
  endfacet
  facet normal  0.000000e+00  1.000000e+00  0.000000e+00
    outer loop
      vertex  -7.494179e-01 -3.545413e-01 -5.740929e-01
      vertex  -5.827157e-01 -3.545413e-01 -7.477169e-01
      vertex  -7.794628e-01 -3.545413e-01 -6.920093e-01
    endloop
  endfacet
  facet normal  0.000000e+00  1.000000e+00  0.000000e+00
    outer loop
      vertex  -5.126608e-01 -3.545413e-01 -3.492099e-01
      vertex  -7.494179e-01 -3.545413e-01 -5.740929e-01
      vertex  -9.161201e-01 -3.545413e-01 -4.004690e-01
    endloop
  endfacet
  facet normal  1.456203e-06  1.000000e+00  1.398150e-06
    outer loop
      vertex  -9.762099e-01 -3.545409e-01 -6.363018e-01
      vertex  -9.161201e-01 -3.545413e-01 -4.004690e-01
      vertex  -7.494179e-01 -3.545413e-01 -5.740929e-01
    endloop
  endfacet
  facet normal -1.359243e-06  1.000000e+00 -1.422855e-06
    outer loop
      vertex  -9.762099e-01 -3.545409e-01 -6.363018e-01
      vertex  -1.036300e+00 -3.545413e-01 -8.721344e-01
      vertex  -1.209846e+00 -3.545413e-01 -7.063472e-01
    endloop
  endfacet
  facet normal -0.000000e+00  1.000000e+00  0.000000e+00
    outer loop
      vertex  -1.387601e+00 -3.545413e-01 -1.402269e+00
      vertex  -1.146178e+00 -3.545413e-01 -1.323156e+00
      vertex  -1.180512e+00 -3.545413e-01 -1.512607e+00
    endloop
  endfacet
  facet normal  0.000000e+00  1.000000e+00  0.000000e+00
    outer loop
      vertex  -3.628298e-01 -3.545413e-01 -1.587057e+00
      vertex  -6.719757e-01 -3.545413e-01 -1.528723e+00
      vertex  -5.245674e-01 -3.545413e-01 -1.401326e+00
    endloop
  endfacet
  facet normal  0.000000e+00  1.000000e+00  0.000000e+00
    outer loop
      vertex  -7.528445e-01 -3.545413e-01 -1.435857e+00
      vertex  -6.719757e-01 -3.545413e-01 -1.528723e+00
      vertex  -8.193841e-01 -3.545413e-01 -1.656119e+00
    endloop
  endfacet
  facet normal  0.000000e+00  1.000000e+00  0.000000e+00
    outer loop
      vertex  -7.528445e-01 -3.545413e-01 -1.435857e+00
      vertex  -8.678127e-01 -3.545413e-01 -1.462747e+00
      vertex  -9.162413e-01 -3.545413e-01 -1.269375e+00
    endloop
  endfacet
  facet normal  0.000000e+00  1.000000e+00  0.000000e+00
    outer loop
      vertex  -1.146178e+00 -3.545413e-01 -1.323156e+00
      vertex  -8.678127e-01 -3.545413e-01 -1.462747e+00
      vertex  -8.193841e-01 -3.545413e-01 -1.656119e+00
    endloop
  endfacet
  facet normal  0.000000e+00  1.000000e+00 -0.000000e+00
    outer loop
      vertex  -9.162413e-01 -3.545413e-01 -1.269375e+00
      vertex  -1.003740e+00 -3.545413e-01 -1.183510e+00
      vertex  -8.613023e-01 -3.545413e-01 -1.043864e+00
    endloop
  endfacet
  facet normal  0.000000e+00  1.000000e+00  0.000000e+00
    outer loop
      vertex  -1.036300e+00 -3.545413e-01 -8.721344e-01
      vertex  -1.003740e+00 -3.545413e-01 -1.183510e+00
      vertex  -1.146178e+00 -3.545413e-01 -1.323156e+00
    endloop
  endfacet
  facet normal  0.000000e+00  1.000000e+00  0.000000e+00
    outer loop
      vertex  -1.036300e+00 -3.545413e-01 -8.721344e-01
      vertex  -7.220091e-01 -3.545413e-01 -8.957906e-01
      vertex  -8.613023e-01 -3.545413e-01 -1.043864e+00
    endloop
  endfacet
  facet normal  0.000000e+00  1.000000e+00 -0.000000e+00
    outer loop
      vertex  -6.345104e-01 -3.545413e-01 -9.816555e-01
      vertex  -7.220091e-01 -3.545413e-01 -8.957906e-01
      vertex  -5.827157e-01 -3.545413e-01 -7.477169e-01
    endloop
  endfacet
  facet normal -0.000000e+00  1.000000e+00  0.000000e+00
    outer loop
      vertex  -6.345104e-01 -3.545413e-01 -9.816555e-01
      vertex  -5.042652e-01 -3.545413e-01 -9.510786e-01
      vertex  -4.258146e-01 -3.545413e-01 -1.154440e+00
    endloop
  endfacet
  facet normal  0.000000e+00  1.000000e+00  0.000000e+00
    outer loop
      vertex  -1.653242e-01 -3.545413e-01 -1.093286e+00
      vertex  -5.042652e-01 -3.545413e-01 -9.510786e-01
      vertex  -5.827157e-01 -3.545413e-01 -7.477169e-01
    endloop
  endfacet
  facet normal  0.000000e+00  1.000000e+00  0.000000e+00
    outer loop
      vertex  -1.653242e-01 -3.545413e-01 -1.093286e+00
      vertex  -3.943222e-01 -3.545413e-01 -1.370749e+00
      vertex  -4.258146e-01 -3.545413e-01 -1.154440e+00
    endloop
  endfacet
  facet normal -0.000000e+00  1.000000e+00  0.000000e+00
    outer loop
      vertex  -5.245674e-01 -3.545413e-01 -1.401326e+00
      vertex  -3.943222e-01 -3.545413e-01 -1.370749e+00
      vertex  -3.628298e-01 -3.545413e-01 -1.587057e+00
    endloop
  endfacet
  facet normal  0.000000e+00  1.000000e+00  0.000000e+00
    outer loop
      vertex  -7.528445e-01 -3.545413e-01 -1.435857e+00
      vertex  -8.193841e-01 -3.545413e-01 -1.656119e+00
      vertex  -8.678127e-01 -3.545413e-01 -1.462747e+00
    endloop
  endfacet
  facet normal  0.000000e+00  1.000000e+00  0.000000e+00
    outer loop
      vertex  -5.245674e-01 -3.545413e-01 -1.401326e+00
      vertex  -7.528445e-01 -3.545413e-01 -1.435857e+00
      vertex  -6.863049e-01 -3.545413e-01 -1.215594e+00
    endloop
  endfacet
  facet normal  0.000000e+00  1.000000e+00  0.000000e+00
    outer loop
      vertex  -9.162413e-01 -3.545413e-01 -1.269375e+00
      vertex  -1.146178e+00 -3.545413e-01 -1.323156e+00
      vertex  -1.003740e+00 -3.545413e-01 -1.183510e+00
    endloop
  endfacet
  facet normal -0.000000e+00  1.000000e+00  0.000000e+00
    outer loop
      vertex  -9.162413e-01 -3.545413e-01 -1.269375e+00
      vertex  -6.863049e-01 -3.545413e-01 -1.215594e+00
      vertex  -7.528445e-01 -3.545413e-01 -1.435857e+00
    endloop
  endfacet
  facet normal  0.000000e+00  1.000000e+00  0.000000e+00
    outer loop
      vertex  -6.345104e-01 -3.545413e-01 -9.816555e-01
      vertex  -5.827157e-01 -3.545413e-01 -7.477169e-01
      vertex  -5.042652e-01 -3.545413e-01 -9.510786e-01
    endloop
  endfacet
  facet normal -0.000000e+00  1.000000e+00  0.000000e+00
    outer loop
      vertex  -8.613023e-01 -3.545413e-01 -1.043864e+00
      vertex  -6.345104e-01 -3.545413e-01 -9.816555e-01
      vertex  -6.863049e-01 -3.545413e-01 -1.215594e+00
    endloop
  endfacet
  facet normal  0.000000e+00  1.000000e+00  0.000000e+00
    outer loop
      vertex  -8.613023e-01 -3.545413e-01 -1.043864e+00
      vertex  -6.863049e-01 -3.545413e-01 -1.215594e+00
      vertex  -9.162413e-01 -3.545413e-01 -1.269375e+00
    endloop
  endfacet
  facet normal -0.000000e+00  1.000000e+00  0.000000e+00
    outer loop
      vertex  -1.036300e+00 -3.545413e-01 -8.721344e-01
      vertex  -5.827157e-01 -3.545413e-01 -7.477169e-01
      vertex  -7.220091e-01 -3.545413e-01 -8.957906e-01
    endloop
  endfacet
  facet normal  0.000000e+00  1.000000e+00  0.000000e+00
    outer loop
      vertex  -4.258146e-01 -3.545413e-01 -1.154440e+00
      vertex  -5.245674e-01 -3.545413e-01 -1.401326e+00
      vertex  -6.863049e-01 -3.545413e-01 -1.215594e+00
    endloop
  endfacet
  facet normal  0.000000e+00  1.000000e+00  0.000000e+00
    outer loop
      vertex  -3.628298e-01 -3.545413e-01 -1.587057e+00
      vertex  -8.193841e-01 -3.545413e-01 -1.656119e+00
      vertex  -6.719757e-01 -3.545413e-01 -1.528723e+00
    endloop
  endfacet
  facet normal  0.000000e+00  1.000000e+00  0.000000e+00
    outer loop
      vertex  -4.258146e-01 -3.545413e-01 -1.154440e+00
      vertex  -6.863049e-01 -3.545413e-01 -1.215594e+00
      vertex  -6.345104e-01 -3.545413e-01 -9.816555e-01
    endloop
  endfacet
  facet normal  0.000000e+00  1.000000e+00  0.000000e+00
    outer loop
      vertex  -1.653242e-01 -3.545413e-01 -1.093286e+00
      vertex  -3.628298e-01 -3.545413e-01 -1.587057e+00
      vertex  -3.943222e-01 -3.545413e-01 -1.370749e+00
    endloop
  endfacet
  facet normal  0.000000e+00  1.000000e+00  0.000000e+00
    outer loop
      vertex  -6.345104e-01 -3.545413e-01 -9.816555e-01
      vertex  -8.613023e-01 -3.545413e-01 -1.043864e+00
      vertex  -7.220091e-01 -3.545413e-01 -8.957906e-01
    endloop
  endfacet
  facet normal -1.541047e-06  1.000000e+00  2.161845e-06
    outer loop
      vertex  -9.161201e-01 -3.545413e-01 -4.004690e-01
      vertex  -9.762099e-01 -3.545409e-01 -6.363018e-01
      vertex  -1.179801e+00 -3.545413e-01 -5.884309e-01
    endloop
  endfacet
  facet normal  0.000000e+00  1.000000e+00  0.000000e+00
    outer loop
      vertex  -1.387601e+00 -3.545413e-01 -1.402269e+00
      vertex  -1.180512e+00 -3.545413e-01 -1.512607e+00
      vertex  -1.214847e+00 -3.545413e-01 -1.702059e+00
    endloop
  endfacet
  facet normal -0.000000e+00  1.000000e+00  0.000000e+00
    outer loop
      vertex  -5.827157e-01 -3.545413e-01 -7.477169e-01
      vertex  -3.722873e-01 -3.545413e-01 -6.481975e-01
      vertex  -2.688058e-01 -3.545413e-01 -8.707419e-01
    endloop
  endfacet
  facet normal -0.000000e+00  1.000000e+00  0.000000e+00
    outer loop
      vertex  -7.528445e-01 -3.545413e-01 -1.435857e+00
      vertex  -5.245674e-01 -3.545413e-01 -1.401326e+00
      vertex  -6.719757e-01 -3.545413e-01 -1.528723e+00
    endloop
  endfacet
  facet normal  0.000000e+00  1.000000e+00  0.000000e+00
    outer loop
      vertex  -1.146178e+00 -3.545413e-01 -1.323156e+00
      vertex  -1.315452e+00 -3.545413e-01 -1.158817e+00
      vertex  -1.175876e+00 -3.545413e-01 -1.015476e+00
    endloop
  endfacet
  facet normal  0.000000e+00  1.000000e+00  0.000000e+00
    outer loop
      vertex  -7.494179e-01 -3.545413e-01 -5.740929e-01
      vertex  -5.126608e-01 -3.545413e-01 -3.492099e-01
      vertex  -5.476883e-01 -3.545413e-01 -5.484633e-01
    endloop
  endfacet
  facet normal  0.000000e+00  1.000000e+00  0.000000e+00
    outer loop
      vertex  -1.036300e+00 -3.545413e-01 -8.721344e-01
      vertex  -8.613023e-01 -3.545413e-01 -1.043864e+00
      vertex  -1.003740e+00 -3.545413e-01 -1.183510e+00
    endloop
  endfacet
  facet normal  0.000000e+00  1.000000e+00  0.000000e+00
    outer loop
      vertex  -5.245674e-01 -3.545413e-01 -1.401326e+00
      vertex  -4.258146e-01 -3.545413e-01 -1.154440e+00
      vertex  -3.943222e-01 -3.545413e-01 -1.370749e+00
    endloop
  endfacet
  facet normal  0.000000e+00  1.000000e+00  0.000000e+00
    outer loop
      vertex  -5.126608e-01 -3.545413e-01 -3.492099e-01
      vertex  -1.618591e-01 -3.545413e-01 -5.486780e-01
      vertex  -3.722873e-01 -3.545413e-01 -6.481975e-01
    endloop
  endfacet
  facet normal  0.000000e+00  1.000000e+00  0.000000e+00
    outer loop
      vertex  -1.315452e+00 -3.545413e-01 -1.158817e+00
      vertex  -1.387601e+00 -3.545413e-01 -1.402269e+00
      vertex  -1.436164e+00 -3.545413e-01 -1.198374e+00
    endloop
  endfacet
  facet normal -0.000000e+00  1.000000e+00  0.000000e+00
    outer loop
      vertex  -1.146178e+00 -3.545413e-01 -1.323156e+00
      vertex  -9.162413e-01 -3.545413e-01 -1.269375e+00
      vertex  -8.678127e-01 -3.545413e-01 -1.462747e+00
    endloop
  endfacet
  facet normal  1.510730e-06  1.000000e+00 -2.154120e-06
    outer loop
      vertex  -1.036300e+00 -3.545413e-01 -8.721344e-01
      vertex  -9.762099e-01 -3.545409e-01 -6.363018e-01
      vertex  -7.794628e-01 -3.545413e-01 -6.920093e-01
    endloop
  endfacet
  facet normal  0.000000e+00  1.000000e+00  0.000000e+00
    outer loop
      vertex  -1.383392e+00 -3.545413e-01 -5.405601e-01
      vertex  -1.209846e+00 -3.545413e-01 -7.063472e-01
      vertex  -1.347286e+00 -3.545413e-01 -8.504129e-01
    endloop
  endfacet
  facet normal  0.000000e+00  1.000000e+00  0.000000e+00
    outer loop
      vertex  -1.214847e+00 -3.545413e-01 -1.702059e+00
      vertex  -9.999481e-01 -3.545413e-01 -1.584363e+00
      vertex  -8.193841e-01 -3.545413e-01 -1.656119e+00
    endloop
  endfacet
  facet normal  0.000000e+00  1.000000e+00  0.000000e+00
    outer loop
      vertex  -1.653242e-01 -3.545413e-01 -1.093286e+00
      vertex  -4.258146e-01 -3.545413e-01 -1.154440e+00
      vertex  -5.042652e-01 -3.545413e-01 -9.510786e-01
    endloop
  endfacet
endsolid vcg
