solid STL generated by MeshLab
  facet normal  0.000000e+00  1.000000e+00  0.000000e+00
    outer loop
      vertex  -1.821134e+00 -3.545413e-01 -6.689249e-02
      vertex  -1.910380e+00 -3.545413e-01 -1.457067e-01
      vertex  -2.040384e+00 -3.545413e-01  7.968782e-03
    endloop
  endfacet
  facet normal -0.000000e+00  1.000000e+00  0.000000e+00
    outer loop
      vertex  -2.218876e+00 -3.545413e-01 -1.496598e-01
      vertex  -1.910380e+00 -3.545413e-01 -1.457067e-01
      vertex  -1.780376e+00 -3.545413e-01 -2.993823e-01
    endloop
  endfacet
  facet normal  0.000000e+00  1.000000e+00  0.000000e+00
    outer loop
      vertex  -1.777216e+00 -3.545413e-01  9.842971e-01
      vertex  -2.036206e+00 -3.545413e-01  7.899477e-01
      vertex  -2.028257e+00 -3.545413e-01  9.913282e-01
    endloop
  endfacet
  facet normal  0.000000e+00  1.000000e+00  0.000000e+00
    outer loop
      vertex  -2.161726e+00 -3.545413e-01  7.934633e-01
      vertex  -2.036206e+00 -3.545413e-01  7.899477e-01
      vertex  -2.044153e+00 -3.545413e-01  5.885673e-01
    endloop
  endfacet
  facet normal  0.000000e+00  1.000000e+00  0.000000e+00
    outer loop
      vertex  -2.396281e+00 -3.545413e-01  3.980049e-01
      vertex  -2.490804e+00 -3.545413e-01  3.502492e-01
      vertex  -2.529470e+00 -3.545413e-01  5.501323e-01
    endloop
  endfacet
  facet normal  0.000000e+00  1.000000e+00  0.000000e+00
    outer loop
      vertex  -2.529470e+00 -3.545413e-01  5.501323e-01
      vertex  -2.283055e+00 -3.545413e-01  7.838545e-01
      vertex  -2.286812e+00 -3.545413e-01  5.693498e-01
    endloop
  endfacet
  facet normal  0.000000e+00  1.000000e+00  0.000000e+00
    outer loop
      vertex  -2.161726e+00 -3.545413e-01  7.934633e-01
      vertex  -2.283055e+00 -3.545413e-01  7.838545e-01
      vertex  -2.279298e+00 -3.545413e-01  9.983593e-01
    endloop
  endfacet
  facet normal  0.000000e+00  1.000000e+00  0.000000e+00
    outer loop
      vertex  -1.597624e+00 -3.545413e-01  1.346284e+00
      vertex  -1.444653e+00 -3.545413e-01  1.117854e+00
      vertex  -1.687420e+00 -3.545413e-01  1.165290e+00
    endloop
  endfacet
  facet normal  0.000000e+00  1.000000e+00  0.000000e+00
    outer loop
      vertex  -1.777216e+00 -3.545413e-01  9.842971e-01
      vertex  -1.444653e+00 -3.545413e-01  1.117854e+00
      vertex  -1.201885e+00 -3.545413e-01  1.070418e+00
    endloop
  endfacet
  facet normal  0.000000e+00  1.000000e+00  0.000000e+00
    outer loop
      vertex  -1.861892e+00 -3.545413e-01  1.655973e-01
      vertex  -1.563396e+00 -3.545413e-01 -2.368924e-02
      vertex  -1.821134e+00 -3.545413e-01 -6.689249e-02
    endloop
  endfacet
  facet normal  0.000000e+00  1.000000e+00  0.000000e+00
    outer loop
      vertex  -1.780376e+00 -3.545413e-01 -2.993823e-01
      vertex  -1.563396e+00 -3.545413e-01 -2.368924e-02
      vertex  -1.305658e+00 -3.545413e-01  1.951401e-02
    endloop
  endfacet
  facet normal  0.000000e+00  1.000000e+00  0.000000e+00
    outer loop
      vertex  -1.687420e+00 -3.545413e-01  1.165290e+00
      vertex  -1.883326e+00 -3.545413e-01  1.151122e+00
      vertex  -1.989435e+00 -3.545413e-01  1.317946e+00
    endloop
  endfacet
  facet normal -0.000000e+00  1.000000e+00  0.000000e+00
    outer loop
      vertex  -2.028257e+00 -3.545413e-01  9.913282e-01
      vertex  -1.883326e+00 -3.545413e-01  1.151122e+00
      vertex  -1.777216e+00 -3.545413e-01  9.842971e-01
    endloop
  endfacet
  facet normal  0.000000e+00  1.000000e+00  0.000000e+00
    outer loop
      vertex  -2.452139e+00 -3.545413e-01  1.503662e-01
      vertex  -2.240984e+00 -3.545413e-01  4.810886e-02
      vertex  -2.218876e+00 -3.545413e-01 -1.496598e-01
    endloop
  endfacet
  facet normal  0.000000e+00  1.000000e+00  0.000000e+00
    outer loop
      vertex  -2.040384e+00 -3.545413e-01  7.968782e-03
      vertex  -2.240984e+00 -3.545413e-01  4.810886e-02
      vertex  -2.263091e+00 -3.545413e-01  2.458775e-01
    endloop
  endfacet
  facet normal  0.000000e+00  1.000000e+00  0.000000e+00
    outer loop
      vertex  -1.597624e+00 -3.545413e-01  1.346284e+00
      vertex  -1.201885e+00 -3.545413e-01  1.070418e+00
      vertex  -1.444653e+00 -3.545413e-01  1.117854e+00
    endloop
  endfacet
  facet normal  0.000000e+00  1.000000e+00  0.000000e+00
    outer loop
      vertex  -1.687420e+00 -3.545413e-01  1.165290e+00
      vertex  -1.777216e+00 -3.545413e-01  9.842971e-01
      vertex  -1.883326e+00 -3.545413e-01  1.151122e+00
    endloop
  endfacet
  facet normal  0.000000e+00  1.000000e+00  0.000000e+00
    outer loop
      vertex  -2.452139e+00 -3.545413e-01  1.503662e-01
      vertex  -2.396281e+00 -3.545413e-01  3.980049e-01
      vertex  -2.263091e+00 -3.545413e-01  2.458775e-01
    endloop
  endfacet
  facet normal  0.000000e+00  1.000000e+00  0.000000e+00
    outer loop
      vertex  -2.286812e+00 -3.545413e-01  5.693498e-01
      vertex  -2.396281e+00 -3.545413e-01  3.980049e-01
      vertex  -2.529470e+00 -3.545413e-01  5.501323e-01
    endloop
  endfacet
  facet normal  0.000000e+00  1.000000e+00 -0.000000e+00
    outer loop
      vertex  -2.062491e+00 -3.545413e-01  2.057374e-01
      vertex  -2.153622e+00 -3.545413e-01  4.172224e-01
      vertex  -2.044153e+00 -3.545413e-01  5.885673e-01
    endloop
  endfacet
  facet normal  0.000000e+00  1.000000e+00  0.000000e+00
    outer loop
      vertex  -2.286812e+00 -3.545413e-01  5.693498e-01
      vertex  -2.153622e+00 -3.545413e-01  4.172224e-01
      vertex  -2.263091e+00 -3.545413e-01  2.458775e-01
    endloop
  endfacet
  facet normal  0.000000e+00  1.000000e+00  0.000000e+00
    outer loop
      vertex  -2.062491e+00 -3.545413e-01  2.057374e-01
      vertex  -2.263091e+00 -3.545413e-01  2.458775e-01
      vertex  -2.153622e+00 -3.545413e-01  4.172224e-01
    endloop
  endfacet
  facet normal  0.000000e+00  1.000000e+00 -0.000000e+00
    outer loop
      vertex  -2.040384e+00 -3.545413e-01  7.968782e-03
      vertex  -2.062491e+00 -3.545413e-01  2.057374e-01
      vertex  -1.861892e+00 -3.545413e-01  1.655973e-01
    endloop
  endfacet
  facet normal -0.000000e+00  1.000000e+00  0.000000e+00
    outer loop
      vertex  -2.452139e+00 -3.545413e-01  1.503662e-01
      vertex  -2.263091e+00 -3.545413e-01  2.458775e-01
      vertex  -2.240984e+00 -3.545413e-01  4.810886e-02
    endloop
  endfacet
  facet normal  0.000000e+00  1.000000e+00  0.000000e+00
    outer loop
      vertex  -1.821134e+00 -3.545413e-01 -6.689249e-02
      vertex  -1.780376e+00 -3.545413e-01 -2.993823e-01
      vertex  -1.910380e+00 -3.545413e-01 -1.457067e-01
    endloop
  endfacet
  facet normal  0.000000e+00  1.000000e+00  0.000000e+00
    outer loop
      vertex  -1.861892e+00 -3.545413e-01  1.655973e-01
      vertex  -1.305658e+00 -3.545413e-01  1.951401e-02
      vertex  -1.563396e+00 -3.545413e-01 -2.368924e-02
    endloop
  endfacet
  facet normal  0.000000e+00  1.000000e+00  0.000000e+00
    outer loop
      vertex  -2.286812e+00 -3.545413e-01  5.693498e-01
      vertex  -2.161726e+00 -3.545413e-01  7.934633e-01
      vertex  -2.044153e+00 -3.545413e-01  5.885673e-01
    endloop
  endfacet
  facet normal  0.000000e+00  1.000000e+00  0.000000e+00
    outer loop
      vertex  -2.028257e+00 -3.545413e-01  9.913282e-01
      vertex  -2.161726e+00 -3.545413e-01  7.934633e-01
      vertex  -2.279298e+00 -3.545413e-01  9.983593e-01
    endloop
  endfacet
  facet normal -0.000000e+00  1.000000e+00  0.000000e+00
    outer loop
      vertex  -2.040384e+00 -3.545413e-01  7.968782e-03
      vertex  -1.861892e+00 -3.545413e-01  1.655973e-01
      vertex  -1.821134e+00 -3.545413e-01 -6.689249e-02
    endloop
  endfacet
  facet normal  0.000000e+00  1.000000e+00  0.000000e+00
    outer loop
      vertex  -2.040384e+00 -3.545413e-01  7.968782e-03
      vertex  -2.218876e+00 -3.545413e-01 -1.496598e-01
      vertex  -2.240984e+00 -3.545413e-01  4.810886e-02
    endloop
  endfacet
  facet normal -0.000000e+00  1.000000e+00  0.000000e+00
    outer loop
      vertex  -2.286812e+00 -3.545413e-01  5.693498e-01
      vertex  -2.044153e+00 -3.545413e-01  5.885673e-01
      vertex  -2.153622e+00 -3.545413e-01  4.172224e-01
    endloop
  endfacet
  facet normal  0.000000e+00  1.000000e+00  0.000000e+00
    outer loop
      vertex  -2.529470e+00 -3.545413e-01  5.501323e-01
      vertex  -2.279298e+00 -3.545413e-01  9.983593e-01
      vertex  -2.283055e+00 -3.545413e-01  7.838545e-01
    endloop
  endfacet
  facet normal  0.000000e+00  1.000000e+00  0.000000e+00
    outer loop
      vertex  -1.989435e+00 -3.545413e-01  1.317946e+00
      vertex  -2.028257e+00 -3.545413e-01  9.913282e-01
      vertex  -2.279298e+00 -3.545413e-01  9.983593e-01
    endloop
  endfacet
  facet normal  0.000000e+00  1.000000e+00  0.000000e+00
    outer loop
      vertex  -1.777216e+00 -3.545413e-01  9.842971e-01
      vertex  -2.044153e+00 -3.545413e-01  5.885673e-01
      vertex  -2.036206e+00 -3.545413e-01  7.899477e-01
    endloop
  endfacet
  facet normal  0.000000e+00  1.000000e+00  0.000000e+00
    outer loop
      vertex  -1.655128e+00 -3.545413e-01  7.753654e-01
      vertex  -1.572340e+00 -3.545413e-01  9.013614e-01
      vertex  -1.367463e+00 -3.545413e-01  8.184255e-01
    endloop
  endfacet
  facet normal  0.000000e+00  1.000000e+00  0.000000e+00
    outer loop
      vertex  -1.201885e+00 -3.545413e-01  1.070418e+00
      vertex  -1.572340e+00 -3.545413e-01  9.013614e-01
      vertex  -1.777216e+00 -3.545413e-01  9.842971e-01
    endloop
  endfacet
  facet normal  0.000000e+00  1.000000e+00  0.000000e+00
    outer loop
      vertex  -1.305658e+00 -3.545413e-01  1.951401e-02
      vertex  -1.640620e+00 -3.545413e-01  2.292855e-01
      vertex  -1.419349e+00 -3.545413e-01  2.929738e-01
    endloop
  endfacet
  facet normal  0.000000e+00  1.000000e+00  0.000000e+00
    outer loop
      vertex  -1.697466e+00 -3.545413e-01  3.660155e-01
      vertex  -1.640620e+00 -3.545413e-01  2.292855e-01
      vertex  -1.861892e+00 -3.545413e-01  1.655973e-01
    endloop
  endfacet
  facet normal  0.000000e+00  1.000000e+00  0.000000e+00
    outer loop
      vertex  -1.201885e+00 -3.545413e-01  1.070418e+00
      vertex  -1.172663e+00 -3.545413e-01  6.819164e-01
      vertex  -1.367463e+00 -3.545413e-01  8.184255e-01
    endloop
  endfacet
  facet normal -0.000000e+00  1.000000e+00  0.000000e+00
    outer loop
      vertex  -1.255451e+00 -3.545413e-01  5.559205e-01
      vertex  -1.172663e+00 -3.545413e-01  6.819164e-01
      vertex  -9.778625e-01 -3.545413e-01  5.454073e-01
    endloop
  endfacet
  facet normal  0.000000e+00  1.000000e+00  0.000000e+00
    outer loop
      vertex  -1.255451e+00 -3.545413e-01  5.559205e-01
      vertex  -1.198606e+00 -3.545413e-01  4.191905e-01
      vertex  -1.419349e+00 -3.545413e-01  2.929738e-01
    endloop
  endfacet
  facet normal  0.000000e+00  1.000000e+00  0.000000e+00
    outer loop
      vertex  -1.305658e+00 -3.545413e-01  1.951401e-02
      vertex  -1.198606e+00 -3.545413e-01  4.191905e-01
      vertex  -9.778625e-01 -3.545413e-01  5.454073e-01
    endloop
  endfacet
  facet normal  0.000000e+00  1.000000e+00 -0.000000e+00
    outer loop
      vertex  -1.655128e+00 -3.545413e-01  7.753654e-01
      vertex  -1.777216e+00 -3.545413e-01  9.842971e-01
      vertex  -1.572340e+00 -3.545413e-01  9.013614e-01
    endloop
  endfacet
  facet normal -0.000000e+00  1.000000e+00  0.000000e+00
    outer loop
      vertex  -1.788597e+00 -3.545413e-01  5.775006e-01
      vertex  -1.655128e+00 -3.545413e-01  7.753654e-01
      vertex  -1.533040e+00 -3.545413e-01  5.664337e-01
    endloop
  endfacet
  facet normal  0.000000e+00  1.000000e+00  0.000000e+00
    outer loop
      vertex  -1.777216e+00 -3.545413e-01  9.842971e-01
      vertex  -1.788597e+00 -3.545413e-01  5.775006e-01
      vertex  -2.044153e+00 -3.545413e-01  5.885673e-01
    endloop
  endfacet
  facet normal  0.000000e+00  1.000000e+00 -0.000000e+00
    outer loop
      vertex  -1.697466e+00 -3.545413e-01  3.660155e-01
      vertex  -1.788597e+00 -3.545413e-01  5.775006e-01
      vertex  -1.533040e+00 -3.545413e-01  5.664337e-01
    endloop
  endfacet
  facet normal  0.000000e+00  1.000000e+00  0.000000e+00
    outer loop
      vertex  -1.419349e+00 -3.545413e-01  2.929738e-01
      vertex  -1.697466e+00 -3.545413e-01  3.660155e-01
      vertex  -1.533040e+00 -3.545413e-01  5.664337e-01
    endloop
  endfacet
  facet normal  0.000000e+00  1.000000e+00  0.000000e+00
    outer loop
      vertex  -2.044153e+00 -3.545413e-01  5.885673e-01
      vertex  -1.697466e+00 -3.545413e-01  3.660155e-01
      vertex  -1.861892e+00 -3.545413e-01  1.655973e-01
    endloop
  endfacet
  facet normal  0.000000e+00  1.000000e+00  0.000000e+00
    outer loop
      vertex  -1.255451e+00 -3.545413e-01  5.559205e-01
      vertex  -9.778625e-01 -3.545413e-01  5.454073e-01
      vertex  -1.198606e+00 -3.545413e-01  4.191905e-01
    endloop
  endfacet
  facet normal  0.000000e+00  1.000000e+00  0.000000e+00
    outer loop
      vertex  -1.367463e+00 -3.545413e-01  8.184255e-01
      vertex  -1.255451e+00 -3.545413e-01  5.559205e-01
      vertex  -1.533040e+00 -3.545413e-01  5.664337e-01
    endloop
  endfacet
  facet normal  0.000000e+00  1.000000e+00 -0.000000e+00
    outer loop
      vertex  -1.419349e+00 -3.545413e-01  2.929738e-01
      vertex  -1.533040e+00 -3.545413e-01  5.664337e-01
      vertex  -1.255451e+00 -3.545413e-01  5.559205e-01
    endloop
  endfacet
  facet normal  0.000000e+00  1.000000e+00  0.000000e+00
    outer loop
      vertex  -1.305658e+00 -3.545413e-01  1.951401e-02
      vertex  -1.861892e+00 -3.545413e-01  1.655973e-01
      vertex  -1.640620e+00 -3.545413e-01  2.292855e-01
    endloop
  endfacet
  facet normal  0.000000e+00  1.000000e+00  0.000000e+00
    outer loop
      vertex  -1.201885e+00 -3.545413e-01  1.070418e+00
      vertex  -9.778625e-01 -3.545413e-01  5.454073e-01
      vertex  -1.172663e+00 -3.545413e-01  6.819164e-01
    endloop
  endfacet
  facet normal  0.000000e+00  1.000000e+00  0.000000e+00
    outer loop
      vertex  -1.367463e+00 -3.545413e-01  8.184255e-01
      vertex  -1.533040e+00 -3.545413e-01  5.664337e-01
      vertex  -1.655128e+00 -3.545413e-01  7.753654e-01
    endloop
  endfacet
  facet normal  0.000000e+00  1.000000e+00  0.000000e+00
    outer loop
      vertex  -1.697466e+00 -3.545413e-01  3.660155e-01
      vertex  -2.044153e+00 -3.545413e-01  5.885673e-01
      vertex  -1.788597e+00 -3.545413e-01  5.775006e-01
    endloop
  endfacet
  facet normal -0.000000e+00  1.000000e+00  0.000000e+00
    outer loop
      vertex  -2.161726e+00 -3.545413e-01  7.934633e-01
      vertex  -2.028257e+00 -3.545413e-01  9.913282e-01
      vertex  -2.036206e+00 -3.545413e-01  7.899477e-01
    endloop
  endfacet
  facet normal  0.000000e+00  1.000000e+00  0.000000e+00
    outer loop
      vertex  -1.201885e+00 -3.545413e-01  1.070418e+00
      vertex  -1.367463e+00 -3.545413e-01  8.184255e-01
      vertex  -1.572340e+00 -3.545413e-01  9.013614e-01
    endloop
  endfacet
  facet normal  0.000000e+00  1.000000e+00  0.000000e+00
    outer loop
      vertex  -2.040384e+00 -3.545413e-01  7.968782e-03
      vertex  -2.263091e+00 -3.545413e-01  2.458775e-01
      vertex  -2.062491e+00 -3.545413e-01  2.057374e-01
    endloop
  endfacet
  facet normal -0.000000e+00  1.000000e+00  0.000000e+00
    outer loop
      vertex  -1.989435e+00 -3.545413e-01  1.317946e+00
      vertex  -1.597624e+00 -3.545413e-01  1.346284e+00
      vertex  -1.687420e+00 -3.545413e-01  1.165290e+00
    endloop
  endfacet
  facet normal  0.000000e+00  1.000000e+00  0.000000e+00
    outer loop
      vertex  -1.697466e+00 -3.545413e-01  3.660155e-01
      vertex  -1.419349e+00 -3.545413e-01  2.929738e-01
      vertex  -1.640620e+00 -3.545413e-01  2.292855e-01
    endloop
  endfacet
  facet normal  0.000000e+00  1.000000e+00  0.000000e+00
    outer loop
      vertex  -2.218876e+00 -3.545413e-01 -1.496598e-01
      vertex  -2.040384e+00 -3.545413e-01  7.968782e-03
      vertex  -1.910380e+00 -3.545413e-01 -1.457067e-01
    endloop
  endfacet
  facet normal  0.000000e+00  1.000000e+00 -0.000000e+00
    outer loop
      vertex  -1.305658e+00 -3.545413e-01  1.951401e-02
      vertex  -1.419349e+00 -3.545413e-01  2.929738e-01
      vertex  -1.198606e+00 -3.545413e-01  4.191905e-01
    endloop
  endfacet
  facet normal  0.000000e+00  1.000000e+00  0.000000e+00
    outer loop
      vertex  -1.777216e+00 -3.545413e-01  9.842971e-01
      vertex  -1.687420e+00 -3.545413e-01  1.165290e+00
      vertex  -1.444653e+00 -3.545413e-01  1.117854e+00
    endloop
  endfacet
  facet normal  0.000000e+00  1.000000e+00  0.000000e+00
    outer loop
      vertex  -2.044153e+00 -3.545413e-01  5.885673e-01
      vertex  -1.861892e+00 -3.545413e-01  1.655973e-01
      vertex  -2.062491e+00 -3.545413e-01  2.057374e-01
    endloop
  endfacet
  facet normal  0.000000e+00  1.000000e+00  0.000000e+00
    outer loop
      vertex  -2.161726e+00 -3.545413e-01  7.934633e-01
      vertex  -2.286812e+00 -3.545413e-01  5.693498e-01
      vertex  -2.283055e+00 -3.545413e-01  7.838545e-01
    endloop
  endfacet
  facet normal  0.000000e+00  1.000000e+00 -0.000000e+00
    outer loop
      vertex  -1.255451e+00 -3.545413e-01  5.559205e-01
      vertex  -1.367463e+00 -3.545413e-01  8.184255e-01
      vertex  -1.172663e+00 -3.545413e-01  6.819164e-01
    endloop
  endfacet
  facet normal  0.000000e+00  1.000000e+00  0.000000e+00
    outer loop
      vertex  -2.286812e+00 -3.545413e-01  5.693498e-01
      vertex  -2.263091e+00 -3.545413e-01  2.458775e-01
      vertex  -2.396281e+00 -3.545413e-01  3.980049e-01
    endloop
  endfacet
  facet normal  0.000000e+00  1.000000e+00  0.000000e+00
    outer loop
      vertex  -2.028257e+00 -3.545413e-01  9.913282e-01
      vertex  -1.989435e+00 -3.545413e-01  1.317946e+00
      vertex  -1.883326e+00 -3.545413e-01  1.151122e+00
    endloop
  endfacet
  facet normal  0.000000e+00  1.000000e+00  0.000000e+00
    outer loop
      vertex  -1.788597e+00 -3.545413e-01  5.775006e-01
      vertex  -1.777216e+00 -3.545413e-01  9.842971e-01
      vertex  -1.655128e+00 -3.545413e-01  7.753654e-01
    endloop
  endfacet
  facet normal  0.000000e+00  1.000000e+00  0.000000e+00
    outer loop
      vertex  -2.396281e+00 -3.545413e-01  3.980049e-01
      vertex  -2.452139e+00 -3.545413e-01  1.503662e-01
      vertex  -2.490804e+00 -3.545413e-01  3.502492e-01
    endloop
  endfacet
  facet normal  0.000000e+00  1.000000e+00 -0.000000e+00
    outer loop
      vertex  -1.780376e+00 -3.545413e-01 -2.993823e-01
      vertex  -1.821134e+00 -3.545413e-01 -6.689249e-02
      vertex  -1.563396e+00 -3.545413e-01 -2.368924e-02
    endloop
  endfacet
endsolid vcg
